AnekKannada-Thin.ufo
<glyph name="ampersand" format="2">
  <advance width="1169"/>
  <unicode hex="0026"/>
  <outline>
    <contour>
      <point x="1165" y="0" type="line"/>
      <point x="1165" y="3" type="line"/>
      <point x="1085" y="84"/>
      <point x="980" y="188"/>
      <point x="908" y="261" type="curve"/>
      <point x="899" y="271" type="line"/>
      <point x="364" y="779" type="line" smooth="yes"/>
      <point x="286" y="854"/>
      <point x="240" y="925"/>
      <point x="240" y="1023" type="curve" smooth="yes"/>
      <point x="240" y="1031" type="line" smooth="yes"/>
      <point x="240" y="1167"/>
      <point x="320" y="1259"/>
      <point x="522" y="1259" type="curve" smooth="yes"/>
      <point x="674" y="1259"/>
      <point x="779" y="1213"/>
      <point x="856" y="1158" type="curve"/>
      <point x="850" y="1200" type="line"/>
      <point x="790" y="1247"/>
      <point x="680" y="1295"/>
      <point x="524" y="1295" type="curve" smooth="yes"/>
      <point x="295" y="1295"/>
      <point x="200" y="1188"/>
      <point x="200" y="1030" type="curve" smooth="yes"/>
      <point x="200" y="1022" type="line" smooth="yes"/>
      <point x="200" y="918"/>
      <point x="244" y="843"/>
      <point x="328" y="761" type="curve"/>
      <point x="334" y="755" type="line"/>
      <point x="880" y="237" type="line"/>
      <point x="889" y="226" type="line"/>
      <point x="947" y="169"/>
      <point x="1046" y="68"/>
      <point x="1113" y="0" type="curve"/>
    </contour>
    <contour>
      <point x="495" y="-18" type="curve" smooth="yes"/>
      <point x="689" y="-18"/>
      <point x="816" y="76"/>
      <point x="913" y="234" type="curve"/>
      <point x="919" y="243" type="line"/>
      <point x="989" y="376"/>
      <point x="1036" y="556"/>
      <point x="1060" y="782" type="curve"/>
      <point x="1020" y="782" type="line"/>
      <point x="998" y="574"/>
      <point x="955" y="402"/>
      <point x="890" y="272" type="curve"/>
      <point x="882" y="257" type="line"/>
      <point x="791" y="105"/>
      <point x="674" y="18"/>
      <point x="497" y="18" type="curve" smooth="yes"/>
      <point x="275" y="18"/>
      <point x="155" y="132"/>
      <point x="155" y="354" type="curve" smooth="yes"/>
      <point x="155" y="409" type="line" smooth="yes"/>
      <point x="155" y="580"/>
      <point x="212" y="685"/>
      <point x="363" y="751" type="curve"/>
      <point x="338" y="780" type="line"/>
      <point x="171" y="702"/>
      <point x="115" y="577"/>
      <point x="115" y="406" type="curve" smooth="yes"/>
      <point x="115" y="353" type="line" smooth="yes"/>
      <point x="115" y="112"/>
      <point x="248" y="-18"/>
    </contour>
  </outline>
</glyph>
<glyph name="period" format="2">
  <advance width="308"/>
  <unicode hex="002E"/>
  <outline>
    <contour>
      <point x="153" y="-12" type="curve" smooth="yes"/>
      <point x="183" y="-12"/>
      <point x="198" y="7"/>
      <point x="198" y="45" type="curve" smooth="yes"/>
      <point x="198" y="55" type="line" smooth="yes"/>
      <point x="198" y="92"/>
      <point x="183" y="110"/>
      <point x="153" y="110" type="curve" smooth="yes"/>
      <point x="125" y="110"/>
      <point x="110" y="92"/>
      <point x="110" y="55" type="curve" smooth="yes"/>
      <point x="110" y="45" type="line" smooth="yes"/>
      <point x="110" y="7"/>
      <point x="125" y="-12"/>
    </contour>
  </outline>
</glyph>
<glyph name="at" format="2">
  <advance width="1598"/>
  <unicode hex="0040"/>
  <outline>
    <contour>
      <point x="753" y="78" type="curve" smooth="yes"/>
      <point x="909" y="78"/>
      <point x="1009" y="175"/>
      <point x="1037" y="312" type="curve"/>
      <point x="1047" y="312" type="line"/>
      <point x="1035" y="355" type="line"/>
      <point x="999" y="209"/>
      <point x="899" y="111"/>
      <point x="763" y="111" type="curve" smooth="yes"/>
      <point x="624" y="111"/>
      <point x="550" y="189"/>
      <point x="550" y="333" type="curve" smooth="yes"/>
      <point x="550" y="373"/>
      <point x="557" y="442"/>
      <point x="569" y="558" type="curve" smooth="yes"/>
      <point x="589" y="755"/>
      <point x="668" y="870"/>
      <point x="833" y="870" type="curve" smooth="yes"/>
      <point x="959" y="870"/>
      <point x="1057" y="790"/>
      <point x="1058" y="632" type="curve" smooth="yes"/>
      <point x="1058" y="624"/>
      <point x="1058" y="616"/>
      <point x="1058" y="608" type="curve"/>
      <point x="1081" y="641" type="line"/>
      <point x="1070" y="641" type="line"/>
      <point x="1082" y="803"/>
      <point x="987" y="902"/>
      <point x="834" y="902" type="curve" smooth="yes"/>
      <point x="648" y="902"/>
      <point x="555" y="783"/>
      <point x="533" y="555" type="curve" smooth="yes"/>
      <point x="522" y="441"/>
      <point x="514" y="370"/>
      <point x="514" y="328" type="curve" smooth="yes"/>
      <point x="514" y="169"/>
      <point x="601" y="78"/>
    </contour>
    <contour>
      <point x="1039" y="94" type="line"/>
      <point x="1119" y="886" type="line"/>
      <point x="1083" y="886" type="line"/>
      <point x="1083" y="886" type="line"/>
      <point x="1065" y="681" type="line"/>
      <point x="1063" y="665" type="line"/>
      <point x="1028" y="313" type="line"/>
      <point x="1029" y="301" type="line"/>
      <point x="1004" y="93" type="line"/>
    </contour>
    <contour>
      <point x="1004" y="93" type="line"/>
      <point x="1036" y="87"/>
      <point x="1053" y="85"/>
      <point x="1097" y="85" type="curve" smooth="yes"/>
      <point x="1314" y="85"/>
      <point x="1427" y="200"/>
      <point x="1456" y="484" type="curve" smooth="yes"/>
      <point x="1466" y="580"/>
      <point x="1472" y="668"/>
      <point x="1475" y="702" type="curve" smooth="yes"/>
      <point x="1505" y="1100"/>
      <point x="1261" y="1320"/>
      <point x="862" y="1320" type="curve" smooth="yes"/>
      <point x="405" y="1320"/>
      <point x="203" y="1066"/>
      <point x="163" y="607" type="curve" smooth="yes"/>
      <point x="154" y="507"/>
      <point x="141" y="370"/>
      <point x="134" y="272" type="curve" smooth="yes"/>
      <point x="107" y="-124"/>
      <point x="355" y="-346"/>
      <point x="767" y="-346" type="curve" smooth="yes"/>
      <point x="1012" y="-346"/>
      <point x="1201" y="-285"/>
      <point x="1327" y="-181" type="curve"/>
      <point x="1335" y="-133" type="line"/>
      <point x="1215" y="-242"/>
      <point x="1026" y="-313"/>
      <point x="771" y="-313" type="curve" smooth="yes"/>
      <point x="375" y="-313"/>
      <point x="144" y="-100"/>
      <point x="170" y="270" type="curve" smooth="yes"/>
      <point x="177" y="365"/>
      <point x="191" y="501"/>
      <point x="200" y="612" type="curve" smooth="yes"/>
      <point x="234" y="1046"/>
      <point x="432" y="1287"/>
      <point x="859" y="1287" type="curve" smooth="yes"/>
      <point x="1242" y="1287"/>
      <point x="1472" y="1078"/>
      <point x="1440" y="703" type="curve" smooth="yes"/>
      <point x="1437" y="672"/>
      <point x="1430" y="582"/>
      <point x="1420" y="484" type="curve" smooth="yes"/>
      <point x="1393" y="212"/>
      <point x="1287" y="117"/>
      <point x="1094" y="117" type="curve" smooth="yes"/>
      <point x="1061" y="117"/>
      <point x="1044" y="119"/>
      <point x="1024" y="124" type="curve"/>
    </contour>
  </outline>
</glyph>
<glyph name="E" format="2">
  <advance width="1014"/>
  <unicode hex="0045"/>
  <anchor x="548" y="0" name="bottom"/>
  <anchor x="950" y="0" name="ogonek"/>
  <anchor x="548" y="1278" name="top"/>
  <anchor x="26" y="1278" name="topleft"/>
  <outline>
    <contour>
      <point x="224" y="0" type="line"/>
      <point x="224" y="1278" type="line"/>
      <point x="185" y="1278" type="line"/>
      <point x="185" y="0" type="line"/>
    </contour>
    <contour>
      <point x="898" y="0" type="line"/>
      <point x="898" y="35" type="line"/>
      <point x="198" y="35" type="line"/>
      <point x="198" y="0" type="line"/>
    </contour>
    <contour>
      <point x="879" y="638" type="line"/>
      <point x="879" y="673" type="line"/>
      <point x="205" y="673" type="line"/>
      <point x="205" y="638" type="line"/>
    </contour>
    <contour>
      <point x="893" y="1243" type="line"/>
      <point x="893" y="1278" type="line"/>
      <point x="196" y="1278" type="line"/>
      <point x="196" y="1243" type="line"/>
    </contour>
  </outline>
</glyph>
<glyph name="F" format="2">
  <advance width="974"/>
  <unicode hex="0046"/>
  <anchor x="487" y="0" name="bottom"/>
  <anchor x="487" y="1278" name="top"/>
  <outline>
    <contour>
      <point x="224" y="0" type="line"/>
      <point x="224" y="1278" type="line"/>
      <point x="185" y="1278" type="line"/>
      <point x="185" y="0" type="line"/>
    </contour>
    <contour>
      <point x="862" y="612" type="line"/>
      <point x="862" y="647" type="line"/>
      <point x="205" y="647" type="line"/>
      <point x="205" y="612" type="line"/>
    </contour>
    <contour>
      <point x="876" y="1243" type="line"/>
      <point x="876" y="1278" type="line"/>
      <point x="196" y="1278" type="line"/>
      <point x="196" y="1243" type="line"/>
    </contour>
  </outline>
</glyph>
<glyph name="J" format="2">
  <advance width="830"/>
  <unicode hex="004A"/>
  <anchor x="416" y="0" name="bottom"/>
  <anchor x="634" y="1278" name="top"/>
  <outline>
    <contour>
      <point x="328" y="-13" type="curve" smooth="yes"/>
      <point x="568" y="-13"/>
      <point x="654" y="104"/>
      <point x="654" y="321" type="curve" smooth="yes"/>
      <point x="654" y="1278" type="line"/>
      <point x="615" y="1278" type="line"/>
      <point x="615" y="322" type="line" smooth="yes"/>
      <point x="615" y="122"/>
      <point x="541" y="24"/>
      <point x="328" y="24" type="curve" smooth="yes"/>
      <point x="244" y="24"/>
      <point x="159" y="42"/>
      <point x="81" y="79" type="curve"/>
      <point x="86" y="38" type="line"/>
      <point x="153" y="7"/>
      <point x="239" y="-13"/>
    </contour>
  </outline>
</glyph>
<glyph name="Z" format="2">
  <advance width="1005"/>
  <unicode hex="005A"/>
  <anchor x="503" y="0" name="bottom"/>
  <anchor x="503" y="639" name="center"/>
  <anchor x="503" y="1278" name="top"/>
  <outline>
    <contour>
      <point x="154" y="35" type="line"/>
      <point x="891" y="1248" type="line"/>
      <point x="891" y="1278" type="line"/>
      <point x="112" y="1278" type="line"/>
      <point x="112" y="1244" type="line"/>
      <point x="845" y="1244" type="line"/>
      <point x="109" y="31" type="line"/>
      <point x="109" y="0" type="line"/>
      <point x="896" y="0" type="line"/>
      <point x="896" y="35" type="line"/>
    </contour>
  </outline>
</glyph>
<glyph name="bracketright" format="2">
  <advance width="590"/>
  <unicode hex="005D"/>
  <outline>
    <contour>
      <point x="60" y="-236" type="line"/>
      <point x="60" y="-203" type="line"/>
      <point x="367" y="-203" type="line"/>
      <point x="367" y="1317" type="line"/>
      <point x="60" y="1317" type="line"/>
      <point x="60" y="1350" type="line"/>
      <point x="404" y="1350" type="line"/>
      <point x="404" y="-236" type="line"/>
    </contour>
  </outline>
</glyph>
<glyph name="grave" format="2">
  <advance width="472"/>
  <unicode hex="0060"/>
  <anchor x="347" y="1295" name="top"/>
  <outline>
    <contour>
      <point x="369" y="1112" type="line"/>
      <point x="369" y="1111" type="line"/>
      <point x="330" y="1111" type="line"/>
      <point x="109" y="1358" type="line"/>
      <point x="109" y="1360" type="line"/>
      <point x="157" y="1360" type="line"/>
    </contour>
  </outline>
</glyph>
<glyph name="j" format="2">
  <advance width="408"/>
  <unicode hex="006A"/>
  <outline>
    <component base="jbottom"/>
    <contour>
      <point x="242" y="0" type="line"/>
      <point x="242" y="971" type="line"/>
      <point x="205" y="971" type="line"/>
      <point x="205" y="0" type="line"/>
    </contour>
    <contour>
      <point x="224" y="1189" type="curve" smooth="yes"/>
      <point x="252" y="1189"/>
      <point x="266" y="1207"/>
      <point x="266" y="1244" type="curve" smooth="yes"/>
      <point x="266" y="1253" type="line" smooth="yes"/>
      <point x="266" y="1289"/>
      <point x="252" y="1307"/>
      <point x="224" y="1307" type="curve" smooth="yes"/>
      <point x="196" y="1307"/>
      <point x="181" y="1289"/>
      <point x="181" y="1253" type="curve" smooth="yes"/>
      <point x="181" y="1244" type="line" smooth="yes"/>
      <point x="181" y="1207"/>
      <point x="196" y="1189"/>
    </contour>
  </outline>
</glyph>
<glyph name="s" format="2">
  <advance width="846"/>
  <unicode hex="0073"/>
  <anchor x="421" y="0" name="bottom"/>
  <anchor x="421" y="971" name="top"/>
  <outline>
    <contour>
      <point x="425" y="-19" type="curve" smooth="yes"/>
      <point x="634" y="-19"/>
      <point x="757" y="68"/>
      <point x="757" y="227" type="curve" smooth="yes"/>
      <point x="757" y="249" type="line" smooth="yes"/>
      <point x="757" y="403"/>
      <point x="683" y="472"/>
      <point x="428" y="520" type="curve" smooth="yes"/>
      <point x="201" y="563"/>
      <point x="132" y="609"/>
      <point x="132" y="749" type="curve" smooth="yes"/>
      <point x="132" y="759" type="line" smooth="yes"/>
      <point x="132" y="881"/>
      <point x="220" y="955"/>
      <point x="408" y="955" type="curve" smooth="yes"/>
      <point x="551" y="955"/>
      <point x="651" y="912"/>
      <point x="733" y="854" type="curve"/>
      <point x="727" y="895" type="line"/>
      <point x="664" y="943"/>
      <point x="558" y="989"/>
      <point x="409" y="989" type="curve" smooth="yes"/>
      <point x="199" y="989"/>
      <point x="95" y="905"/>
      <point x="95" y="759" type="curve" smooth="yes"/>
      <point x="95" y="749" type="line" smooth="yes"/>
      <point x="95" y="592"/>
      <point x="172" y="532"/>
      <point x="419" y="486" type="curve" smooth="yes"/>
      <point x="661" y="439"/>
      <point x="720" y="380"/>
      <point x="720" y="247" type="curve" smooth="yes"/>
      <point x="720" y="227" type="line" smooth="yes"/>
      <point x="720" y="88"/>
      <point x="610" y="16"/>
      <point x="427" y="16" type="curve" smooth="yes"/>
      <point x="281" y="16"/>
      <point x="176" y="59"/>
      <point x="83" y="118" type="curve"/>
      <point x="89" y="75" type="line"/>
      <point x="158" y="30"/>
      <point x="269" y="-19"/>
    </contour>
  </outline>
</glyph>
<glyph name="x" format="2">
  <advance width="909"/>
  <unicode hex="0078"/>
  <anchor x="455" y="0" name="bottom"/>
  <anchor x="455" y="971" name="top"/>
  <outline>
    <contour>
      <point x="127" y="0" type="line"/>
      <point x="450" y="477" type="line"/>
      <point x="460" y="477" type="line"/>
      <point x="783" y="0" type="line"/>
      <point x="827" y="0" type="line"/>
      <point x="480" y="510" type="line"/>
      <point x="480" y="496" type="line"/>
      <point x="822" y="971" type="line"/>
      <point x="778" y="971" type="line"/>
      <point x="460" y="525" type="line"/>
      <point x="450" y="525" type="line"/>
      <point x="132" y="971" type="line"/>
      <point x="88" y="971" type="line"/>
      <point x="430" y="495" type="line"/>
      <point x="430" y="509" type="line"/>
      <point x="82" y="0" type="line"/>
    </contour>
  </outline>
</glyph>
<glyph name="braceleft" format="2">
  <advance width="665"/>
  <unicode hex="007B"/>
  <outline>
    <contour>
      <point x="597" y="1325" type="line"/>
      <point x="560" y="1340"/>
      <point x="510" y="1351"/>
      <point x="453" y="1351" type="curve" smooth="yes"/>
      <point x="309" y="1351"/>
      <point x="246" y="1279"/>
      <point x="246" y="1125" type="curve" smooth="yes"/>
      <point x="246" y="1023"/>
      <point x="262" y="878"/>
      <point x="262" y="782" type="curve" smooth="yes"/>
      <point x="262" y="661"/>
      <point x="227" y="594"/>
      <point x="80" y="581" type="curve"/>
      <point x="80" y="541" type="line"/>
      <point x="227" y="526"/>
      <point x="262" y="458"/>
      <point x="262" y="335" type="curve" smooth="yes"/>
      <point x="262" y="241"/>
      <point x="246" y="93"/>
      <point x="246" y="-12" type="curve" smooth="yes"/>
      <point x="246" y="-165"/>
      <point x="310" y="-237"/>
      <point x="453" y="-237" type="curve" smooth="yes"/>
      <point x="510" y="-237"/>
      <point x="560" y="-226"/>
      <point x="597" y="-210" type="curve"/>
      <point x="597" y="-176" type="line"/>
      <point x="562" y="-191"/>
      <point x="514" y="-204"/>
      <point x="454" y="-204" type="curve" smooth="yes"/>
      <point x="334" y="-204"/>
      <point x="284" y="-148"/>
      <point x="284" y="-9" type="curve" smooth="yes"/>
      <point x="284" y="85"/>
      <point x="299" y="231"/>
      <point x="299" y="337" type="curve" smooth="yes"/>
      <point x="299" y="466"/>
      <point x="255" y="547"/>
      <point x="114" y="561" type="curve"/>
      <point x="116" y="551" type="line"/>
      <point x="116" y="562" type="line"/>
      <point x="255" y="578"/>
      <point x="299" y="654"/>
      <point x="299" y="781" type="curve" smooth="yes"/>
      <point x="299" y="885"/>
      <point x="284" y="1030"/>
      <point x="284" y="1123" type="curve" smooth="yes"/>
      <point x="284" y="1261"/>
      <point x="334" y="1317"/>
      <point x="454" y="1317" type="curve" smooth="yes"/>
      <point x="514" y="1317"/>
      <point x="562" y="1305"/>
      <point x="597" y="1290" type="curve"/>
    </contour>
  </outline>
</glyph>
<glyph name="bar" format="2">
  <advance width="458"/>
  <unicode hex="007C"/>
  <outline>
    <contour>
      <point x="247" y="1421" type="line"/>
      <point x="211" y="1421" type="line"/>
      <point x="211" y="-451" type="line"/>
      <point x="247" y="-451" type="line"/>
    </contour>
  </outline>
</glyph>
<glyph name="cent" format="2">
  <advance width="852"/>
  <unicode hex="00A2"/>
  <outline>
    <component base="c"/>
    <contour>
      <point x="492" y="1195" type="line"/>
      <point x="457" y="1195" type="line"/>
      <point x="457" y="971.532" type="line"/>
      <point x="492" y="971.532" type="line"/>
    </contour>
    <contour>
      <point x="492" y="0" type="line"/>
      <point x="457" y="0" type="line"/>
      <point x="457" y="-228" type="line"/>
      <point x="492" y="-228" type="line"/>
    </contour>
  </outline>
</glyph>
<glyph name="copyright" format="2">
  <advance width="1358"/>
  <unicode hex="00A9"/>
  <outline>
    <contour>
      <point x="679" y="-18" type="curve" smooth="yes"/>
      <point x="1031" y="-18"/>
      <point x="1231" y="189"/>
      <point x="1231" y="540" type="curve" smooth="yes"/>
      <point x="1231" y="738" type="line" smooth="yes"/>
      <point x="1231" y="1089"/>
      <point x="1031" y="1296"/>
      <point x="679" y="1296" type="curve" smooth="yes"/>
      <point x="327" y="1296"/>
      <point x="127" y="1089"/>
      <point x="127" y="738" type="curve" smooth="yes"/>
      <point x="127" y="540" type="line" smooth="yes"/>
      <point x="127" y="189"/>
      <point x="327" y="-18"/>
    </contour>
    <contour>
      <point x="707" y="313" type="curve" smooth="yes"/>
      <point x="805" y="313"/>
      <point x="866" y="347"/>
      <point x="902" y="380" type="curve"/>
      <point x="906" y="420" type="line"/>
      <point x="862" y="381"/>
      <point x="803" y="347"/>
      <point x="709" y="347" type="curve" smooth="yes"/>
      <point x="565" y="347"/>
      <point x="495" y="436"/>
      <point x="495" y="595" type="curve" smooth="yes"/>
      <point x="495" y="687" type="line" smooth="yes"/>
      <point x="495" y="846"/>
      <point x="566" y="933"/>
      <point x="707" y="933" type="curve" smooth="yes"/>
      <point x="798" y="933"/>
      <point x="857" y="900"/>
      <point x="901" y="861" type="curve"/>
      <point x="897" y="901" type="line"/>
      <point x="864" y="932"/>
      <point x="803" y="967"/>
      <point x="708" y="967" type="curve" smooth="yes"/>
      <point x="542" y="967"/>
      <point x="459" y="867"/>
      <point x="459" y="686" type="curve" smooth="yes"/>
      <point x="459" y="594" type="line" smooth="yes"/>
      <point x="459" y="413"/>
      <point x="541" y="313"/>
    </contour>
    <contour>
      <point x="679" y="15" type="curve" smooth="yes"/>
      <point x="349" y="15"/>
      <point x="164" y="209"/>
      <point x="164" y="540" type="curve" smooth="yes"/>
      <point x="164" y="739" type="line" smooth="yes"/>
      <point x="164" y="1069"/>
      <point x="349" y="1263"/>
      <point x="679" y="1263" type="curve" smooth="yes"/>
      <point x="1009" y="1263"/>
      <point x="1194" y="1069"/>
      <point x="1194" y="739" type="curve" smooth="yes"/>
      <point x="1194" y="540" type="line" smooth="yes"/>
      <point x="1194" y="209"/>
      <point x="1009" y="15"/>
    </contour>
  </outline>
</glyph>
<glyph name="degree" format="2">
  <advance width="641"/>
  <unicode hex="00B0"/>
  <outline>
    <contour>
      <point x="320" y="824" type="curve" smooth="yes"/>
      <point x="454" y="824"/>
      <point x="531" y="914"/>
      <point x="531" y="1056" type="curve"/>
      <point x="531" y="1065" type="line"/>
      <point x="531" y="1207"/>
      <point x="454" y="1296"/>
      <point x="320" y="1296" type="curve" smooth="yes"/>
      <point x="187" y="1296"/>
      <point x="110" y="1207"/>
      <point x="110" y="1065" type="curve"/>
      <point x="110" y="1056" type="line"/>
      <point x="110" y="914"/>
      <point x="187" y="824"/>
    </contour>
    <contour>
      <point x="320" y="857" type="curve" smooth="yes"/>
      <point x="209" y="857"/>
      <point x="146" y="933"/>
      <point x="146" y="1055" type="curve" smooth="yes"/>
      <point x="146" y="1066" type="line" smooth="yes"/>
      <point x="146" y="1188"/>
      <point x="209" y="1263"/>
      <point x="320" y="1263" type="curve" smooth="yes"/>
      <point x="432" y="1263"/>
      <point x="494" y="1188"/>
      <point x="494" y="1066" type="curve" smooth="yes"/>
      <point x="494" y="1055" type="line" smooth="yes"/>
      <point x="494" y="933"/>
      <point x="432" y="857"/>
    </contour>
  </outline>
</glyph>
<glyph name="plusminus" format="2">
  <advance width="1034"/>
  <unicode hex="00B1"/>
  <outline>
    <contour>
      <point x="893" y="203" type="line"/>
      <point x="893" y="236" type="line"/>
      <point x="141" y="236" type="line"/>
      <point x="141" y="203" type="line"/>
    </contour>
    <contour>
      <point x="535" y="1075" type="line"/>
      <point x="499" y="1075" type="line"/>
      <point x="499" y="396" type="line"/>
      <point x="535" y="396" type="line"/>
    </contour>
    <contour>
      <point x="893" y="719" type="line"/>
      <point x="893" y="752" type="line"/>
      <point x="141" y="752" type="line"/>
      <point x="141" y="719" type="line"/>
    </contour>
  </outline>
</glyph>
<glyph name="threesuperior" format="2">
  <advance width="612"/>
  <unicode hex="00B3"/>
  <outline>
    <contour>
      <point x="289" y="715" type="curve" smooth="yes"/>
      <point x="470" y="715"/>
      <point x="539" y="800"/>
      <point x="539" y="901" type="curve" smooth="yes"/>
      <point x="539" y="916" type="line" smooth="yes"/>
      <point x="539" y="1009"/>
      <point x="488" y="1072"/>
      <point x="355" y="1078" type="curve"/>
      <point x="349" y="1075" type="line"/>
      <point x="355" y="1075" type="line"/>
      <point x="486" y="1078"/>
      <point x="532" y="1153"/>
      <point x="532" y="1229" type="curve" smooth="yes"/>
      <point x="532" y="1243" type="line" smooth="yes"/>
      <point x="532" y="1349"/>
      <point x="461" y="1412"/>
      <point x="299" y="1412" type="curve" smooth="yes"/>
      <point x="190" y="1412"/>
      <point x="111" y="1383"/>
      <point x="69" y="1357" type="curve"/>
      <point x="65" y="1322" type="line"/>
      <point x="119" y="1352"/>
      <point x="193" y="1380"/>
      <point x="296" y="1380" type="curve" smooth="yes"/>
      <point x="434" y="1380"/>
      <point x="496" y="1328"/>
      <point x="496" y="1241" type="curve" smooth="yes"/>
      <point x="496" y="1229" type="line" smooth="yes"/>
      <point x="496" y="1147"/>
      <point x="441" y="1091"/>
      <point x="305" y="1090" type="curve" smooth="yes"/>
      <point x="170" y="1089" type="line"/>
      <point x="170" y="1060" type="line"/>
      <point x="309" y="1059" type="line" smooth="yes"/>
      <point x="445" y="1058"/>
      <point x="503" y="1012"/>
      <point x="503" y="917" type="curve" smooth="yes"/>
      <point x="503" y="904" type="line" smooth="yes"/>
      <point x="503" y="812"/>
      <point x="440" y="747"/>
      <point x="291" y="747" type="curve" smooth="yes"/>
      <point x="197" y="747"/>
      <point x="112" y="774"/>
      <point x="60" y="801" type="curve"/>
      <point x="64" y="765" type="line"/>
      <point x="103" y="745"/>
      <point x="181" y="715"/>
    </contour>
  </outline>
</glyph>
<glyph name="paragraph" format="2">
  <advance width="647"/>
  <unicode hex="00B6"/>
  <outline>
    <contour>
      <point x="440" y="676" type="line"/>
      <point x="439" y="1278" type="line"/>
      <point x="356" y="1278" type="line" smooth="yes"/>
      <point x="189" y="1278"/>
      <point x="110" y="1172"/>
      <point x="110" y="1011" type="curve" smooth="yes"/>
      <point x="110" y="945" type="line" smooth="yes"/>
      <point x="110" y="783"/>
      <point x="189" y="676"/>
      <point x="357" y="676" type="curve"/>
    </contour>
    <contour>
      <point x="462" y="1278" type="line"/>
      <point x="423" y="1278" type="line"/>
      <point x="423" y="0" type="line"/>
      <point x="462" y="0" type="line"/>
    </contour>
  </outline>
</glyph>
<glyph name="questiondown" format="2">
  <advance width="860"/>
  <unicode hex="00BF"/>
  <outline>
    <contour>
      <point x="479" y="568" type="line" smooth="yes"/>
      <point x="236" y="501"/>
      <point x="118" y="382"/>
      <point x="118" y="154" type="curve" smooth="yes"/>
      <point x="118" y="31" type="line" smooth="yes"/>
      <point x="118" y="-198"/>
      <point x="213" y="-323"/>
      <point x="447" y="-323" type="curve" smooth="yes"/>
      <point x="593" y="-323"/>
      <point x="716" y="-266"/>
      <point x="779" y="-217" type="curve"/>
      <point x="785" y="-175" type="line"/>
      <point x="706" y="-234"/>
      <point x="585" y="-287"/>
      <point x="448" y="-287" type="curve" smooth="yes"/>
      <point x="237" y="-287"/>
      <point x="156" y="-175"/>
      <point x="156" y="32" type="curve" smooth="yes"/>
      <point x="156" y="154" type="line" smooth="yes"/>
      <point x="156" y="367"/>
      <point x="271" y="473"/>
      <point x="491" y="534" type="curve" smooth="yes"/>
      <point x="552" y="551" type="line"/>
      <point x="552" y="588" type="line"/>
    </contour>
    <contour>
      <point x="525" y="983" type="curve" smooth="yes"/>
      <point x="495" y="983"/>
      <point x="480" y="964"/>
      <point x="480" y="926" type="curve" smooth="yes"/>
      <point x="480" y="916" type="line" smooth="yes"/>
      <point x="480" y="879"/>
      <point x="495" y="861"/>
      <point x="525" y="861" type="curve" smooth="yes"/>
      <point x="553" y="861"/>
      <point x="568" y="879"/>
      <point x="568" y="916" type="curve" smooth="yes"/>
      <point x="568" y="926" type="line" smooth="yes"/>
      <point x="568" y="964"/>
      <point x="553" y="983"/>
    </contour>
  </outline>
</glyph>
<glyph name="eth" format="2">
  <advance width="998"/>
  <unicode hex="00F0"/>
  <outline>
    <contour>
      <point x="499" y="-23" type="curve" smooth="yes"/>
      <point x="747" y="-23"/>
      <point x="880" y="125"/>
      <point x="880" y="396" type="curve" smooth="yes"/>
      <point x="880" y="560" type="line" smooth="yes"/>
      <point x="880" y="923"/>
      <point x="703" y="1053"/>
      <point x="325" y="1329" type="curve"/>
      <point x="268" y="1329" type="line"/>
      <point x="268" y="1329" type="line"/>
      <point x="633" y="1072"/>
      <point x="811" y="935"/>
      <point x="843" y="662" type="curve"/>
      <point x="840" y="653"/>
      <point x="841" y="643"/>
      <point x="842" y="634" type="curve"/>
      <point x="842" y="554"/>
      <point x="842" y="475"/>
      <point x="842" y="395" type="curve" smooth="yes"/>
      <point x="842" y="145"/>
      <point x="722" y="10"/>
      <point x="499" y="10" type="curve" smooth="yes"/>
      <point x="275" y="10"/>
      <point x="155" y="145"/>
      <point x="155" y="395" type="curve" smooth="yes"/>
      <point x="155" y="515" type="line" smooth="yes"/>
      <point x="155" y="762"/>
      <point x="273" y="897"/>
      <point x="492" y="897" type="curve" smooth="yes"/>
      <point x="673" y="897"/>
      <point x="830" y="783"/>
      <point x="842" y="557" type="curve"/>
      <point x="863" y="583" type="line"/>
      <point x="850" y="589" type="line"/>
      <point x="850" y="796"/>
      <point x="693" y="930"/>
      <point x="491" y="930" type="curve" smooth="yes"/>
      <point x="252" y="930"/>
      <point x="118" y="783"/>
      <point x="118" y="516" type="curve" smooth="yes"/>
      <point x="118" y="395" type="line" smooth="yes"/>
      <point x="118" y="126"/>
      <point x="250" y="-23"/>
    </contour>
    <contour>
      <point x="832" y="1225" type="line"/>
      <point x="832" y="1260" type="line"/>
      <point x="223" y="1076" type="line"/>
      <point x="223" y="1041" type="line"/>
    </contour>
  </outline>
</glyph>
<glyph name="divide" format="2">
  <advance width="992"/>
  <unicode hex="00F7"/>
  <outline>
    <component base="period" xOffset="345" yOffset="239"/>
    <component base="period" xOffset="345" yOffset="914"/>
    <contour>
      <point x="872" y="609" type="line"/>
      <point x="872" y="642" type="line"/>
      <point x="120" y="642" type="line"/>
      <point x="120" y="609" type="line"/>
    </contour>
  </outline>
</glyph>
<glyph name="Candrabindu" format="2">
  <unicode hex="0C81"/>
  <unicode hex="0D01"/>
  <outline>
    <contour>
      <point x="-718" y="1367" type="curve" smooth="yes"/>
      <point x="-881" y="1367"/>
      <point x="-983" y="1448"/>
      <point x="-983" y="1598" type="curve" smooth="yes"/>
      <point x="-983" y="1615" type="line"/>
      <point x="-1018" y="1615" type="line"/>
      <point x="-1018" y="1597" type="line" smooth="yes"/>
      <point x="-1018" y="1430"/>
      <point x="-908" y="1334"/>
      <point x="-718" y="1334" type="curve" smooth="yes"/>
      <point x="-529" y="1334"/>
      <point x="-417" y="1430"/>
      <point x="-417" y="1597" type="curve" smooth="yes"/>
      <point x="-417" y="1615" type="line"/>
      <point x="-452" y="1615" type="line"/>
      <point x="-452" y="1598" type="line" smooth="yes"/>
      <point x="-452" y="1448"/>
      <point x="-555" y="1367"/>
    </contour>
    <contour>
      <point x="-761" y="1624" type="line" smooth="yes"/>
      <point x="-761" y="1593"/>
      <point x="-748" y="1572"/>
      <point x="-716" y="1572" type="curve" smooth="yes"/>
      <point x="-684" y="1572"/>
      <point x="-670" y="1593"/>
      <point x="-670" y="1624" type="curve" smooth="yes"/>
      <point x="-670" y="1627" type="line" smooth="yes"/>
      <point x="-670" y="1660"/>
      <point x="-684" y="1679"/>
      <point x="-716" y="1679" type="curve" smooth="yes"/>
      <point x="-748" y="1679"/>
      <point x="-761" y="1660"/>
      <point x="-761" y="1627" type="curve" smooth="yes"/>
    </contour>
  </outline>
</glyph>
<glyph name="Visarga.kn" format="2">
  <advance width="673"/>
  <unicode hex="0C83"/>
  <outline>
    <contour>
      <point x="335" y="13" type="curve" smooth="yes"/>
      <point x="496" y="13"/>
      <point x="578" y="98"/>
      <point x="578" y="250" type="curve" smooth="yes"/>
      <point x="578" y="280" type="line" smooth="yes"/>
      <point x="578" y="434"/>
      <point x="496" y="517"/>
      <point x="335" y="517" type="curve" smooth="yes"/>
      <point x="175" y="517"/>
      <point x="93" y="434"/>
      <point x="93" y="280" type="curve" smooth="yes"/>
      <point x="93" y="250" type="line" smooth="yes"/>
      <point x="93" y="98"/>
      <point x="175" y="13"/>
    </contour>
    <contour>
      <point x="335" y="484" type="curve" smooth="yes"/>
      <point x="473" y="484"/>
      <point x="543" y="412"/>
      <point x="543" y="280" type="curve" smooth="yes"/>
      <point x="543" y="250" type="line" smooth="yes"/>
      <point x="543" y="119"/>
      <point x="473" y="46"/>
      <point x="335" y="46" type="curve" smooth="yes"/>
      <point x="199" y="46"/>
      <point x="128" y="119"/>
      <point x="128" y="250" type="curve" smooth="yes"/>
      <point x="128" y="280" type="line" smooth="yes"/>
      <point x="128" y="412"/>
      <point x="199" y="484"/>
    </contour>
    <contour>
      <point x="335" y="619" type="curve" smooth="yes"/>
      <point x="496" y="619"/>
      <point x="578" y="704"/>
      <point x="578" y="856" type="curve" smooth="yes"/>
      <point x="578" y="885" type="line" smooth="yes"/>
      <point x="578" y="1039"/>
      <point x="496" y="1122"/>
      <point x="335" y="1122" type="curve" smooth="yes"/>
      <point x="175" y="1122"/>
      <point x="93" y="1039"/>
      <point x="93" y="885" type="curve" smooth="yes"/>
      <point x="93" y="856" type="line" smooth="yes"/>
      <point x="93" y="704"/>
      <point x="175" y="619"/>
    </contour>
    <contour>
      <point x="335" y="1090" type="curve" smooth="yes"/>
      <point x="473" y="1090"/>
      <point x="543" y="1017"/>
      <point x="543" y="885" type="curve" smooth="yes"/>
      <point x="543" y="856" type="line" smooth="yes"/>
      <point x="543" y="725"/>
      <point x="473" y="651"/>
      <point x="335" y="651" type="curve" smooth="yes"/>
      <point x="199" y="651"/>
      <point x="128" y="725"/>
      <point x="128" y="856" type="curve" smooth="yes"/>
      <point x="128" y="885" type="line" smooth="yes"/>
      <point x="128" y="1017"/>
      <point x="199" y="1090"/>
    </contour>
  </outline>
</glyph>
<glyph name="vowelA.kn" format="2">
  <advance width="1562"/>
  <unicode hex="0C85"/>
  <outline>
    <contour>
      <point x="1186" y="493" type="line"/>
      <point x="1186" y="525" type="line"/>
      <point x="629" y="525" type="line"/>
      <point x="629" y="493" type="line"/>
    </contour>
    <contour>
      <point x="1147" y="1177" type="curve" smooth="yes"/>
      <point x="979" y="1177"/>
      <point x="892" y="1074"/>
      <point x="892" y="876" type="curve" smooth="yes"/>
      <point x="892" y="785" type="line" smooth="yes"/>
      <point x="892" y="627"/>
      <point x="950" y="551"/>
      <point x="1038" y="526" type="curve"/>
      <point x="1038" y="518" type="line"/>
      <point x="1169" y="518" type="line"/>
      <point x="1169" y="525" type="line"/>
      <point x="1009" y="525"/>
      <point x="928" y="614"/>
      <point x="928" y="785" type="curve" smooth="yes"/>
      <point x="928" y="875" type="line" smooth="yes"/>
      <point x="928" y="1052"/>
      <point x="1001" y="1143"/>
      <point x="1148" y="1143" type="curve" smooth="yes"/>
      <point x="1314" y="1143"/>
      <point x="1386" y="1041"/>
      <point x="1386" y="789" type="curve" smooth="yes"/>
      <point x="1386" y="581" type="line" smooth="yes"/>
      <point x="1386" y="200"/>
      <point x="1178" y="10"/>
      <point x="781" y="10" type="curve" smooth="yes"/>
      <point x="378" y="10"/>
      <point x="174" y="204"/>
      <point x="174" y="586" type="curve" smooth="yes"/>
      <point x="174" y="684" type="line"/>
      <point x="138" y="684" type="line"/>
      <point x="138" y="585" type="line" smooth="yes"/>
      <point x="138" y="183"/>
      <point x="356" y="-24"/>
      <point x="781" y="-24" type="curve" smooth="yes"/>
      <point x="1200" y="-24"/>
      <point x="1422" y="180"/>
      <point x="1422" y="581" type="curve" smooth="yes"/>
      <point x="1422" y="789" type="line" smooth="yes"/>
      <point x="1422" y="1064"/>
      <point x="1337" y="1177"/>
    </contour>
    <contour>
      <point x="415" y="1177" type="curve" smooth="yes"/>
      <point x="224" y="1177"/>
      <point x="138" y="1061"/>
      <point x="138" y="789" type="curve" smooth="yes"/>
      <point x="138" y="672" type="line"/>
      <point x="174" y="672" type="line"/>
      <point x="174" y="789" type="line" smooth="yes"/>
      <point x="174" y="1041"/>
      <point x="247" y="1143"/>
      <point x="414" y="1143" type="curve" smooth="yes"/>
      <point x="563" y="1143"/>
      <point x="637" y="1052"/>
      <point x="637" y="875" type="curve" smooth="yes"/>
      <point x="637" y="815" type="line" smooth="yes"/>
      <point x="637" y="637"/>
      <point x="566" y="556"/>
      <point x="435" y="556" type="curve" smooth="yes"/>
      <point x="300" y="556"/>
      <point x="211" y="620"/>
      <point x="165" y="728" type="curve"/>
      <point x="163" y="658" type="line"/>
      <point x="175" y="658" type="line"/>
      <point x="218" y="579"/>
      <point x="307" y="522"/>
      <point x="435" y="522" type="curve" smooth="yes"/>
      <point x="592" y="522"/>
      <point x="673" y="620"/>
      <point x="673" y="815" type="curve" smooth="yes"/>
      <point x="673" y="876" type="line" smooth="yes"/>
      <point x="673" y="1074"/>
      <point x="585" y="1177"/>
    </contour>
  </outline>
</glyph>
<glyph name="vowelAa.kn" format="2">
  <advance width="1538"/>
  <unicode hex="0C86"/>
  <outline>
    <contour>
      <point x="1160" y="483" type="line" smooth="yes"/>
      <point x="1264" y="483"/>
      <point x="1327" y="430"/>
      <point x="1327" y="315" type="curve" smooth="yes"/>
      <point x="1327" y="306" type="line" smooth="yes"/>
      <point x="1327" y="110"/>
      <point x="1150" y="10"/>
      <point x="824" y="10" type="curve" smooth="yes"/>
      <point x="392" y="10"/>
      <point x="174" y="199"/>
      <point x="174" y="586" type="curve" smooth="yes"/>
      <point x="174" y="680" type="line"/>
      <point x="138" y="680" type="line"/>
      <point x="138" y="585" type="line" smooth="yes"/>
      <point x="138" y="178"/>
      <point x="370" y="-24"/>
      <point x="824" y="-24" type="curve" smooth="yes"/>
      <point x="1172" y="-24"/>
      <point x="1364" y="88"/>
      <point x="1364" y="306" type="curve" smooth="yes"/>
      <point x="1364" y="316" type="line" smooth="yes"/>
      <point x="1364" y="420"/>
      <point x="1317" y="483"/>
      <point x="1227" y="497" type="curve"/>
      <point x="1227" y="498" type="line"/>
      <point x="1343" y="519"/>
      <point x="1412" y="615"/>
      <point x="1412" y="766" type="curve" smooth="yes"/>
      <point x="1412" y="882" type="line" smooth="yes"/>
      <point x="1412" y="1076"/>
      <point x="1323" y="1176"/>
      <point x="1153" y="1176" type="curve" smooth="yes"/>
      <point x="984" y="1176"/>
      <point x="894" y="1074"/>
      <point x="894" y="882" type="curve" smooth="yes"/>
      <point x="894" y="766" type="line" smooth="yes"/>
      <point x="894" y="620"/>
      <point x="955" y="540"/>
      <point x="1036" y="516" type="curve"/>
      <point x="1036" y="515" type="line"/>
      <point x="631" y="515" type="line"/>
      <point x="631" y="483" type="line"/>
    </contour>
    <contour>
      <point x="1376" y="767" type="line" smooth="yes"/>
      <point x="1376" y="604"/>
      <point x="1302" y="515"/>
      <point x="1155" y="515" type="curve" smooth="yes"/>
      <point x="1008" y="515"/>
      <point x="930" y="604"/>
      <point x="930" y="767" type="curve" smooth="yes"/>
      <point x="930" y="883" type="line" smooth="yes"/>
      <point x="930" y="1053"/>
      <point x="1005" y="1142"/>
      <point x="1153" y="1142" type="curve" smooth="yes"/>
      <point x="1301" y="1142"/>
      <point x="1376" y="1053"/>
      <point x="1376" y="883" type="curve" smooth="yes"/>
    </contour>
    <contour>
      <point x="415" y="1177" type="curve" smooth="yes"/>
      <point x="224" y="1177"/>
      <point x="138" y="1061"/>
      <point x="138" y="789" type="curve" smooth="yes"/>
      <point x="138" y="672" type="line"/>
      <point x="174" y="672" type="line"/>
      <point x="174" y="789" type="line" smooth="yes"/>
      <point x="174" y="1041"/>
      <point x="247" y="1143"/>
      <point x="414" y="1143" type="curve" smooth="yes"/>
      <point x="563" y="1143"/>
      <point x="637" y="1052"/>
      <point x="637" y="875" type="curve" smooth="yes"/>
      <point x="637" y="815" type="line" smooth="yes"/>
      <point x="637" y="637"/>
      <point x="566" y="556"/>
      <point x="435" y="556" type="curve" smooth="yes"/>
      <point x="300" y="556"/>
      <point x="211" y="620"/>
      <point x="165" y="728" type="curve"/>
      <point x="163" y="658" type="line"/>
      <point x="175" y="658" type="line"/>
      <point x="218" y="579"/>
      <point x="307" y="522"/>
      <point x="435" y="522" type="curve" smooth="yes"/>
      <point x="592" y="522"/>
      <point x="673" y="620"/>
      <point x="673" y="815" type="curve" smooth="yes"/>
      <point x="673" y="876" type="line" smooth="yes"/>
      <point x="673" y="1074"/>
      <point x="585" y="1177"/>
    </contour>
  </outline>
</glyph>
<glyph name="vowelUu.kn" format="2">
  <advance width="2940"/>
  <unicode hex="0C8A"/>
  <outline>
    <contour>
      <point x="1947" y="530" type="line"/>
      <point x="1947" y="292" type="line" smooth="yes"/>
      <point x="1947" y="80"/>
      <point x="1863" y="-22"/>
      <point x="1696" y="-22" type="curve" smooth="yes"/>
      <point x="1530" y="-22"/>
      <point x="1446" y="80"/>
      <point x="1446" y="292" type="curve" smooth="yes"/>
      <point x="1446" y="642" type="line"/>
      <point x="1482" y="642" type="line"/>
      <point x="1482" y="293" type="line" smooth="yes"/>
      <point x="1482" y="103"/>
      <point x="1552" y="12"/>
      <point x="1696" y="12" type="curve" smooth="yes"/>
      <point x="1841" y="12"/>
      <point x="1911" y="103"/>
      <point x="1911" y="293" type="curve" smooth="yes"/>
      <point x="1911" y="530" type="line"/>
    </contour>
    <contour>
      <point x="436" y="1177" type="curve" smooth="yes"/>
      <point x="612" y="1177"/>
      <point x="704" y="1071"/>
      <point x="704" y="867" type="curve" smooth="yes"/>
      <point x="704" y="809" type="line" smooth="yes"/>
      <point x="704" y="608"/>
      <point x="619" y="507"/>
      <point x="456" y="507" type="curve" smooth="yes"/>
      <point x="323" y="507"/>
      <point x="230" y="567"/>
      <point x="186" y="651" type="curve"/>
      <point x="174" y="651" type="line"/>
      <point x="176" y="721" type="line"/>
      <point x="223" y="608"/>
      <point x="316" y="541"/>
      <point x="456" y="541" type="curve" smooth="yes"/>
      <point x="593" y="541"/>
      <point x="668" y="624"/>
      <point x="668" y="809" type="curve" smooth="yes"/>
      <point x="668" y="866" type="line" smooth="yes"/>
      <point x="668" y="1049"/>
      <point x="591" y="1143"/>
      <point x="435" y="1143" type="curve" smooth="yes"/>
      <point x="261" y="1143"/>
      <point x="185" y="1039"/>
      <point x="185" y="780" type="curve" smooth="yes"/>
      <point x="185" y="666" type="line"/>
      <point x="149" y="666" type="line"/>
      <point x="149" y="780" type="line" smooth="yes"/>
      <point x="149" y="1061"/>
      <point x="239" y="1177"/>
    </contour>
    <contour>
      <point x="185" y="463" type="line" smooth="yes"/>
      <point x="185" y="164"/>
      <point x="317" y="12"/>
      <point x="576" y="12" type="curve" smooth="yes"/>
      <point x="819" y="12"/>
      <point x="947" y="158"/>
      <point x="947" y="440" type="curve" smooth="yes"/>
      <point x="947" y="837" type="line" smooth="yes"/>
      <point x="947" y="1061"/>
      <point x="1036" y="1169"/>
      <point x="1214" y="1169" type="curve" smooth="yes"/>
      <point x="1392" y="1169"/>
      <point x="1482" y="1060"/>
      <point x="1482" y="837" type="curve" smooth="yes"/>
      <point x="1482" y="594" type="line"/>
      <point x="1446" y="594" type="line"/>
      <point x="1446" y="836" type="line" smooth="yes"/>
      <point x="1446" y="1038"/>
      <point x="1370" y="1135"/>
      <point x="1214" y="1135" type="curve" smooth="yes"/>
      <point x="1058" y="1135"/>
      <point x="983" y="1038"/>
      <point x="983" y="836" type="curve" smooth="yes"/>
      <point x="983" y="440" type="line" smooth="yes"/>
      <point x="983" y="135"/>
      <point x="842" y="-22"/>
      <point x="576" y="-22" type="curve" smooth="yes"/>
      <point x="293" y="-22"/>
      <point x="149" y="142"/>
      <point x="149" y="464" type="curve" smooth="yes"/>
      <point x="149" y="672" type="line"/>
      <point x="185" y="672" type="line"/>
    </contour>
    <contour>
      <point x="2351" y="1177" type="curve" smooth="yes"/>
      <point x="2640" y="1177"/>
      <point x="2791" y="1011"/>
      <point x="2791" y="678" type="curve" smooth="yes"/>
      <point x="2791" y="494" type="line"/>
      <point x="2755" y="495" type="line"/>
      <point x="2755" y="679" type="line" smooth="yes"/>
      <point x="2755" y="988"/>
      <point x="2617" y="1143"/>
      <point x="2351" y="1143" type="curve" smooth="yes"/>
      <point x="2085" y="1143"/>
      <point x="1947" y="988"/>
      <point x="1947" y="679" type="curve" smooth="yes"/>
      <point x="1947" y="517" type="line"/>
      <point x="1911" y="517" type="line"/>
      <point x="1911" y="678" type="line" smooth="yes"/>
      <point x="1911" y="1011"/>
      <point x="2062" y="1177"/>
    </contour>
    <contour>
      <point x="2791" y="359" type="line" smooth="yes"/>
      <point x="2791" y="89"/>
      <point x="2709" y="-22"/>
      <point x="2518" y="-22" type="curve" smooth="yes"/>
      <point x="2341" y="-22"/>
      <point x="2249" y="82"/>
      <point x="2249" y="280" type="curve" smooth="yes"/>
      <point x="2249" y="352" type="line" smooth="yes"/>
      <point x="2249" y="551"/>
      <point x="2337" y="650"/>
      <point x="2509" y="650" type="curve" smooth="yes"/>
      <point x="2629" y="650"/>
      <point x="2714" y="593"/>
      <point x="2754" y="514" type="curve"/>
      <point x="2766" y="514" type="line"/>
      <point x="2764" y="444" type="line"/>
      <point x="2721" y="552"/>
      <point x="2636" y="616"/>
      <point x="2509" y="616" type="curve" smooth="yes"/>
      <point x="2363" y="616"/>
      <point x="2284" y="534"/>
      <point x="2284" y="352" type="curve" smooth="yes"/>
      <point x="2284" y="281" type="line" smooth="yes"/>
      <point x="2284" y="104"/>
      <point x="2361" y="12"/>
      <point x="2518" y="12" type="curve" smooth="yes"/>
      <point x="2685" y="12"/>
      <point x="2755" y="112"/>
      <point x="2755" y="359" type="curve" smooth="yes"/>
      <point x="2755" y="499" type="line"/>
      <point x="2791" y="499" type="line"/>
    </contour>
  </outline>
</glyph>
<glyph name="vowelLru.kn" format="2">
  <advance width="1406"/>
  <unicode hex="0C8C"/>
  <outline>
    <contour>
      <point x="312" y="-1" type="line"/>
      <point x="230" y="84"/>
      <point x="171" y="201"/>
      <point x="171" y="373" type="curve" smooth="yes"/>
      <point x="171" y="462" type="line" smooth="yes"/>
      <point x="171" y="659"/>
      <point x="257" y="758"/>
      <point x="430" y="758" type="curve" smooth="yes"/>
      <point x="592" y="758"/>
      <point x="685" y="654"/>
      <point x="685" y="476" type="curve" smooth="yes"/>
      <point x="686" y="1" type="line"/>
      <point x="720" y="1" type="line"/>
      <point x="721" y="476" type="line" smooth="yes"/>
      <point x="721" y="654"/>
      <point x="814" y="758"/>
      <point x="976" y="758" type="curve" smooth="yes"/>
      <point x="1149" y="758"/>
      <point x="1235" y="659"/>
      <point x="1235" y="462" type="curve" smooth="yes"/>
      <point x="1235" y="373" type="line" smooth="yes"/>
      <point x="1235" y="201"/>
      <point x="1176" y="84"/>
      <point x="1094" y="-1" type="curve"/>
      <point x="1139" y="-1" type="line"/>
      <point x="1215" y="84"/>
      <point x="1271" y="202"/>
      <point x="1271" y="373" type="curve" smooth="yes"/>
      <point x="1271" y="462" type="line" smooth="yes"/>
      <point x="1271" y="682"/>
      <point x="1171" y="792"/>
      <point x="978" y="792" type="curve" smooth="yes"/>
      <point x="844" y="792"/>
      <point x="750" y="729"/>
      <point x="719" y="618" type="curve"/>
      <point x="718" y="618" type="line"/>
      <point x="720" y="674"/>
      <point x="721" y="726"/>
      <point x="721" y="795" type="curve" smooth="yes"/>
      <point x="721" y="1150" type="line"/>
      <point x="685" y="1150" type="line"/>
      <point x="685" y="795" type="line" smooth="yes"/>
      <point x="685" y="726"/>
      <point x="686" y="673"/>
      <point x="688" y="618" type="curve"/>
      <point x="687" y="618" type="line"/>
      <point x="656" y="729"/>
      <point x="562" y="792"/>
      <point x="428" y="792" type="curve" smooth="yes"/>
      <point x="236" y="792"/>
      <point x="135" y="682"/>
      <point x="135" y="462" type="curve" smooth="yes"/>
      <point x="135" y="373" type="line" smooth="yes"/>
      <point x="135" y="202"/>
      <point x="191" y="84"/>
      <point x="267" y="-1" type="curve"/>
    </contour>
  </outline>
</glyph>
<glyph name="vowelE.kn" format="2">
  <advance width="1448"/>
  <unicode hex="0C8E"/>
  <outline>
    <contour>
      <point x="1012" y="-22" type="curve" smooth="yes"/>
      <point x="1207" y="-22"/>
      <point x="1304" y="93"/>
      <point x="1304" y="329" type="curve" smooth="yes"/>
      <point x="1304" y="460" type="line" smooth="yes"/>
      <point x="1304" y="964"/>
      <point x="1046" y="1180"/>
      <point x="517" y="1180" type="curve" smooth="yes"/>
      <point x="499" y="1180"/>
      <point x="469" y="1180"/>
      <point x="401" y="1180" type="curve"/>
      <point x="386" y="1147" type="line"/>
      <point x="456" y="1147"/>
      <point x="493" y="1147"/>
      <point x="512" y="1147" type="curve" smooth="yes"/>
      <point x="1021" y="1147"/>
      <point x="1268" y="945"/>
      <point x="1268" y="461" type="curve" smooth="yes"/>
      <point x="1268" y="329" type="line" smooth="yes"/>
      <point x="1268" y="113"/>
      <point x="1182" y="12"/>
      <point x="1011" y="12" type="curve" smooth="yes"/>
      <point x="836" y="12"/>
      <point x="752" y="111"/>
      <point x="748" y="320" type="curve" smooth="yes"/>
      <point x="746" y="438" type="line"/>
      <point x="712" y="438" type="line"/>
      <point x="710" y="320" type="line" smooth="yes"/>
      <point x="706" y="111"/>
      <point x="619" y="12"/>
      <point x="434" y="12" type="curve" smooth="yes"/>
      <point x="259" y="12"/>
      <point x="167" y="109"/>
      <point x="167" y="305" type="curve" smooth="yes"/>
      <point x="167" y="376" type="line" smooth="yes"/>
      <point x="167" y="550"/>
      <point x="233" y="638"/>
      <point x="369" y="638" type="curve" smooth="yes"/>
      <point x="436" y="638"/>
      <point x="489" y="616"/>
      <point x="530" y="582" type="curve"/>
      <point x="527" y="622" type="line"/>
      <point x="487" y="653"/>
      <point x="434" y="672"/>
      <point x="368" y="672" type="curve" smooth="yes"/>
      <point x="211" y="672"/>
      <point x="131" y="571"/>
      <point x="131" y="379" type="curve" smooth="yes"/>
      <point x="131" y="305" type="line" smooth="yes"/>
      <point x="131" y="88"/>
      <point x="235" y="-22"/>
      <point x="433" y="-22" type="curve" smooth="yes"/>
      <point x="620" y="-22"/>
      <point x="715" y="74"/>
      <point x="728" y="234" type="curve"/>
      <point x="730" y="234" type="line"/>
      <point x="743" y="74"/>
      <point x="833" y="-22"/>
    </contour>
  </outline>
  <guideline angle="0" x="0" y="304"/>
  <guideline angle="90" x="410" y="0"/>
</glyph>
<glyph name="vowelEe.kn" format="2">
  <advance width="1448"/>
  <unicode hex="0C8F"/>
  <outline>
    <contour>
      <point x="1268" y="461" type="curve" smooth="yes"/>
      <point x="1268" y="329" type="line" smooth="yes"/>
      <point x="1268" y="113"/>
      <point x="1182" y="12"/>
      <point x="1011" y="12" type="curve" smooth="yes"/>
      <point x="836" y="12"/>
      <point x="752" y="111"/>
      <point x="748" y="320" type="curve" smooth="yes"/>
      <point x="746" y="438" type="line"/>
      <point x="712" y="438" type="line"/>
      <point x="710" y="320" type="line" smooth="yes"/>
      <point x="706" y="111"/>
      <point x="619" y="12"/>
      <point x="434" y="12" type="curve" smooth="yes"/>
      <point x="259" y="12"/>
      <point x="167" y="109"/>
      <point x="167" y="305" type="curve" smooth="yes"/>
      <point x="167" y="376" type="line" smooth="yes"/>
      <point x="167" y="550"/>
      <point x="233" y="638"/>
      <point x="369" y="638" type="curve" smooth="yes"/>
      <point x="436" y="638"/>
      <point x="489" y="616"/>
      <point x="530" y="582" type="curve"/>
      <point x="527" y="622" type="line"/>
      <point x="487" y="653"/>
      <point x="434" y="672"/>
      <point x="368" y="672" type="curve" smooth="yes"/>
      <point x="211" y="672"/>
      <point x="131" y="571"/>
      <point x="131" y="379" type="curve" smooth="yes"/>
      <point x="131" y="305" type="line" smooth="yes"/>
      <point x="131" y="88"/>
      <point x="235" y="-22"/>
      <point x="433" y="-22" type="curve" smooth="yes"/>
      <point x="620" y="-22"/>
      <point x="715" y="74"/>
      <point x="728" y="234" type="curve"/>
      <point x="730" y="234" type="line"/>
      <point x="743" y="74"/>
      <point x="833" y="-22"/>
      <point x="1012" y="-22" type="curve" smooth="yes"/>
      <point x="1207" y="-22"/>
      <point x="1304" y="93"/>
      <point x="1304" y="329" type="curve" smooth="yes"/>
      <point x="1304" y="460" type="line" smooth="yes"/>
      <point x="1304" y="937"/>
      <point x="1118" y="1149"/>
      <point x="759" y="1181" type="curve"/>
      <point x="767" y="1147" type="line"/>
      <point x="1097" y="1113"/>
      <point x="1268" y="913"/>
    </contour>
    <contour>
      <point x="521" y="873" type="curve" smooth="yes"/>
      <point x="698" y="873"/>
      <point x="793" y="973"/>
      <point x="793" y="1153" type="curve"/>
      <point x="759" y="1181" type="line"/>
      <point x="759" y="1165" type="line" smooth="yes"/>
      <point x="759" y="996"/>
      <point x="676" y="907"/>
      <point x="521" y="907" type="curve" smooth="yes"/>
      <point x="360" y="907"/>
      <point x="275" y="995"/>
      <point x="275" y="1165" type="curve" smooth="yes"/>
      <point x="275" y="1185" type="line"/>
      <point x="239" y="1178" type="line"/>
      <point x="239" y="1162" type="line" smooth="yes"/>
      <point x="239" y="975"/>
      <point x="337" y="873"/>
    </contour>
  </outline>
</glyph>
<glyph name="vowelAi.kn" format="2">
  <advance width="1467"/>
  <unicode hex="0C90"/>
  <outline>
    <contour>
      <point x="1014" y="1176" type="curve" smooth="yes"/>
      <point x="842" y="1176"/>
      <point x="753" y="1083"/>
      <point x="738" y="933" type="curve"/>
      <point x="736" y="933" type="line"/>
      <point x="722" y="1083"/>
      <point x="636" y="1176"/>
      <point x="459" y="1176" type="curve" smooth="yes"/>
      <point x="261" y="1176"/>
      <point x="162" y="1064"/>
      <point x="162" y="844" type="curve" smooth="yes"/>
      <point x="162" y="758" type="line"/>
      <point x="198" y="758" type="line"/>
      <point x="198" y="843" type="line" smooth="yes"/>
      <point x="198" y="1041"/>
      <point x="284" y="1142"/>
      <point x="459" y="1142" type="curve" smooth="yes"/>
      <point x="633" y="1142"/>
      <point x="715" y="1045"/>
      <point x="718" y="843" type="curve" smooth="yes"/>
      <point x="720" y="720" type="line"/>
      <point x="755" y="720" type="line"/>
      <point x="756" y="843" type="line" smooth="yes"/>
      <point x="758" y="1045"/>
      <point x="845" y="1142"/>
      <point x="1013" y="1142" type="curve" smooth="yes"/>
      <point x="1197" y="1142"/>
      <point x="1280" y="1023"/>
      <point x="1280" y="775" type="curve" smooth="yes"/>
      <point x="1280" y="376" type="line" smooth="yes"/>
      <point x="1280" y="129"/>
      <point x="1192" y="12"/>
      <point x="1017" y="12" type="curve" smooth="yes"/>
      <point x="844" y="12"/>
      <point x="761" y="111"/>
      <point x="757" y="320" type="curve" smooth="yes"/>
      <point x="755" y="438" type="line"/>
      <point x="721" y="438" type="line"/>
      <point x="719" y="320" type="line" smooth="yes"/>
      <point x="715" y="111"/>
      <point x="628" y="12"/>
      <point x="443" y="12" type="curve" smooth="yes"/>
      <point x="268" y="12"/>
      <point x="176" y="109"/>
      <point x="176" y="305" type="curve" smooth="yes"/>
      <point x="176" y="361" type="line" smooth="yes"/>
      <point x="176" y="535"/>
      <point x="242" y="623"/>
      <point x="378" y="623" type="curve" smooth="yes"/>
      <point x="445" y="623"/>
      <point x="498" y="601"/>
      <point x="539" y="567" type="curve"/>
      <point x="536" y="607" type="line"/>
      <point x="496" y="638"/>
      <point x="443" y="657"/>
      <point x="377" y="657" type="curve" smooth="yes"/>
      <point x="220" y="657"/>
      <point x="140" y="556"/>
      <point x="140" y="364" type="curve" smooth="yes"/>
      <point x="140" y="305" type="line" smooth="yes"/>
      <point x="140" y="88"/>
      <point x="244" y="-22"/>
      <point x="442" y="-22" type="curve" smooth="yes"/>
      <point x="629" y="-22"/>
      <point x="724" y="74"/>
      <point x="737" y="234" type="curve"/>
      <point x="739" y="234" type="line"/>
      <point x="752" y="74"/>
      <point x="841" y="-22"/>
      <point x="1018" y="-22" type="curve" smooth="yes"/>
      <point x="1217" y="-22"/>
      <point x="1316" y="108"/>
      <point x="1316" y="376" type="curve" smooth="yes"/>
      <point x="1316" y="775" type="line" smooth="yes"/>
      <point x="1316" y="1043"/>
      <point x="1223" y="1176"/>
    </contour>
  </outline>
  <guideline angle="90" x="1001" y="0"/>
  <guideline angle="90" x="1039" y="0"/>
</glyph>
<glyph name="vowelOo.kn" format="2">
  <advance width="1458"/>
  <unicode hex="0C93"/>
  <outline>
    <component base="vowelO.kn"/>
    <contour>
      <point x="573" y="1612" type="curve" smooth="yes"/>
      <point x="390" y="1612"/>
      <point x="292" y="1529"/>
      <point x="292" y="1374" type="curve" smooth="yes"/>
      <point x="292" y="1365" type="line" smooth="yes"/>
      <point x="292" y="1268"/>
      <point x="331" y="1186"/>
      <point x="446" y="1158" type="curve"/>
      <point x="479" y="1173" type="line"/>
      <point x="370" y="1199"/>
      <point x="328" y="1269"/>
      <point x="328" y="1365" type="curve" smooth="yes"/>
      <point x="328" y="1374" type="line" smooth="yes"/>
      <point x="328" y="1506"/>
      <point x="414" y="1578"/>
      <point x="573" y="1578" type="curve" smooth="yes"/>
      <point x="732" y="1578"/>
      <point x="817" y="1506"/>
      <point x="817" y="1373" type="curve" smooth="yes"/>
      <point x="817" y="1367" type="line" smooth="yes"/>
      <point x="817" y="1331"/>
      <point x="813" y="1298"/>
      <point x="805" y="1272" type="curve"/>
      <point x="842" y="1272" type="line"/>
      <point x="850" y="1297"/>
      <point x="853" y="1332"/>
      <point x="853" y="1367" type="curve" smooth="yes"/>
      <point x="853" y="1373" type="line" smooth="yes"/>
      <point x="853" y="1529"/>
      <point x="757" y="1612"/>
    </contour>
  </outline>
  <guideline angle="90" x="879" y="0"/>
</glyph>
<glyph name="vowelAu.kn" format="2">
  <advance width="1532"/>
  <unicode hex="0C94"/>
  <outline>
    <contour>
      <point x="1294" y="300" type="curve" smooth="yes"/>
      <point x="1294" y="283" type="line" smooth="yes"/>
      <point x="1294" y="106"/>
      <point x="1208" y="12"/>
      <point x="1036" y="12" type="curve" smooth="yes"/>
      <point x="854" y="12"/>
      <point x="759" y="110"/>
      <point x="759" y="318" type="curve" smooth="yes"/>
      <point x="759" y="431" type="line"/>
      <point x="739" y="431" type="line"/>
      <point x="739" y="240" type="line"/>
      <point x="752" y="77"/>
      <point x="849" y="-22"/>
      <point x="1037" y="-22" type="curve" smooth="yes"/>
      <point x="1232" y="-22"/>
      <point x="1330" y="82"/>
      <point x="1330" y="282" type="curve" smooth="yes"/>
      <point x="1330" y="301" type="line" smooth="yes"/>
      <point x="1330" y="357"/>
      <point x="1324" y="411"/>
      <point x="1309" y="459" type="curve"/>
      <point x="1274" y="459" type="line"/>
      <point x="1288" y="411"/>
      <point x="1294" y="356"/>
    </contour>
    <contour>
      <point x="449" y="1177" type="curve" smooth="yes"/>
      <point x="255" y="1177"/>
      <point x="154" y="1079"/>
      <point x="154" y="891" type="curve" smooth="yes"/>
      <point x="154" y="885" type="line" smooth="yes"/>
      <point x="154" y="804"/>
      <point x="172" y="726"/>
      <point x="197" y="670" type="curve"/>
      <point x="234" y="670" type="line"/>
      <point x="209" y="727"/>
      <point x="190" y="801"/>
      <point x="190" y="885" type="curve" smooth="yes"/>
      <point x="190" y="891" type="line" smooth="yes"/>
      <point x="190" y="1057"/>
      <point x="278" y="1143"/>
      <point x="449" y="1143" type="curve" smooth="yes"/>
      <point x="613" y="1143"/>
      <point x="698" y="1065"/>
      <point x="698" y="908" type="curve" smooth="yes"/>
      <point x="698" y="902" type="line" smooth="yes"/>
      <point x="698" y="771"/>
      <point x="637" y="703"/>
      <point x="486" y="626" type="curve" smooth="yes"/>
      <point x="384" y="574" type="line" smooth="yes"/>
      <point x="203" y="482"/>
      <point x="128" y="410"/>
      <point x="128" y="256" type="curve" smooth="yes"/>
      <point x="128" y="248" type="line" smooth="yes"/>
      <point x="128" y="71"/>
      <point x="232" y="-22"/>
      <point x="433" y="-22" type="curve" smooth="yes"/>
      <point x="628" y="-22"/>
      <point x="727" y="74"/>
      <point x="740" y="233" type="curve"/>
      <point x="748" y="233" type="line"/>
      <point x="748" y="431" type="line"/>
      <point x="723" y="431" type="line"/>
      <point x="723" y="318" type="line" smooth="yes"/>
      <point x="723" y="110"/>
      <point x="626" y="12"/>
      <point x="434" y="12" type="curve" smooth="yes"/>
      <point x="258" y="12"/>
      <point x="164" y="93"/>
      <point x="164" y="249" type="curve" smooth="yes"/>
      <point x="164" y="256" type="line" smooth="yes"/>
      <point x="164" y="393"/>
      <point x="235" y="460"/>
      <point x="402" y="546" type="curve" smooth="yes"/>
      <point x="505" y="599" type="line" smooth="yes"/>
      <point x="666" y="682"/>
      <point x="734" y="757"/>
      <point x="734" y="902" type="curve" smooth="yes"/>
      <point x="734" y="908" type="line" smooth="yes"/>
      <point x="734" y="1087"/>
      <point x="638" y="1177"/>
    </contour>
    <contour>
      <point x="534" y="1149" type="line" smooth="yes"/>
      <point x="672" y="1149"/>
      <point x="741" y="1213"/>
      <point x="741" y="1336" type="curve" smooth="yes"/>
      <point x="741" y="1341" type="line" smooth="yes"/>
      <point x="741" y="1430"/>
      <point x="706" y="1487"/>
      <point x="647" y="1503" type="curve"/>
      <point x="647" y="1518" type="line"/>
      <point x="536" y="1518" type="line"/>
      <point x="536" y="1504" type="line"/>
      <point x="649" y="1504"/>
      <point x="705" y="1451"/>
      <point x="705" y="1341" type="curve" smooth="yes"/>
      <point x="705" y="1337" type="line" smooth="yes"/>
      <point x="705" y="1230"/>
      <point x="645" y="1176"/>
      <point x="529" y="1176" type="curve" smooth="yes"/>
      <point x="449" y="1176" type="line"/>
      <point x="454" y="1149" type="line"/>
    </contour>
    <contour>
      <point x="1442" y="1048" type="line"/>
      <point x="1442" y="1076" type="line" smooth="yes"/>
      <point x="1442" y="1394"/>
      <point x="1290" y="1536"/>
      <point x="975" y="1536" type="curve" smooth="yes"/>
      <point x="262" y="1536" type="line"/>
      <point x="262" y="1504" type="line"/>
      <point x="976" y="1504" type="line" smooth="yes"/>
      <point x="1266" y="1504"/>
      <point x="1406" y="1376"/>
      <point x="1406" y="1076" type="curve" smooth="yes"/>
      <point x="1406" y="1048" type="line"/>
    </contour>
    <contour>
      <point x="1406" y="1050" type="line"/>
      <point x="1406" y="926" type="line" smooth="yes"/>
      <point x="1406" y="711"/>
      <point x="1340" y="625"/>
      <point x="1192" y="625" type="curve" smooth="yes"/>
      <point x="1048" y="625"/>
      <point x="977" y="709"/>
      <point x="977" y="871" type="curve" smooth="yes"/>
      <point x="977" y="903" type="line" smooth="yes"/>
      <point x="977" y="1069"/>
      <point x="1048" y="1144"/>
      <point x="1182" y="1144" type="curve" smooth="yes"/>
      <point x="1299" y="1144"/>
      <point x="1376" y="1088"/>
      <point x="1416" y="995" type="curve"/>
      <point x="1416" y="1065" type="line"/>
      <point x="1405" y="1065" type="line"/>
      <point x="1368" y="1130"/>
      <point x="1292" y="1178"/>
      <point x="1182" y="1178" type="curve" smooth="yes"/>
      <point x="1022" y="1178"/>
      <point x="942" y="1086"/>
      <point x="942" y="903" type="curve" smooth="yes"/>
      <point x="942" y="870" type="line" smooth="yes"/>
      <point x="942" y="687"/>
      <point x="1028" y="591"/>
      <point x="1193" y="591" type="curve" smooth="yes"/>
      <point x="1364" y="591"/>
      <point x="1442" y="689"/>
      <point x="1442" y="926" type="curve" smooth="yes"/>
      <point x="1442" y="1050" type="line"/>
    </contour>
  </outline>
</glyph>
<glyph name="Ga.kn" format="2">
  <advance width="1215"/>
  <unicode hex="0C97"/>
  <outline>
    <contour>
      <point x="438" y="1138" type="line"/>
      <point x="438" y="1117" type="line"/>
      <point x="279" y="1075"/>
      <point x="178" y="948"/>
      <point x="178" y="667" type="curve" smooth="yes"/>
      <point x="178" y="0" type="line"/>
      <point x="215" y="0" type="line"/>
      <point x="215" y="667" type="line" smooth="yes"/>
      <point x="215" y="982"/>
      <point x="348" y="1118"/>
      <point x="607" y="1118" type="curve" smooth="yes"/>
      <point x="866" y="1118"/>
      <point x="999" y="982"/>
      <point x="999" y="667" type="curve" smooth="yes"/>
      <point x="999" y="0" type="line"/>
      <point x="1036" y="0" type="line"/>
      <point x="1036" y="667" type="line" smooth="yes"/>
      <point x="1036" y="947"/>
      <point x="934" y="1075"/>
      <point x="776" y="1117" type="curve"/>
      <point x="776" y="1138" type="line"/>
    </contour>
    <contour>
      <point x="163" y="1150" type="line"/>
      <point x="163" y="1118" type="line"/>
      <point x="813" y="1118" type="line"/>
      <point x="813" y="1150" type="line"/>
    </contour>
    <contour>
      <point x="947" y="1540" type="line"/>
      <point x="993" y="1469"/>
      <point x="1019" y="1388"/>
      <point x="1019" y="1309" type="curve" smooth="yes"/>
      <point x="1019" y="1198"/>
      <point x="969" y="1150"/>
      <point x="859" y="1150" type="curve" smooth="yes"/>
      <point x="756" y="1150" type="line"/>
      <point x="756" y="1118" type="line"/>
      <point x="862" y="1118" type="line" smooth="yes"/>
      <point x="992" y="1118"/>
      <point x="1054" y="1178"/>
      <point x="1054" y="1309" type="curve" smooth="yes"/>
      <point x="1054" y="1390"/>
      <point x="1028" y="1472"/>
      <point x="984" y="1540" type="curve"/>
    </contour>
  </outline>
</glyph>
<glyph name="Gha.kn" format="2">
  <advance width="1479"/>
  <unicode hex="0C98"/>
  <outline>
    <contour>
      <point x="750" y="320" type="curve" smooth="yes"/>
      <point x="748" y="438" type="line"/>
      <point x="714" y="438" type="line"/>
      <point x="712" y="320" type="line" smooth="yes"/>
      <point x="708" y="111"/>
      <point x="621" y="12"/>
      <point x="436" y="12" type="curve" smooth="yes"/>
      <point x="261" y="12"/>
      <point x="169" y="109"/>
      <point x="169" y="305" type="curve" smooth="yes"/>
      <point x="169" y="376" type="line" smooth="yes"/>
      <point x="169" y="551"/>
      <point x="235" y="639"/>
      <point x="371" y="639" type="curve" smooth="yes"/>
      <point x="438" y="639"/>
      <point x="491" y="617"/>
      <point x="532" y="583" type="curve"/>
      <point x="529" y="622" type="line"/>
      <point x="489" y="653"/>
      <point x="436" y="672"/>
      <point x="370" y="672" type="curve" smooth="yes"/>
      <point x="213" y="672"/>
      <point x="133" y="571"/>
      <point x="133" y="379" type="curve" smooth="yes"/>
      <point x="133" y="305" type="line" smooth="yes"/>
      <point x="133" y="88"/>
      <point x="237" y="-22"/>
      <point x="435" y="-22" type="curve" smooth="yes"/>
      <point x="622" y="-22"/>
      <point x="717" y="74"/>
      <point x="730" y="234" type="curve"/>
      <point x="732" y="234" type="line"/>
      <point x="745" y="74"/>
      <point x="841" y="-22"/>
      <point x="1029" y="-22" type="curve" smooth="yes"/>
      <point x="1224" y="-22"/>
      <point x="1322" y="85"/>
      <point x="1322" y="301" type="curve" smooth="yes"/>
      <point x="1322" y="322" type="line" smooth="yes"/>
      <point x="1322" y="501"/>
      <point x="1261" y="596"/>
      <point x="1136" y="620" type="curve"/>
      <point x="1136" y="635" type="line"/>
      <point x="956" y="636" type="line"/>
      <point x="956" y="616" type="line"/>
      <point x="1009" y="615" type="line" smooth="yes"/>
      <point x="1200" y="611"/>
      <point x="1286" y="528"/>
      <point x="1286" y="322" type="curve" smooth="yes"/>
      <point x="1286" y="301" type="line" smooth="yes"/>
      <point x="1286" y="106"/>
      <point x="1199" y="12"/>
      <point x="1028" y="12" type="curve" smooth="yes"/>
      <point x="843" y="12"/>
      <point x="754" y="111"/>
    </contour>
    <contour>
      <point x="735" y="677" type="curve" smooth="yes"/>
      <point x="755" y="677"/>
      <point x="759" y="702"/>
      <point x="759" y="791" type="curve" smooth="yes"/>
      <point x="759" y="873" type="line" smooth="yes"/>
      <point x="759" y="963"/>
      <point x="755" y="987"/>
      <point x="735" y="987" type="curve" smooth="yes"/>
      <point x="715" y="987"/>
      <point x="712" y="963"/>
      <point x="712" y="873" type="curve" smooth="yes"/>
      <point x="712" y="791" type="line" smooth="yes"/>
      <point x="712" y="702"/>
      <point x="715" y="677"/>
    </contour>
    <contour>
      <point x="1169" y="621" type="line" smooth="yes"/>
      <point x="1311" y="621"/>
      <point x="1379" y="682"/>
      <point x="1379" y="814" type="curve" smooth="yes"/>
      <point x="1379" y="891"/>
      <point x="1358" y="966"/>
      <point x="1321" y="1030" type="curve"/>
      <point x="1283" y="1030" type="line"/>
      <point x="1322" y="964"/>
      <point x="1343" y="889"/>
      <point x="1343" y="814" type="curve" smooth="yes"/>
      <point x="1343" y="697"/>
      <point x="1284" y="650"/>
      <point x="1160" y="649" type="curve" smooth="yes"/>
      <point x="956" y="648" type="line"/>
      <point x="956" y="621" type="line"/>
    </contour>
    <contour>
      <point x="1070" y="1118" type="line"/>
      <point x="1070" y="1150" type="line"/>
      <point x="167" y="1150" type="line"/>
      <point x="167" y="1118" type="line"/>
    </contour>
    <contour>
      <point x="730" y="-366" type="curve" smooth="yes"/>
      <point x="748" y="-366"/>
      <point x="755" y="-353"/>
      <point x="755" y="-325" type="curve" smooth="yes"/>
      <point x="755" y="-257" type="line" smooth="yes"/>
      <point x="755" y="-109"/>
      <point x="749" y="-10"/>
      <point x="730" y="73" type="curve"/>
      <point x="711" y="-10"/>
      <point x="705" y="-109"/>
      <point x="705" y="-257" type="curve" smooth="yes"/>
      <point x="705" y="-325" type="line" smooth="yes"/>
      <point x="705" y="-353"/>
      <point x="712" y="-366"/>
    </contour>
    <contour>
      <point x="1208" y="1540" type="line"/>
      <point x="1254" y="1469"/>
      <point x="1280" y="1388"/>
      <point x="1280" y="1309" type="curve" smooth="yes"/>
      <point x="1280" y="1198"/>
      <point x="1230" y="1150"/>
      <point x="1120" y="1150" type="curve" smooth="yes"/>
      <point x="1017" y="1150" type="line"/>
      <point x="1017" y="1118" type="line"/>
      <point x="1123" y="1118" type="line" smooth="yes"/>
      <point x="1253" y="1118"/>
      <point x="1315" y="1178"/>
      <point x="1315" y="1309" type="curve" smooth="yes"/>
      <point x="1315" y="1390"/>
      <point x="1289" y="1472"/>
      <point x="1245" y="1540" type="curve"/>
    </contour>
  </outline>
  <guideline angle="90" x="778" y="0"/>
  <guideline angle="90" x="852" y="0"/>
  <guideline angle="90" x="1393" y="0"/>
  <guideline angle="90" x="114" y="0"/>
</glyph>
<glyph name="Ja.kn" format="2">
  <advance width="1464"/>
  <unicode hex="0C9C"/>
  <anchor x="736" y="0" name="nukta"/>
  <outline>
    <contour>
      <point x="1174" y="1150" type="line"/>
      <point x="1227" y="1084"/>
      <point x="1252" y="998"/>
      <point x="1252" y="906" type="curve" smooth="yes"/>
      <point x="1252" y="891" type="line" smooth="yes"/>
      <point x="1252" y="735"/>
      <point x="1169" y="651"/>
      <point x="1005" y="651" type="curve" smooth="yes"/>
      <point x="838" y="651"/>
      <point x="746" y="741"/>
      <point x="733" y="894" type="curve"/>
      <point x="732" y="915" type="line"/>
      <point x="707" y="888" type="line"/>
      <point x="707" y="883" type="line"/>
      <point x="722" y="716"/>
      <point x="820" y="617"/>
      <point x="1007" y="617" type="curve" smooth="yes"/>
      <point x="1192" y="617"/>
      <point x="1288" y="712"/>
      <point x="1288" y="890" type="curve" smooth="yes"/>
      <point x="1288" y="905" type="line" smooth="yes"/>
      <point x="1288" y="1000"/>
      <point x="1264" y="1083"/>
      <point x="1214" y="1150" type="curve"/>
    </contour>
    <contour>
      <point x="1294" y="300" type="curve" smooth="yes"/>
      <point x="1294" y="283" type="line" smooth="yes"/>
      <point x="1294" y="106"/>
      <point x="1208" y="12"/>
      <point x="1036" y="12" type="curve" smooth="yes"/>
      <point x="854" y="12"/>
      <point x="759" y="110"/>
      <point x="759" y="318" type="curve" smooth="yes"/>
      <point x="759" y="431" type="line"/>
      <point x="739" y="431" type="line"/>
      <point x="739" y="240" type="line"/>
      <point x="752" y="77"/>
      <point x="849" y="-22"/>
      <point x="1037" y="-22" type="curve" smooth="yes"/>
      <point x="1232" y="-22"/>
      <point x="1330" y="82"/>
      <point x="1330" y="282" type="curve" smooth="yes"/>
      <point x="1330" y="301" type="line" smooth="yes"/>
      <point x="1330" y="357"/>
      <point x="1324" y="411"/>
      <point x="1309" y="459" type="curve"/>
      <point x="1274" y="459" type="line"/>
      <point x="1288" y="411"/>
      <point x="1294" y="356"/>
    </contour>
    <contour>
      <point x="449" y="1177" type="curve" smooth="yes"/>
      <point x="255" y="1177"/>
      <point x="154" y="1079"/>
      <point x="154" y="891" type="curve" smooth="yes"/>
      <point x="154" y="885" type="line" smooth="yes"/>
      <point x="154" y="804"/>
      <point x="172" y="726"/>
      <point x="197" y="670" type="curve"/>
      <point x="234" y="670" type="line"/>
      <point x="209" y="727"/>
      <point x="190" y="801"/>
      <point x="190" y="885" type="curve" smooth="yes"/>
      <point x="190" y="891" type="line" smooth="yes"/>
      <point x="190" y="1057"/>
      <point x="278" y="1143"/>
      <point x="449" y="1143" type="curve" smooth="yes"/>
      <point x="613" y="1143"/>
      <point x="698" y="1065"/>
      <point x="698" y="908" type="curve" smooth="yes"/>
      <point x="698" y="902" type="line" smooth="yes"/>
      <point x="698" y="771"/>
      <point x="637" y="703"/>
      <point x="486" y="626" type="curve" smooth="yes"/>
      <point x="384" y="574" type="line" smooth="yes"/>
      <point x="203" y="482"/>
      <point x="128" y="410"/>
      <point x="128" y="256" type="curve" smooth="yes"/>
      <point x="128" y="248" type="line" smooth="yes"/>
      <point x="128" y="71"/>
      <point x="232" y="-22"/>
      <point x="433" y="-22" type="curve" smooth="yes"/>
      <point x="628" y="-22"/>
      <point x="727" y="74"/>
      <point x="740" y="233" type="curve"/>
      <point x="748" y="233" type="line"/>
      <point x="748" y="431" type="line"/>
      <point x="723" y="431" type="line"/>
      <point x="723" y="318" type="line" smooth="yes"/>
      <point x="723" y="110"/>
      <point x="626" y="12"/>
      <point x="434" y="12" type="curve" smooth="yes"/>
      <point x="258" y="12"/>
      <point x="164" y="93"/>
      <point x="164" y="249" type="curve" smooth="yes"/>
      <point x="164" y="256" type="line" smooth="yes"/>
      <point x="164" y="393"/>
      <point x="235" y="460"/>
      <point x="402" y="546" type="curve" smooth="yes"/>
      <point x="505" y="599" type="line" smooth="yes"/>
      <point x="666" y="682"/>
      <point x="734" y="757"/>
      <point x="734" y="902" type="curve" smooth="yes"/>
      <point x="734" y="908" type="line" smooth="yes"/>
      <point x="734" y="1087"/>
      <point x="638" y="1177"/>
    </contour>
  </outline>
</glyph>
<glyph name="Jha.kn" format="2">
  <advance width="2474"/>
  <unicode hex="0C9D"/>
  <outline>
    <component base="matraU.kn" xOffset="1228"/>
    <component base="matraU.kn" xOffset="1857"/>
    <component base="Ra.kn"/>
    <contour>
      <point x="1040" y="336" type="line"/>
      <point x="1064" y="338" type="line"/>
      <point x="1064" y="451" type="line"/>
      <point x="1040" y="451" type="line"/>
    </contour>
    <contour>
      <point x="1671" y="-366" type="curve" smooth="yes"/>
      <point x="1689" y="-366"/>
      <point x="1696" y="-353"/>
      <point x="1696" y="-325" type="curve" smooth="yes"/>
      <point x="1696" y="-257" type="line" smooth="yes"/>
      <point x="1696" y="-109"/>
      <point x="1690" y="-10"/>
      <point x="1671" y="73" type="curve"/>
      <point x="1652" y="-10"/>
      <point x="1646" y="-109"/>
      <point x="1646" y="-257" type="curve" smooth="yes"/>
      <point x="1646" y="-325" type="line" smooth="yes"/>
      <point x="1646" y="-353"/>
      <point x="1653" y="-366"/>
    </contour>
  </outline>
</glyph>
<glyph name="Ttha.kn" format="2">
  <advance width="1220"/>
  <unicode hex="0CA0"/>
  <outline>
    <contour>
      <point x="427" y="1143" type="line"/>
      <point x="427" y="1116" type="line"/>
      <point x="245" y="1068"/>
      <point x="149" y="916"/>
      <point x="149" y="659" type="curve" smooth="yes"/>
      <point x="149" y="469" type="line" smooth="yes"/>
      <point x="149" y="139"/>
      <point x="306.684" y="-25"/>
      <point x="610" y="-25" type="curve" smooth="yes"/>
      <point x="914.32" y="-25"/>
      <point x="1071" y="139"/>
      <point x="1071" y="469" type="curve" smooth="yes"/>
      <point x="1071" y="659" type="line" smooth="yes"/>
      <point x="1071" y="916"/>
      <point x="976" y="1068"/>
      <point x="793" y="1116" type="curve"/>
      <point x="793" y="1143" type="line"/>
    </contour>
    <contour>
      <point x="149" y="1150" type="line"/>
      <point x="149" y="1118" type="line"/>
      <point x="831" y="1118" type="line"/>
      <point x="831" y="1150" type="line"/>
    </contour>
    <contour>
      <point x="611" y="731" type="curve" smooth="yes"/>
      <point x="591" y="731"/>
      <point x="587" y="707"/>
      <point x="587" y="617" type="curve" smooth="yes"/>
      <point x="587" y="535" type="line" smooth="yes"/>
      <point x="587" y="446"/>
      <point x="591" y="421"/>
      <point x="611" y="421" type="curve" smooth="yes"/>
      <point x="631" y="421"/>
      <point x="634" y="446"/>
      <point x="634" y="535" type="curve" smooth="yes"/>
      <point x="634" y="617" type="line" smooth="yes"/>
      <point x="634" y="707"/>
      <point x="631" y="731"/>
    </contour>
    <contour>
      <point x="1035" y="659" type="curve" smooth="yes"/>
      <point x="1035" y="469" type="line" smooth="yes"/>
      <point x="1035" y="166"/>
      <point x="889.314" y="9"/>
      <point x="610" y="9" type="curve" smooth="yes"/>
      <point x="329.681" y="9"/>
      <point x="185" y="162"/>
      <point x="185" y="469" type="curve" smooth="yes"/>
      <point x="185" y="659" type="line" smooth="yes"/>
      <point x="185" y="967"/>
      <point x="329.681" y="1118"/>
      <point x="610" y="1118" type="curve" smooth="yes"/>
      <point x="889.314" y="1118"/>
      <point x="1035" y="967"/>
    </contour>
    <contour>
      <point x="964" y="1540" type="line"/>
      <point x="1010" y="1469"/>
      <point x="1036" y="1388"/>
      <point x="1036" y="1309" type="curve" smooth="yes"/>
      <point x="1036" y="1198"/>
      <point x="986" y="1150"/>
      <point x="876" y="1150" type="curve" smooth="yes"/>
      <point x="773" y="1150" type="line"/>
      <point x="773" y="1118" type="line"/>
      <point x="879" y="1118" type="line" smooth="yes"/>
      <point x="1009" y="1118"/>
      <point x="1071" y="1178"/>
      <point x="1071" y="1309" type="curve" smooth="yes"/>
      <point x="1071" y="1390"/>
      <point x="1045" y="1472"/>
      <point x="1001" y="1540" type="curve"/>
    </contour>
  </outline>
  <guideline angle="0" x="0" y="564"/>
  <guideline angle="90" x="1008" y="0"/>
  <guideline angle="90" x="544" y="0"/>
  <guideline angle="90" x="1636" y="0"/>
  <guideline angle="90" x="1308" y="0"/>
</glyph>
<glyph name="Nna.kn" format="2">
  <advance width="1499"/>
  <unicode hex="0CA3"/>
  <outline>
    <contour>
      <point x="1349" y="454" type="line"/>
      <point x="1349" y="741" type="line" smooth="yes"/>
      <point x="1349" y="1033"/>
      <point x="1251" y="1176"/>
      <point x="1028" y="1176" type="curve" smooth="yes"/>
      <point x="853" y="1176"/>
      <point x="759" y="1084"/>
      <point x="744" y="935" type="curve"/>
      <point x="742" y="935" type="line"/>
      <point x="727" y="1084"/>
      <point x="631" y="1176"/>
      <point x="444" y="1176" type="curve" smooth="yes"/>
      <point x="244" y="1176"/>
      <point x="143" y="1073"/>
      <point x="143" y="870" type="curve" smooth="yes"/>
      <point x="143" y="832" type="line" smooth="yes"/>
      <point x="143" y="670"/>
      <point x="219" y="576"/>
      <point x="367" y="561" type="curve"/>
      <point x="367" y="559" type="line"/>
      <point x="216" y="542"/>
      <point x="141" y="448"/>
      <point x="141" y="280" type="curve" smooth="yes"/>
      <point x="141" y="264" type="line" smooth="yes"/>
      <point x="141" y="77"/>
      <point x="237" y="-22"/>
      <point x="431" y="-22" type="curve" smooth="yes"/>
      <point x="511" y="-22"/>
      <point x="578" y="-5"/>
      <point x="625" y="21" type="curve"/>
      <point x="630" y="58" type="line"/>
      <point x="581" y="29"/>
      <point x="514" y="12"/>
      <point x="431" y="12" type="curve" smooth="yes"/>
      <point x="262" y="12"/>
      <point x="177" y="99"/>
      <point x="177" y="264" type="curve" smooth="yes"/>
      <point x="177" y="280" type="line" smooth="yes"/>
      <point x="177" y="462"/>
      <point x="267" y="541"/>
      <point x="450" y="543" type="curve" smooth="yes"/>
      <point x="554" y="544" type="line"/>
      <point x="554" y="576" type="line"/>
      <point x="450" y="577" type="line" smooth="yes"/>
      <point x="268" y="579"/>
      <point x="179" y="657"/>
      <point x="179" y="832" type="curve" smooth="yes"/>
      <point x="179" y="870" type="line" smooth="yes"/>
      <point x="179" y="1051"/>
      <point x="269" y="1143"/>
      <point x="445" y="1143" type="curve" smooth="yes"/>
      <point x="629" y="1143"/>
      <point x="722" y="1046"/>
      <point x="724" y="845" type="curve" smooth="yes"/>
      <point x="725" y="729" type="line"/>
      <point x="760" y="729" type="line"/>
      <point x="762" y="845" type="line" smooth="yes"/>
      <point x="765" y="1046"/>
      <point x="855" y="1143"/>
      <point x="1028" y="1143" type="curve" smooth="yes"/>
      <point x="1226" y="1143"/>
      <point x="1313" y="1009"/>
      <point x="1313" y="740" type="curve" smooth="yes"/>
      <point x="1313" y="446" type="line"/>
    </contour>
    <contour>
      <point x="1313" y="482" type="line"/>
      <point x="1313" y="359" type="line" smooth="yes"/>
      <point x="1313" y="112"/>
      <point x="1240" y="12"/>
      <point x="1074" y="12" type="curve" smooth="yes"/>
      <point x="919" y="12"/>
      <point x="842" y="104"/>
      <point x="842" y="281" type="curve" smooth="yes"/>
      <point x="842" y="335" type="line" smooth="yes"/>
      <point x="842" y="517"/>
      <point x="922" y="599"/>
      <point x="1068" y="599" type="curve" smooth="yes"/>
      <point x="1195" y="599"/>
      <point x="1279" y="535"/>
      <point x="1322" y="427" type="curve"/>
      <point x="1324" y="497" type="line"/>
      <point x="1312" y="497" type="line"/>
      <point x="1272" y="576"/>
      <point x="1188" y="633"/>
      <point x="1068" y="633" type="curve" smooth="yes"/>
      <point x="896" y="633"/>
      <point x="807" y="534"/>
      <point x="807" y="335" type="curve" smooth="yes"/>
      <point x="807" y="280" type="line" smooth="yes"/>
      <point x="807" y="82"/>
      <point x="898" y="-22"/>
      <point x="1073" y="-22" type="curve" smooth="yes"/>
      <point x="1263" y="-22"/>
      <point x="1349" y="89"/>
      <point x="1349" y="359" type="curve" smooth="yes"/>
      <point x="1349" y="482" type="line"/>
    </contour>
  </outline>
</glyph>
<glyph name="Ta.kn" format="2">
  <advance width="1019"/>
  <unicode hex="0CA4"/>
  <outline>
    <contour>
      <point x="499" y="10" type="curve" smooth="yes"/>
      <point x="303" y="10"/>
      <point x="169" y="73"/>
      <point x="74" y="144" type="curve"/>
      <point x="76" y="101" type="line"/>
      <point x="158" y="45"/>
      <point x="288" y="-24"/>
      <point x="500" y="-24" type="curve" smooth="yes"/>
      <point x="758" y="-24"/>
      <point x="885" y="87"/>
      <point x="885" y="313" type="curve" smooth="yes"/>
      <point x="885" y="326" type="line" smooth="yes"/>
      <point x="885" y="514"/>
      <point x="801" y="611"/>
      <point x="628" y="627" type="curve"/>
      <point x="628" y="628" type="line"/>
      <point x="766" y="646"/>
      <point x="827" y="725"/>
      <point x="827" y="862" type="curve" smooth="yes"/>
      <point x="827" y="872" type="line" smooth="yes"/>
      <point x="827" y="1002"/>
      <point x="772" y="1091"/>
      <point x="659" y="1117" type="curve"/>
      <point x="659" y="1138" type="line"/>
      <point x="493" y="1138" type="line"/>
      <point x="493" y="1118" type="line"/>
      <point x="697" y="1118"/>
      <point x="791" y="1041"/>
      <point x="791" y="873" type="curve" smooth="yes"/>
      <point x="791" y="863" type="line" smooth="yes"/>
      <point x="791" y="710"/>
      <point x="712" y="644"/>
      <point x="526" y="643" type="curve" smooth="yes"/>
      <point x="267" y="642" type="line"/>
      <point x="267" y="610" type="line"/>
      <point x="541" y="609" type="line" smooth="yes"/>
      <point x="750" y="608"/>
      <point x="849" y="531"/>
      <point x="849" y="326" type="curve" smooth="yes"/>
      <point x="849" y="314" type="line" smooth="yes"/>
      <point x="849" y="110"/>
      <point x="733" y="10"/>
    </contour>
    <contour>
      <point x="670" y="1118" type="line"/>
      <point x="670" y="1150" type="line"/>
      <point x="114" y="1150" type="line"/>
      <point x="114" y="1118" type="line"/>
    </contour>
    <contour>
      <point x="794" y="1540" type="line"/>
      <point x="840" y="1469"/>
      <point x="866" y="1388"/>
      <point x="866" y="1309" type="curve" smooth="yes"/>
      <point x="866" y="1198"/>
      <point x="816" y="1150"/>
      <point x="706" y="1150" type="curve" smooth="yes"/>
      <point x="603" y="1150" type="line"/>
      <point x="603" y="1118" type="line"/>
      <point x="709" y="1118" type="line" smooth="yes"/>
      <point x="839" y="1118"/>
      <point x="901" y="1178"/>
      <point x="901" y="1309" type="curve" smooth="yes"/>
      <point x="901" y="1390"/>
      <point x="875" y="1472"/>
      <point x="831" y="1540" type="curve"/>
    </contour>
  </outline>
</glyph>
<glyph name="Tha.kn" format="2">
  <advance width="1441"/>
  <unicode hex="0CA5"/>
  <outline>
    <contour>
      <point x="721" y="608" type="curve" smooth="yes"/>
      <point x="742" y="608"/>
      <point x="746" y="631"/>
      <point x="746" y="715" type="curve" smooth="yes"/>
      <point x="746" y="797" type="line" smooth="yes"/>
      <point x="746" y="881"/>
      <point x="742" y="904"/>
      <point x="721" y="904" type="curve" smooth="yes"/>
      <point x="700" y="904"/>
      <point x="697" y="881"/>
      <point x="697" y="797" type="curve" smooth="yes"/>
      <point x="697" y="715" type="line" smooth="yes"/>
      <point x="697" y="631"/>
      <point x="700" y="608"/>
    </contour>
    <contour>
      <point x="1027" y="1118" type="line"/>
      <point x="1027" y="1150" type="line"/>
      <point x="149" y="1150" type="line"/>
      <point x="149" y="1118" type="line"/>
    </contour>
    <contour>
      <point x="185" y="563" type="line" smooth="yes"/>
      <point x="185" y="935"/>
      <point x="357" y="1118"/>
      <point x="702" y="1118" type="curve"/>
      <point x="701" y="1138" type="line"/>
      <point x="496" y="1138" type="line"/>
      <point x="496" y="1116" type="line"/>
      <point x="287" y="1068"/>
      <point x="149" y="901"/>
      <point x="149" y="563" type="curve" smooth="yes"/>
      <point x="149" y="359" type="line" smooth="yes"/>
      <point x="149" y="98"/>
      <point x="250" y="-22"/>
      <point x="448" y="-22" type="curve" smooth="yes"/>
      <point x="618" y="-22"/>
      <point x="708" y="72"/>
      <point x="720" y="229" type="curve"/>
      <point x="722" y="229" type="line"/>
      <point x="734" y="72"/>
      <point x="823" y="-22"/>
      <point x="993" y="-22" type="curve" smooth="yes"/>
      <point x="1191" y="-22"/>
      <point x="1292" y="98"/>
      <point x="1292" y="359" type="curve" smooth="yes"/>
      <point x="1292" y="563" type="line" smooth="yes"/>
      <point x="1292" y="901"/>
      <point x="1155" y="1068"/>
      <point x="946" y="1116" type="curve"/>
      <point x="946" y="1138" type="line"/>
      <point x="740" y="1138" type="line"/>
      <point x="740" y="1118" type="line"/>
      <point x="1085" y="1118"/>
      <point x="1256" y="935"/>
      <point x="1256" y="563" type="curve" smooth="yes"/>
      <point x="1256" y="360" type="line" smooth="yes"/>
      <point x="1256" y="120"/>
      <point x="1166" y="12"/>
      <point x="992" y="12" type="curve" smooth="yes"/>
      <point x="826" y="12"/>
      <point x="743" y="110"/>
      <point x="740" y="316" type="curve" smooth="yes"/>
      <point x="738" y="438" type="line"/>
      <point x="704" y="438" type="line"/>
      <point x="702" y="316" type="line" smooth="yes"/>
      <point x="699" y="110"/>
      <point x="615" y="12"/>
      <point x="449" y="12" type="curve" smooth="yes"/>
      <point x="274" y="12"/>
      <point x="185" y="120"/>
      <point x="185" y="360" type="curve" smooth="yes"/>
    </contour>
    <contour>
      <point x="721" y="-366" type="curve" smooth="yes"/>
      <point x="739" y="-366"/>
      <point x="746" y="-353"/>
      <point x="746" y="-325" type="curve" smooth="yes"/>
      <point x="746" y="-257" type="line" smooth="yes"/>
      <point x="746" y="-109"/>
      <point x="740" y="-10"/>
      <point x="721" y="73" type="curve"/>
      <point x="702" y="-10"/>
      <point x="696" y="-109"/>
      <point x="696" y="-257" type="curve" smooth="yes"/>
      <point x="696" y="-325" type="line" smooth="yes"/>
      <point x="696" y="-353"/>
      <point x="703" y="-366"/>
    </contour>
    <contour>
      <point x="1185" y="1540" type="line"/>
      <point x="1231" y="1469"/>
      <point x="1257" y="1388"/>
      <point x="1257" y="1309" type="curve" smooth="yes"/>
      <point x="1257" y="1198"/>
      <point x="1207" y="1150"/>
      <point x="1097" y="1150" type="curve" smooth="yes"/>
      <point x="994" y="1150" type="line"/>
      <point x="994" y="1118" type="line"/>
      <point x="1100" y="1118" type="line" smooth="yes"/>
      <point x="1230" y="1118"/>
      <point x="1292" y="1178"/>
      <point x="1292" y="1309" type="curve" smooth="yes"/>
      <point x="1292" y="1390"/>
      <point x="1266" y="1472"/>
      <point x="1222" y="1540" type="curve"/>
    </contour>
  </outline>
</glyph>
<glyph name="Pha.kn" format="2">
  <advance width="1457"/>
  <unicode hex="0CAB"/>
  <anchor x="731" y="0" name="nukta"/>
  <outline>
    <contour>
      <point x="370" y="672" type="curve" smooth="yes"/>
      <point x="213" y="672"/>
      <point x="133" y="571"/>
      <point x="133" y="379" type="curve" smooth="yes"/>
      <point x="133" y="305" type="line" smooth="yes"/>
      <point x="133" y="88"/>
      <point x="237" y="-22"/>
      <point x="435" y="-22" type="curve" smooth="yes"/>
      <point x="622" y="-22"/>
      <point x="717" y="74"/>
      <point x="730" y="234" type="curve"/>
      <point x="732" y="234" type="line"/>
      <point x="745" y="74"/>
      <point x="838" y="-22"/>
      <point x="1021" y="-22" type="curve" smooth="yes"/>
      <point x="1217" y="-22"/>
      <point x="1315" y="93"/>
      <point x="1315" y="324" type="curve" smooth="yes"/>
      <point x="1315" y="426" type="line" smooth="yes"/>
      <point x="1315" y="631"/>
      <point x="1262" y="766"/>
      <point x="1152" y="861" type="curve"/>
      <point x="1104" y="861" type="line"/>
      <point x="1220" y="768"/>
      <point x="1279" y="632"/>
      <point x="1279" y="427" type="curve" smooth="yes"/>
      <point x="1279" y="324" type="line" smooth="yes"/>
      <point x="1279" y="114"/>
      <point x="1192" y="12"/>
      <point x="1020" y="12" type="curve" smooth="yes"/>
      <point x="840" y="12"/>
      <point x="754" y="111"/>
      <point x="750" y="320" type="curve" smooth="yes"/>
      <point x="748" y="438" type="line"/>
      <point x="714" y="438" type="line"/>
      <point x="712" y="320" type="line" smooth="yes"/>
      <point x="708" y="111"/>
      <point x="621" y="12"/>
      <point x="436" y="12" type="curve" smooth="yes"/>
      <point x="261" y="12"/>
      <point x="169" y="109"/>
      <point x="169" y="305" type="curve" smooth="yes"/>
      <point x="169" y="376" type="line" smooth="yes"/>
      <point x="169" y="550"/>
      <point x="235" y="638"/>
      <point x="371" y="638" type="curve" smooth="yes"/>
      <point x="438" y="638"/>
      <point x="491" y="616"/>
      <point x="532" y="582" type="curve"/>
      <point x="529" y="622" type="line"/>
      <point x="489" y="653"/>
      <point x="436" y="672"/>
    </contour>
    <contour>
      <point x="1043" y="1118" type="line"/>
      <point x="1043" y="1150" type="line"/>
      <point x="169" y="1150" type="line"/>
      <point x="169" y="1118" type="line"/>
    </contour>
    <contour>
      <point x="731" y="682" type="curve" smooth="yes"/>
      <point x="751" y="682"/>
      <point x="754" y="707"/>
      <point x="754" y="796" type="curve" smooth="yes"/>
      <point x="754" y="878" type="line" smooth="yes"/>
      <point x="754" y="968"/>
      <point x="751" y="992"/>
      <point x="731" y="992" type="curve" smooth="yes"/>
      <point x="711" y="992"/>
      <point x="707" y="968"/>
      <point x="707" y="878" type="curve" smooth="yes"/>
      <point x="707" y="796" type="line" smooth="yes"/>
      <point x="707" y="707"/>
      <point x="711" y="682"/>
    </contour>
    <contour>
      <point x="1177" y="1528" type="line"/>
      <point x="1223" y="1457"/>
      <point x="1249" y="1377"/>
      <point x="1249" y="1298" type="curve" smooth="yes"/>
      <point x="1249" y="1195"/>
      <point x="1199" y="1150"/>
      <point x="1089" y="1150" type="curve" smooth="yes"/>
      <point x="986" y="1150" type="line"/>
      <point x="986" y="1118" type="line"/>
      <point x="1092" y="1118" type="line" smooth="yes"/>
      <point x="1222" y="1118"/>
      <point x="1284" y="1175"/>
      <point x="1284" y="1298" type="curve" smooth="yes"/>
      <point x="1284" y="1379"/>
      <point x="1258" y="1460"/>
      <point x="1214" y="1528" type="curve"/>
    </contour>
    <contour>
      <point x="731" y="-366" type="curve" smooth="yes"/>
      <point x="749" y="-366"/>
      <point x="756" y="-353"/>
      <point x="756" y="-325" type="curve" smooth="yes"/>
      <point x="756" y="-257" type="line" smooth="yes"/>
      <point x="756" y="-109"/>
      <point x="750" y="-10"/>
      <point x="731" y="73" type="curve"/>
      <point x="712" y="-10"/>
      <point x="706" y="-109"/>
      <point x="706" y="-257" type="curve" smooth="yes"/>
      <point x="706" y="-325" type="line" smooth="yes"/>
      <point x="706" y="-353"/>
      <point x="713" y="-366"/>
    </contour>
  </outline>
</glyph>
<glyph name="Bha.kn" format="2">
  <advance width="1480"/>
  <unicode hex="0CAD"/>
  <outline>
    <contour>
      <point x="449" y="1177" type="curve" smooth="yes"/>
      <point x="255" y="1177"/>
      <point x="154" y="1079"/>
      <point x="154" y="891" type="curve" smooth="yes"/>
      <point x="154" y="885" type="line" smooth="yes"/>
      <point x="154" y="804"/>
      <point x="172" y="726"/>
      <point x="197" y="670" type="curve"/>
      <point x="234" y="670" type="line"/>
      <point x="209" y="727"/>
      <point x="190" y="801"/>
      <point x="190" y="885" type="curve" smooth="yes"/>
      <point x="190" y="891" type="line" smooth="yes"/>
      <point x="190" y="1057"/>
      <point x="278" y="1143"/>
      <point x="449" y="1143" type="curve" smooth="yes"/>
      <point x="613" y="1143"/>
      <point x="698" y="1065"/>
      <point x="698" y="908" type="curve" smooth="yes"/>
      <point x="698" y="902" type="line" smooth="yes"/>
      <point x="698" y="771"/>
      <point x="637" y="703"/>
      <point x="486" y="626" type="curve" smooth="yes"/>
      <point x="384" y="574" type="line" smooth="yes"/>
      <point x="203" y="482"/>
      <point x="128" y="410"/>
      <point x="128" y="256" type="curve" smooth="yes"/>
      <point x="128" y="248" type="line" smooth="yes"/>
      <point x="128" y="71"/>
      <point x="232" y="-22"/>
      <point x="433" y="-22" type="curve" smooth="yes"/>
      <point x="628" y="-22"/>
      <point x="727" y="74"/>
      <point x="740" y="233" type="curve"/>
      <point x="742" y="233" type="line"/>
      <point x="754" y="74"/>
      <point x="846" y="-22"/>
      <point x="1027" y="-22" type="curve" smooth="yes"/>
      <point x="1231" y="-22"/>
      <point x="1330" y="103.998"/>
      <point x="1330" y="385" type="curve" smooth="yes"/>
      <point x="1330" y="656" type="line" smooth="yes"/>
      <point x="1330" y="952.002"/>
      <point x="1224" y="1079"/>
      <point x="1066" y="1116" type="curve"/>
      <point x="1066" y="1138" type="line"/>
      <point x="889" y="1138" type="line"/>
      <point x="889" y="1118" type="line"/>
      <point x="1163" y="1118"/>
      <point x="1294" y="985"/>
      <point x="1294" y="657" type="curve" smooth="yes"/>
      <point x="1294" y="384" type="line" smooth="yes"/>
      <point x="1294" y="123"/>
      <point x="1207" y="12"/>
      <point x="1026" y="12" type="curve" smooth="yes"/>
      <point x="849" y="12"/>
      <point x="764" y="110"/>
      <point x="760" y="318" type="curve" smooth="yes"/>
      <point x="758" y="431" type="line"/>
      <point x="724" y="431" type="line"/>
      <point x="722" y="318" type="line" smooth="yes"/>
      <point x="718" y="110"/>
      <point x="626" y="12"/>
      <point x="434" y="12" type="curve" smooth="yes"/>
      <point x="258" y="12"/>
      <point x="164" y="93"/>
      <point x="164" y="249" type="curve" smooth="yes"/>
      <point x="164" y="256" type="line" smooth="yes"/>
      <point x="164" y="393"/>
      <point x="235" y="460"/>
      <point x="402" y="546" type="curve" smooth="yes"/>
      <point x="505" y="599" type="line" smooth="yes"/>
      <point x="666" y="682"/>
      <point x="734" y="757"/>
      <point x="734" y="902" type="curve" smooth="yes"/>
      <point x="734" y="908" type="line" smooth="yes"/>
      <point x="734" y="1087"/>
      <point x="638" y="1177"/>
    </contour>
    <contour>
      <point x="854" y="1118" type="line"/>
      <point x="1089" y="1118" type="line"/>
      <point x="1089" y="1150" type="line"/>
      <point x="854" y="1150" type="line"/>
    </contour>
    <contour>
      <point x="1223" y="1540" type="line"/>
      <point x="1269" y="1469"/>
      <point x="1295" y="1388"/>
      <point x="1295" y="1309" type="curve" smooth="yes"/>
      <point x="1295" y="1198"/>
      <point x="1245" y="1150"/>
      <point x="1135" y="1150" type="curve" smooth="yes"/>
      <point x="1032" y="1150" type="line"/>
      <point x="1032" y="1118" type="line"/>
      <point x="1138" y="1118" type="line" smooth="yes"/>
      <point x="1268" y="1118"/>
      <point x="1330" y="1178"/>
      <point x="1330" y="1309" type="curve" smooth="yes"/>
      <point x="1330" y="1390"/>
      <point x="1304" y="1472"/>
      <point x="1260" y="1540" type="curve"/>
    </contour>
    <contour>
      <point x="741" y="-366" type="curve" smooth="yes"/>
      <point x="759" y="-366"/>
      <point x="766" y="-353"/>
      <point x="766" y="-325" type="curve" smooth="yes"/>
      <point x="766" y="-257" type="line" smooth="yes"/>
      <point x="766" y="-109"/>
      <point x="760" y="-10"/>
      <point x="741" y="73" type="curve"/>
      <point x="722" y="-10"/>
      <point x="716" y="-109"/>
      <point x="716" y="-257" type="curve" smooth="yes"/>
      <point x="716" y="-325" type="line" smooth="yes"/>
      <point x="716" y="-353"/>
      <point x="723" y="-366"/>
    </contour>
  </outline>
</glyph>
<glyph name="Ra.kn" format="2">
  <advance width="1220"/>
  <unicode hex="0CB0"/>
  <outline>
    <contour>
      <point x="427" y="1143" type="line"/>
      <point x="427" y="1116" type="line"/>
      <point x="245" y="1068"/>
      <point x="149" y="916"/>
      <point x="149" y="659" type="curve" smooth="yes"/>
      <point x="149" y="469" type="line" smooth="yes"/>
      <point x="149" y="139"/>
      <point x="305.68" y="-25"/>
      <point x="610" y="-25" type="curve" smooth="yes"/>
      <point x="914.32" y="-25"/>
      <point x="1071" y="139"/>
      <point x="1071" y="469" type="curve" smooth="yes"/>
      <point x="1071" y="659" type="line" smooth="yes"/>
      <point x="1071" y="916"/>
      <point x="976" y="1068"/>
      <point x="793" y="1116" type="curve"/>
      <point x="793" y="1143" type="line"/>
    </contour>
    <contour>
      <point x="610" y="9" type="curve" smooth="yes"/>
      <point x="329.681" y="9"/>
      <point x="185" y="165"/>
      <point x="185" y="469" type="curve" smooth="yes"/>
      <point x="185" y="659" type="line" smooth="yes"/>
      <point x="185" y="967"/>
      <point x="329.681" y="1118"/>
      <point x="610" y="1118" type="curve" smooth="yes"/>
      <point x="889.314" y="1118"/>
      <point x="1035" y="967"/>
      <point x="1035" y="659" type="curve" smooth="yes"/>
      <point x="1035" y="469" type="line" smooth="yes"/>
      <point x="1035" y="165"/>
      <point x="890.319" y="9"/>
    </contour>
    <contour>
      <point x="831" y="1118" type="line"/>
      <point x="831" y="1150" type="line"/>
      <point x="149" y="1150" type="line"/>
      <point x="149" y="1118" type="line"/>
    </contour>
    <contour>
      <point x="964" y="1540" type="line"/>
      <point x="1010" y="1469"/>
      <point x="1036" y="1388"/>
      <point x="1036" y="1309" type="curve" smooth="yes"/>
      <point x="1036" y="1198"/>
      <point x="986" y="1150"/>
      <point x="876" y="1150" type="curve" smooth="yes"/>
      <point x="773" y="1150" type="line"/>
      <point x="773" y="1118" type="line"/>
      <point x="879" y="1118" type="line" smooth="yes"/>
      <point x="1009" y="1118"/>
      <point x="1071" y="1178"/>
      <point x="1071" y="1309" type="curve" smooth="yes"/>
      <point x="1071" y="1390"/>
      <point x="1045" y="1472"/>
      <point x="1001" y="1540" type="curve"/>
    </contour>
  </outline>
</glyph>
<glyph name="RraObsolete.kn" format="2">
  <advance width="1610"/>
  <unicode hex="0CB1"/>
  <outline>
    <contour>
      <point x="150" y="684" type="line"/>
      <point x="150" y="417" type="line" smooth="yes"/>
      <point x="150" y="110"/>
      <point x="263" y="-22"/>
      <point x="495" y="-22" type="curve" smooth="yes"/>
      <point x="691" y="-22"/>
      <point x="791" y="79"/>
      <point x="804" y="245" type="curve"/>
      <point x="806" y="245" type="line"/>
      <point x="819" y="79"/>
      <point x="919" y="-22"/>
      <point x="1115" y="-22" type="curve" smooth="yes"/>
      <point x="1347" y="-22"/>
      <point x="1460" y="109"/>
      <point x="1460" y="416" type="curve" smooth="yes"/>
      <point x="1460" y="780" type="line" smooth="yes"/>
      <point x="1460" y="1061"/>
      <point x="1371" y="1177"/>
      <point x="1174" y="1177" type="curve" smooth="yes"/>
      <point x="1000" y="1177"/>
      <point x="905" y="1072"/>
      <point x="905" y="872" type="curve" smooth="yes"/>
      <point x="905" y="810" type="line" smooth="yes"/>
      <point x="905" y="652"/>
      <point x="966" y="578"/>
      <point x="1060" y="553" type="curve"/>
      <point x="1060" y="545" type="line"/>
      <point x="1208" y="545" type="line"/>
      <point x="1208" y="552" type="line"/>
      <point x="1038" y="552"/>
      <point x="941" y="623"/>
      <point x="941" y="810" type="curve" smooth="yes"/>
      <point x="941" y="870" type="line" smooth="yes"/>
      <point x="941" y="1049"/>
      <point x="1020" y="1143"/>
      <point x="1174" y="1143" type="curve" smooth="yes"/>
      <point x="1347" y="1143"/>
      <point x="1424" y="1041"/>
      <point x="1424" y="779" type="curve" smooth="yes"/>
      <point x="1424" y="416" type="line" smooth="yes"/>
      <point x="1424" y="128"/>
      <point x="1324" y="12"/>
      <point x="1114" y="12" type="curve" smooth="yes"/>
      <point x="921" y="12"/>
      <point x="828" y="114"/>
      <point x="824" y="332" type="curve" smooth="yes"/>
      <point x="822" y="431" type="line"/>
      <point x="788" y="431" type="line"/>
      <point x="786" y="332" type="line" smooth="yes"/>
      <point x="782" y="114"/>
      <point x="689" y="12"/>
      <point x="496" y="12" type="curve" smooth="yes"/>
      <point x="286" y="12"/>
      <point x="186" y="127.998"/>
      <point x="186" y="416" type="curve" smooth="yes"/>
      <point x="186" y="682" type="line"/>
    </contour>
    <contour>
      <point x="1228" y="520" type="line"/>
      <point x="1228" y="552" type="line"/>
      <point x="457" y="552" type="line"/>
      <point x="457" y="520" type="line"/>
    </contour>
    <contour>
      <point x="457" y="520" type="curve"/>
      <point x="630" y="533"/>
      <point x="705" y="621"/>
      <point x="705" y="818" type="curve" smooth="yes"/>
      <point x="705" y="870" type="line" smooth="yes"/>
      <point x="705" y="1072"/>
      <point x="613" y="1177"/>
      <point x="437" y="1177" type="curve" smooth="yes"/>
      <point x="240" y="1177"/>
      <point x="150" y="1061"/>
      <point x="150" y="782" type="curve" smooth="yes"/>
      <point x="150" y="679" type="line"/>
      <point x="186" y="679" type="line"/>
      <point x="186" y="782" type="line" smooth="yes"/>
      <point x="186" y="1039"/>
      <point x="262" y="1143"/>
      <point x="436" y="1143" type="curve" smooth="yes"/>
      <point x="592" y="1143"/>
      <point x="669" y="1050"/>
      <point x="669" y="869" type="curve" smooth="yes"/>
      <point x="669" y="817" type="line" smooth="yes"/>
      <point x="669" y="635"/>
      <point x="594" y="553"/>
      <point x="457" y="553" type="curve" smooth="yes"/>
      <point x="317" y="553"/>
      <point x="224" y="620"/>
      <point x="177" y="733" type="curve"/>
      <point x="175" y="664" type="line"/>
      <point x="187" y="664" type="line"/>
      <point x="231" y="580"/>
      <point x="324" y="520"/>
    </contour>
  </outline>
</glyph>
<glyph name="La.kn" format="2">
  <advance width="1369"/>
  <unicode hex="0CB2"/>
  <outline>
    <contour>
      <point x="181" y="633" type="line"/>
      <point x="181" y="777" type="line" smooth="yes"/>
      <point x="181" y="1038"/>
      <point x="258" y="1143"/>
      <point x="435" y="1143" type="curve" smooth="yes"/>
      <point x="594" y="1143"/>
      <point x="672" y="1048"/>
      <point x="672" y="863" type="curve" smooth="yes"/>
      <point x="672" y="812" type="line" smooth="yes"/>
      <point x="672" y="625"/>
      <point x="596" y="541"/>
      <point x="456" y="541" type="curve" smooth="yes"/>
      <point x="314" y="541"/>
      <point x="220" y="609"/>
      <point x="172" y="723" type="curve"/>
      <point x="170" y="653" type="line"/>
      <point x="182" y="653" type="line"/>
      <point x="227" y="568"/>
      <point x="321" y="507"/>
      <point x="456" y="507" type="curve" smooth="yes"/>
      <point x="622" y="507"/>
      <point x="708" y="609"/>
      <point x="708" y="812" type="curve" smooth="yes"/>
      <point x="708" y="864" type="line" smooth="yes"/>
      <point x="708" y="1070"/>
      <point x="615" y="1177"/>
      <point x="436" y="1177" type="curve" smooth="yes"/>
      <point x="235" y="1177"/>
      <point x="145" y="1060"/>
      <point x="145" y="777" type="curve" smooth="yes"/>
      <point x="145" y="633" type="line"/>
    </contour>
    <contour>
      <point x="145" y="639" type="line"/>
      <point x="145" y="515" type="line" smooth="yes"/>
      <point x="145" y="161"/>
      <point x="332" y="-24"/>
      <point x="689" y="-24" type="curve" smooth="yes"/>
      <point x="1039" y="-24"/>
      <point x="1223" y="159"/>
      <point x="1223" y="510" type="curve" smooth="yes"/>
      <point x="1223" y="712" type="line" smooth="yes"/>
      <point x="1223" y="1026"/>
      <point x="1117" y="1165"/>
      <point x="904" y="1165" type="curve" smooth="yes"/>
      <point x="892" y="1165"/>
      <point x="880" y="1165"/>
      <point x="864" y="1164" type="curve"/>
      <point x="864" y="1130" type="line"/>
      <point x="879" y="1131"/>
      <point x="893" y="1131"/>
      <point x="903" y="1131" type="curve" smooth="yes"/>
      <point x="1094" y="1131"/>
      <point x="1187" y="1005"/>
      <point x="1187" y="712" type="curve" smooth="yes"/>
      <point x="1187" y="511" type="line" smooth="yes"/>
      <point x="1187" y="181"/>
      <point x="1018" y="10"/>
      <point x="689" y="10" type="curve" smooth="yes"/>
      <point x="354" y="10"/>
      <point x="181" y="182"/>
      <point x="181" y="516" type="curve" smooth="yes"/>
      <point x="181" y="638" type="line"/>
    </contour>
  </outline>
</glyph>
<glyph name="Sha.kn" format="2">
  <advance width="1137"/>
  <unicode hex="0CB6"/>
  <outline>
    <contour>
      <point x="132" y="1150" type="line"/>
      <point x="132" y="1118" type="line"/>
      <point x="427" y="1118" type="line"/>
      <point x="439" y="1118" type="line"/>
      <point x="724" y="1118" type="line"/>
      <point x="724" y="1150" type="line"/>
    </contour>
    <contour>
      <point x="947" y="660" type="curve" smooth="yes"/>
      <point x="947" y="441" type="line" smooth="yes"/>
      <point x="947" y="152"/>
      <point x="812" y="9"/>
      <point x="545" y="9" type="curve" smooth="yes"/>
      <point x="316" y="9"/>
      <point x="173" y="119"/>
      <point x="173" y="312" type="curve" smooth="yes"/>
      <point x="173" y="321" type="line" smooth="yes"/>
      <point x="173" y="491"/>
      <point x="259" y="564"/>
      <point x="453" y="660" type="curve" smooth="yes"/>
      <point x="932" y="896" type="line"/>
      <point x="914" y="925" type="line"/>
      <point x="433" y="688" type="line" smooth="yes"/>
      <point x="229" y="588"/>
      <point x="136" y="506"/>
      <point x="136" y="321" type="curve" smooth="yes"/>
      <point x="136" y="312" type="line" smooth="yes"/>
      <point x="136" y="95"/>
      <point x="290" y="-25"/>
      <point x="545" y="-25" type="curve" smooth="yes"/>
      <point x="839" y="-25"/>
      <point x="983" y="127"/>
      <point x="983" y="443" type="curve" smooth="yes"/>
      <point x="983" y="660" type="line" smooth="yes"/>
      <point x="983" y="918"/>
      <point x="896" y="1067"/>
      <point x="732" y="1116" type="curve"/>
      <point x="732" y="1138" type="line"/>
      <point x="391" y="1138" type="line"/>
      <point x="391" y="1117" type="line"/>
      <point x="250" y="1082"/>
      <point x="176" y="974"/>
      <point x="176" y="794" type="curve" smooth="yes"/>
      <point x="176" y="766" type="line"/>
      <point x="212" y="766" type="line"/>
      <point x="212" y="794" type="line" smooth="yes"/>
      <point x="212" y="1012"/>
      <point x="331" y="1118"/>
      <point x="561" y="1118" type="curve" smooth="yes"/>
      <point x="818" y="1118"/>
      <point x="947" y="969"/>
    </contour>
    <contour>
      <point x="886" y="1540" type="line"/>
      <point x="932" y="1469"/>
      <point x="958" y="1388"/>
      <point x="958" y="1309" type="curve" smooth="yes"/>
      <point x="958" y="1198"/>
      <point x="908" y="1150"/>
      <point x="798" y="1150" type="curve" smooth="yes"/>
      <point x="695" y="1150" type="line"/>
      <point x="695" y="1118" type="line"/>
      <point x="801" y="1118" type="line" smooth="yes"/>
      <point x="931" y="1118"/>
      <point x="993" y="1178"/>
      <point x="993" y="1309" type="curve" smooth="yes"/>
      <point x="993" y="1390"/>
      <point x="967" y="1472"/>
      <point x="923" y="1540" type="curve"/>
    </contour>
  </outline>
</glyph>
<glyph name="Ha.kn" format="2">
  <advance width="1526"/>
  <unicode hex="0CB9"/>
  <outline>
    <contour>
      <point x="462" y="-22" type="curve" smooth="yes"/>
      <point x="660" y="-22"/>
      <point x="749" y="87"/>
      <point x="766" y="246" type="curve"/>
      <point x="768" y="246" type="line"/>
      <point x="808" y="69"/>
      <point x="907" y="-22"/>
      <point x="1082" y="-22" type="curve" smooth="yes"/>
      <point x="1278" y="-22"/>
      <point x="1383" y="94"/>
      <point x="1383" y="330" type="curve" smooth="yes"/>
      <point x="1383" y="472" type="line" smooth="yes"/>
      <point x="1383" y="706"/>
      <point x="1276" y="834"/>
      <point x="1068" y="834" type="curve" smooth="yes"/>
      <point x="877.294" y="834"/>
      <point x="752.808" y="733.236"/>
      <point x="739" y="532" type="curve"/>
      <point x="751.869" y="494.326" type="line"/>
      <point x="704" y="832" type="line" smooth="yes"/>
      <point x="676.84" y="1023.59"/>
      <point x="593" y="1093.08"/>
      <point x="487" y="1116" type="curve"/>
      <point x="487" y="1126" type="line"/>
      <point x="305" y="1126" type="line"/>
      <point x="305" y="1118" type="line"/>
      <point x="541" y="1118"/>
      <point x="638" y="1037"/>
      <point x="669" y="829" type="curve" smooth="yes"/>
      <point x="749" y="299" type="line"/>
      <point x="727" y="113"/>
      <point x="649" y="11"/>
      <point x="463" y="11" type="curve" smooth="yes"/>
      <point x="277" y="11"/>
      <point x="181" y="116"/>
      <point x="181" y="331" type="curve" smooth="yes"/>
      <point x="181" y="448" type="line" smooth="yes"/>
      <point x="181" y="690"/>
      <point x="276" y="784"/>
      <point x="470" y="784" type="curve" smooth="yes"/>
      <point x="553.367" y="784"/>
      <point x="630.724" y="759.87"/>
      <point x="692" y="725" type="curve"/>
      <point x="692" y="747" type="line"/>
      <point x="681" y="744" type="line"/>
      <point x="663" y="772" type="line"/>
      <point x="602.388" y="802.333"/>
      <point x="531.653" y="816"/>
      <point x="465" y="816" type="curve" smooth="yes"/>
      <point x="253" y="816"/>
      <point x="145" y="710"/>
      <point x="145" y="450" type="curve" smooth="yes"/>
      <point x="145" y="330" type="line" smooth="yes"/>
      <point x="145" y="95"/>
      <point x="255" y="-22"/>
    </contour>
    <contour>
      <point x="1080" y="12" type="curve" smooth="yes"/>
      <point x="911" y="12"/>
      <point x="828" y="105"/>
      <point x="784" y="299" type="curve"/>
      <point x="756" y="485" type="line"/>
      <point x="767.848" y="696.364"/>
      <point x="880.38" y="801"/>
      <point x="1068" y="801" type="curve" smooth="yes"/>
      <point x="1253" y="801"/>
      <point x="1347" y="686"/>
      <point x="1347" y="472" type="curve" smooth="yes"/>
      <point x="1347" y="331" type="line" smooth="yes"/>
      <point x="1347" y="116"/>
      <point x="1254" y="12"/>
    </contour>
    <contour>
      <point x="1136" y="1118" type="line"/>
      <point x="1136" y="1150" type="line"/>
      <point x="134" y="1150" type="line"/>
      <point x="134" y="1118" type="line"/>
    </contour>
    <contour>
      <point x="1276" y="1540" type="line"/>
      <point x="1322" y="1469"/>
      <point x="1348" y="1388"/>
      <point x="1348" y="1309" type="curve" smooth="yes"/>
      <point x="1348" y="1198"/>
      <point x="1298" y="1150"/>
      <point x="1188" y="1150" type="curve" smooth="yes"/>
      <point x="1085" y="1150" type="line"/>
      <point x="1085" y="1118" type="line"/>
      <point x="1191" y="1118" type="line" smooth="yes"/>
      <point x="1321" y="1118"/>
      <point x="1383" y="1178"/>
      <point x="1383" y="1309" type="curve" smooth="yes"/>
      <point x="1383" y="1390"/>
      <point x="1357" y="1472"/>
      <point x="1313" y="1540" type="curve"/>
    </contour>
  </outline>
</glyph>
<glyph name="Nukta1.kn" format="2">
  <unicode hex="0CBC"/>
  <anchor x="0" y="0" name="_nukta"/>
  <outline>
    <contour>
      <point x="-200" y="-150" type="curve" smooth="yes"/>
      <point x="-224" y="-150"/>
      <point x="-234" y="-169"/>
      <point x="-234" y="-213" type="curve" smooth="yes"/>
      <point x="-234" y="-258"/>
      <point x="-224" y="-275"/>
      <point x="-200" y="-275" type="curve" smooth="yes"/>
      <point x="-177" y="-275"/>
      <point x="-165" y="-258"/>
      <point x="-165" y="-213" type="curve" smooth="yes"/>
      <point x="-165" y="-169"/>
      <point x="-177" y="-150"/>
    </contour>
    <contour>
      <point x="201" y="-150" type="curve" smooth="yes"/>
      <point x="178" y="-150"/>
      <point x="166" y="-169"/>
      <point x="166" y="-213" type="curve" smooth="yes"/>
      <point x="166" y="-258"/>
      <point x="178" y="-275"/>
      <point x="201" y="-275" type="curve" smooth="yes"/>
      <point x="225" y="-275"/>
      <point x="235" y="-258"/>
      <point x="235" y="-213" type="curve" smooth="yes"/>
      <point x="235" y="-169"/>
      <point x="225" y="-150"/>
    </contour>
  </outline>
</glyph>
<glyph name="Avagraha" format="2">
  <advance width="829"/>
  <unicode hex="0CBD"/>
  <outline>
    <contour>
      <point x="696" y="1150" type="line"/>
      <point x="344" y="1150" type="line" smooth="yes"/>
      <point x="176" y="1150"/>
      <point x="89" y="1078"/>
      <point x="89" y="936" type="curve" smooth="yes"/>
      <point x="89" y="931" type="line" smooth="yes"/>
      <point x="89" y="595"/>
      <point x="683" y="643"/>
      <point x="683" y="268" type="curve" smooth="yes"/>
      <point x="683" y="256" type="line" smooth="yes"/>
      <point x="683" y="95"/>
      <point x="592" y="12"/>
      <point x="408" y="12" type="curve" smooth="yes"/>
      <point x="286" y="12"/>
      <point x="178" y="47"/>
      <point x="83" y="110" type="curve"/>
      <point x="91" y="66" type="line"/>
      <point x="175" y="11"/>
      <point x="290" y="-22"/>
      <point x="409" y="-22" type="curve" smooth="yes"/>
      <point x="615" y="-22"/>
      <point x="719" y="74"/>
      <point x="719" y="256" type="curve" smooth="yes"/>
      <point x="719" y="268" type="line" smooth="yes"/>
      <point x="719" y="668"/>
      <point x="125" y="619"/>
      <point x="125" y="932" type="curve" smooth="yes"/>
      <point x="125" y="936" type="line" smooth="yes"/>
      <point x="125" y="1058"/>
      <point x="198" y="1118"/>
      <point x="346" y="1118" type="curve" smooth="yes"/>
      <point x="696" y="1118" type="line"/>
    </contour>
  </outline>
  <guideline angle="90" x="909" y="0"/>
  <guideline angle="0" x="0" y="1331"/>
</glyph>
<glyph name="matraU.kn" format="2">
  <advance width="617"/>
  <unicode hex="0CC1"/>
  <outline>
    <contour>
      <point x="122" y="1165" type="curve" smooth="yes"/>
      <point x="110" y="1165"/>
      <point x="98" y="1165"/>
      <point x="82" y="1164" type="curve"/>
      <point x="82" y="1130" type="line"/>
      <point x="97" y="1131"/>
      <point x="111" y="1131"/>
      <point x="121" y="1131" type="curve" smooth="yes"/>
      <point x="329" y="1131"/>
      <point x="432" y="997"/>
      <point x="432" y="685" type="curve" smooth="yes"/>
      <point x="432" y="414" type="line" smooth="yes"/>
      <point x="432" y="137"/>
      <point x="334" y="12"/>
      <point x="133" y="12" type="curve" smooth="yes"/>
      <point x="-58" y="12"/>
      <point x="-164" y="120"/>
      <point x="-164" y="332" type="curve" smooth="yes"/>
      <point x="-164" y="346" type="line"/>
      <point x="-188" y="346" type="line"/>
      <point x="-188" y="290" type="line"/>
      <point x="-180" y="96"/>
      <point x="-71" y="-22"/>
      <point x="134" y="-22" type="curve" smooth="yes"/>
      <point x="358" y="-22"/>
      <point x="468" y="119"/>
      <point x="468" y="415" type="curve" smooth="yes"/>
      <point x="468" y="685" type="line" smooth="yes"/>
      <point x="468" y="1018"/>
      <point x="352" y="1165"/>
    </contour>
  </outline>
</glyph>
<glyph name="matraRu.kn" format="2">
  <advance width="77"/>
  <unicode hex="0CC3"/>
  <outline>
    <contour>
      <point x="-428" y="-412" type="line"/>
      <point x="-428" y="-430" type="line" smooth="yes"/>
      <point x="-428" y="-627"/>
      <point x="-322" y="-735"/>
      <point x="-134" y="-735" type="curve" smooth="yes"/>
      <point x="71" y="-735"/>
      <point x="161" y="-622"/>
      <point x="161" y="-410" type="curve" smooth="yes"/>
      <point x="161" y="-320" type="line" smooth="yes"/>
      <point x="161" y="-121"/>
      <point x="120" y="25"/>
      <point x="32" y="151" type="curve"/>
      <point x="-5" y="151" type="line"/>
      <point x="90" y="1"/>
      <point x="127" y="-122"/>
      <point x="127" y="-320" type="curve" smooth="yes"/>
      <point x="127" y="-409" type="line" smooth="yes"/>
      <point x="127" y="-601"/>
      <point x="52" y="-703"/>
      <point x="-134" y="-703" type="curve" smooth="yes"/>
      <point x="-303" y="-703"/>
      <point x="-394" y="-608"/>
      <point x="-394" y="-429" type="curve" smooth="yes"/>
      <point x="-394" y="-416" type="line"/>
    </contour>
    <contour>
      <point x="-254" y="-153" type="curve" smooth="yes"/>
      <point x="-371" y="-153"/>
      <point x="-428" y="-223"/>
      <point x="-428" y="-348" type="curve" smooth="yes"/>
      <point x="-428" y="-412" type="line"/>
      <point x="-394" y="-417" type="line"/>
      <point x="-394" y="-349" type="line" smooth="yes"/>
      <point x="-394" y="-243"/>
      <point x="-349" y="-185"/>
      <point x="-254" y="-185" type="curve" smooth="yes"/>
      <point x="-169" y="-185"/>
      <point x="-125" y="-236"/>
      <point x="-125" y="-331" type="curve" smooth="yes"/>
      <point x="-125" y="-345" type="line" smooth="yes"/>
      <point x="-125" y="-436"/>
      <point x="-171" y="-474"/>
      <point x="-246" y="-474" type="curve" smooth="yes"/>
      <point x="-323" y="-474"/>
      <point x="-373" y="-437"/>
      <point x="-399" y="-373" type="curve"/>
      <point x="-409" y="-431" type="line"/>
      <point x="-393" y="-431" type="line"/>
      <point x="-366" y="-477"/>
      <point x="-314" y="-506"/>
      <point x="-244" y="-506" type="curve" smooth="yes"/>
      <point x="-145" y="-506"/>
      <point x="-91" y="-453"/>
      <point x="-91" y="-345" type="curve" smooth="yes"/>
      <point x="-91" y="-330" type="line" smooth="yes"/>
      <point x="-91" y="-215"/>
      <point x="-148" y="-153"/>
    </contour>
  </outline>
</glyph>
<glyph name="matraRuu.kn" format="2">
  <advance width="553"/>
  <unicode hex="0CC4"/>
  <outline>
    <contour>
      <point x="-3" y="148" type="line"/>
      <point x="90" y="-1"/>
      <point x="127" y="-123"/>
      <point x="127" y="-320" type="curve" smooth="yes"/>
      <point x="127" y="-409" type="line" smooth="yes"/>
      <point x="127" y="-601"/>
      <point x="52" y="-703"/>
      <point x="-134" y="-703" type="curve" smooth="yes"/>
      <point x="-303" y="-703"/>
      <point x="-394" y="-608"/>
      <point x="-394" y="-429" type="curve" smooth="yes"/>
      <point x="-394" y="-416" type="line"/>
      <point x="-428" y="-412" type="line"/>
      <point x="-428" y="-430" type="line" smooth="yes"/>
      <point x="-428" y="-627"/>
      <point x="-322" y="-735"/>
      <point x="-134" y="-735" type="curve" smooth="yes"/>
      <point x="71" y="-735"/>
      <point x="161" y="-622"/>
      <point x="161" y="-410" type="curve" smooth="yes"/>
      <point x="161" y="-320" type="line" smooth="yes"/>
      <point x="161" y="-121"/>
      <point x="119" y="24"/>
      <point x="30" y="151" type="curve"/>
      <point x="-2" y="151" type="line"/>
    </contour>
    <contour>
      <point x="618" y="-151" type="line"/>
      <point x="618" y="-127" type="line" smooth="yes"/>
      <point x="618" y="56"/>
      <point x="530" y="151"/>
      <point x="350" y="151" type="curve" smooth="yes"/>
      <point x="14" y="151" type="line"/>
      <point x="26" y="119" type="line"/>
      <point x="350" y="119" type="line" smooth="yes"/>
      <point x="508" y="119"/>
      <point x="584" y="35"/>
      <point x="584" y="-128" type="curve" smooth="yes"/>
      <point x="584" y="-153" type="line"/>
    </contour>
    <contour>
      <point x="584" y="-150" type="line"/>
      <point x="584" y="-225" type="line" smooth="yes"/>
      <point x="584" y="-333"/>
      <point x="542" y="-390"/>
      <point x="454" y="-390" type="curve" smooth="yes"/>
      <point x="368" y="-390"/>
      <point x="324" y="-344"/>
      <point x="324" y="-254" type="curve" smooth="yes"/>
      <point x="324" y="-236" type="line" smooth="yes"/>
      <point x="324" y="-147"/>
      <point x="370" y="-106"/>
      <point x="447" y="-106" type="curve" smooth="yes"/>
      <point x="517" y="-106"/>
      <point x="564" y="-139"/>
      <point x="590" y="-195" type="curve"/>
      <point x="601" y="-140" type="line"/>
      <point x="583" y="-140" type="line"/>
      <point x="556" y="-99"/>
      <point x="508" y="-74"/>
      <point x="444" y="-74" type="curve" smooth="yes"/>
      <point x="345" y="-74"/>
      <point x="290" y="-129"/>
      <point x="290" y="-236" type="curve" smooth="yes"/>
      <point x="290" y="-255" type="line" smooth="yes"/>
      <point x="290" y="-365"/>
      <point x="347" y="-422"/>
      <point x="454" y="-422" type="curve" smooth="yes"/>
      <point x="562" y="-422"/>
      <point x="618" y="-358"/>
      <point x="618" y="-224" type="curve" smooth="yes"/>
      <point x="618" y="-148" type="line"/>
    </contour>
    <contour>
      <point x="-254" y="-153" type="curve" smooth="yes"/>
      <point x="-371" y="-153"/>
      <point x="-428" y="-223"/>
      <point x="-428" y="-348" type="curve" smooth="yes"/>
      <point x="-428" y="-412" type="line"/>
      <point x="-394" y="-417" type="line"/>
      <point x="-394" y="-349" type="line" smooth="yes"/>
      <point x="-394" y="-243"/>
      <point x="-349" y="-185"/>
      <point x="-254" y="-185" type="curve" smooth="yes"/>
      <point x="-169" y="-185"/>
      <point x="-125" y="-236"/>
      <point x="-125" y="-331" type="curve" smooth="yes"/>
      <point x="-125" y="-345" type="line" smooth="yes"/>
      <point x="-125" y="-436"/>
      <point x="-171" y="-474"/>
      <point x="-246" y="-474" type="curve" smooth="yes"/>
      <point x="-323" y="-474"/>
      <point x="-373" y="-437"/>
      <point x="-399" y="-373" type="curve"/>
      <point x="-409" y="-431" type="line"/>
      <point x="-393" y="-431" type="line"/>
      <point x="-366" y="-477"/>
      <point x="-314" y="-506"/>
      <point x="-244" y="-506" type="curve" smooth="yes"/>
      <point x="-145" y="-506"/>
      <point x="-91" y="-453"/>
      <point x="-91" y="-345" type="curve" smooth="yes"/>
      <point x="-91" y="-330" type="line" smooth="yes"/>
      <point x="-91" y="-215"/>
      <point x="-148" y="-153"/>
    </contour>
  </outline>
</glyph>
<glyph name="matraAu.kn" format="2">
  <advance width="1286"/>
  <unicode hex="0CCC"/>
  <outline>
    <contour>
      <point x="311" y="1118" type="line" smooth="yes"/>
      <point x="453" y="1118"/>
      <point x="524" y="1187"/>
      <point x="524" y="1321" type="curve" smooth="yes"/>
      <point x="524" y="1330" type="line" smooth="yes"/>
      <point x="524" y="1425"/>
      <point x="484" y="1486"/>
      <point x="416" y="1503" type="curve"/>
      <point x="416" y="1518" type="line"/>
      <point x="309" y="1518" type="line"/>
      <point x="309" y="1504" type="line"/>
      <point x="428" y="1504"/>
      <point x="488" y="1447"/>
      <point x="488" y="1330" type="curve" smooth="yes"/>
      <point x="488" y="1322" type="line" smooth="yes"/>
      <point x="488" y="1208"/>
      <point x="426" y="1150"/>
      <point x="306" y="1150" type="curve" smooth="yes"/>
      <point x="193" y="1150" type="line"/>
      <point x="193" y="1118" type="line"/>
    </contour>
    <contour>
      <point x="959" y="538" type="curve" smooth="yes"/>
      <point x="1134" y="538"/>
      <point x="1214" y="637"/>
      <point x="1214" y="878" type="curve" smooth="yes"/>
      <point x="1214" y="1010" type="line"/>
      <point x="1178" y="1010" type="line"/>
      <point x="1178" y="878" type="line" smooth="yes"/>
      <point x="1178" y="660"/>
      <point x="1110" y="572"/>
      <point x="958" y="572" type="curve" smooth="yes"/>
      <point x="811" y="572"/>
      <point x="739" y="656"/>
      <point x="739" y="820" type="curve" smooth="yes"/>
      <point x="739" y="860" type="line" smooth="yes"/>
      <point x="739" y="1032"/>
      <point x="812" y="1109"/>
      <point x="951" y="1109" type="curve" smooth="yes"/>
      <point x="1069" y="1109"/>
      <point x="1147" y="1051"/>
      <point x="1187" y="955" type="curve"/>
      <point x="1189" y="1025" type="line"/>
      <point x="1177" y="1025" type="line"/>
      <point x="1140" y="1093"/>
      <point x="1062" y="1143"/>
      <point x="951" y="1143" type="curve" smooth="yes"/>
      <point x="786" y="1143"/>
      <point x="704" y="1049"/>
      <point x="704" y="860" type="curve" smooth="yes"/>
      <point x="704" y="819" type="line" smooth="yes"/>
      <point x="704" y="634"/>
      <point x="791" y="538"/>
    </contour>
    <contour>
      <point x="1215" y="1008" type="line"/>
      <point x="1215" y="1056" type="line" smooth="yes"/>
      <point x="1215" y="1388"/>
      <point x="1060" y="1536"/>
      <point x="738" y="1536" type="curve" smooth="yes"/>
      <point x="45" y="1536" type="line"/>
      <point x="45" y="1504" type="line"/>
      <point x="738" y="1504" type="line" smooth="yes"/>
      <point x="1034" y="1504"/>
      <point x="1179" y="1370"/>
      <point x="1179" y="1056" type="curve" smooth="yes"/>
      <point x="1179" y="1007" type="line"/>
    </contour>
  </outline>
</glyph>
<glyph name="Halant.kn" format="2">
  <advance width="549"/>
  <unicode hex="0CCD"/>
  <outline>
    <contour>
      <point x="28" y="1098" type="line"/>
      <point x="28" y="1137" type="line" smooth="yes"/>
      <point x="28" y="1358"/>
      <point x="97" y="1464"/>
      <point x="269" y="1464" type="curve" smooth="yes"/>
      <point x="339" y="1464"/>
      <point x="406" y="1444"/>
      <point x="458" y="1410" type="curve"/>
      <point x="452" y="1449" type="line"/>
      <point x="402" y="1480"/>
      <point x="341" y="1498"/>
      <point x="266" y="1498" type="curve" smooth="yes"/>
      <point x="76" y="1498"/>
      <point x="-8" y="1378"/>
      <point x="-8" y="1138" type="curve" smooth="yes"/>
      <point x="-8" y="1098" type="line"/>
    </contour>
    <contour>
      <point x="241" y="612" type="curve" smooth="yes"/>
      <point x="400" y="612"/>
      <point x="479" y="703"/>
      <point x="479" y="871" type="curve" smooth="yes"/>
      <point x="479" y="885" type="line" smooth="yes"/>
      <point x="479" y="1071"/>
      <point x="401" y="1150"/>
      <point x="215" y="1150" type="curve" smooth="yes"/>
      <point x="-543" y="1150" type="line"/>
      <point x="-543" y="1118" type="line"/>
      <point x="5" y="1118" type="line"/>
      <point x="15" y="1118" type="line"/>
      <point x="213" y="1118" type="line" smooth="yes"/>
      <point x="377" y="1118"/>
      <point x="443" y="1049"/>
      <point x="443" y="884" type="curve" smooth="yes"/>
      <point x="443" y="871" type="line" smooth="yes"/>
      <point x="443" y="725"/>
      <point x="376" y="646"/>
      <point x="241" y="646" type="curve" smooth="yes"/>
      <point x="93" y="646"/>
      <point x="28" y="734"/>
      <point x="28" y="925" type="curve" smooth="yes"/>
      <point x="28" y="1102" type="line"/>
      <point x="-8" y="1102" type="line"/>
      <point x="-8" y="923" type="line" smooth="yes"/>
      <point x="-8" y="712"/>
      <point x="72" y="612"/>
    </contour>
  </outline>
  <guideline angle="0" x="0" y="1808"/>
</glyph>
<glyph name="matraAiLengthmark.kn" format="2">
  <advance width="73"/>
  <unicode hex="0CD6"/>
  <outline>
    <contour>
      <point x="-466" y="-427" type="line"/>
      <point x="-500" y="-430" type="line"/>
      <point x="-500" y="-451" type="line" smooth="yes"/>
      <point x="-500" y="-636"/>
      <point x="-392" y="-735"/>
      <point x="-196" y="-735" type="curve" smooth="yes"/>
      <point x="3" y="-735"/>
      <point x="101" y="-630"/>
      <point x="101" y="-444" type="curve" smooth="yes"/>
      <point x="101" y="-401" type="line" smooth="yes"/>
      <point x="101" y="-263"/>
      <point x="51" y="-175"/>
      <point x="-43" y="-155" type="curve"/>
      <point x="-153" y="-144" type="line"/>
      <point x="-153" y="-168" type="line"/>
      <point x="-107" y="-169" type="line" smooth="yes"/>
      <point x="6" y="-171"/>
      <point x="67" y="-248"/>
      <point x="67" y="-399" type="curve" smooth="yes"/>
      <point x="67" y="-443" type="line" smooth="yes"/>
      <point x="67" y="-609"/>
      <point x="-16" y="-703"/>
      <point x="-195" y="-703" type="curve" smooth="yes"/>
      <point x="-372" y="-703"/>
      <point x="-466" y="-615"/>
      <point x="-466" y="-450" type="curve" smooth="yes"/>
    </contour>
    <contour>
      <point x="-43" y="-155" type="line"/>
      <point x="42" y="-144"/>
      <point x="86" y="-93"/>
      <point x="86" y="-5" type="curve" smooth="yes"/>
      <point x="86" y="55"/>
      <point x="70" y="105"/>
      <point x="42" y="151" type="curve"/>
      <point x="8" y="151" type="line"/>
      <point x="35" y="104"/>
      <point x="52" y="55"/>
      <point x="52" y="-4" type="curve" smooth="yes"/>
      <point x="52" y="-91"/>
      <point x="3" y="-134"/>
      <point x="-90" y="-135" type="curve" smooth="yes"/>
      <point x="-153" y="-136" type="line"/>
      <point x="-153" y="-161" type="line"/>
      <point x="-43" y="-161" type="line"/>
    </contour>
    <contour>
      <point x="-326" y="-208" type="curve" smooth="yes"/>
      <point x="-443" y="-208"/>
      <point x="-500" y="-277"/>
      <point x="-500" y="-400" type="curve" smooth="yes"/>
      <point x="-500" y="-432" type="line"/>
      <point x="-466" y="-437" type="line"/>
      <point x="-466" y="-401" type="line" smooth="yes"/>
      <point x="-466" y="-297"/>
      <point x="-421" y="-240"/>
      <point x="-326" y="-240" type="curve" smooth="yes"/>
      <point x="-241" y="-240"/>
      <point x="-197" y="-289"/>
      <point x="-197" y="-379" type="curve" smooth="yes"/>
      <point x="-197" y="-386" type="line" smooth="yes"/>
      <point x="-197" y="-473"/>
      <point x="-243" y="-509"/>
      <point x="-318" y="-509" type="curve" smooth="yes"/>
      <point x="-394" y="-509"/>
      <point x="-444" y="-473"/>
      <point x="-470" y="-412" type="curve"/>
      <point x="-481" y="-467" type="line"/>
      <point x="-465" y="-467" type="line"/>
      <point x="-438" y="-512"/>
      <point x="-386" y="-541"/>
      <point x="-316" y="-541" type="curve" smooth="yes"/>
      <point x="-217" y="-541"/>
      <point x="-163" y="-490"/>
      <point x="-163" y="-386" type="curve" smooth="yes"/>
      <point x="-163" y="-378" type="line" smooth="yes"/>
      <point x="-163" y="-268"/>
      <point x="-220" y="-208"/>
    </contour>
  </outline>
</glyph>
<glyph name="LllaObsolete.kn" format="2">
  <advance width="1610"/>
  <unicode hex="0CDE"/>
  <outline>
    <contour>
      <point x="150" y="683" type="line"/>
      <point x="150" y="417" type="line" smooth="yes"/>
      <point x="150" y="110"/>
      <point x="263" y="-22"/>
      <point x="495" y="-22" type="curve" smooth="yes"/>
      <point x="691" y="-22"/>
      <point x="791" y="79"/>
      <point x="804" y="245" type="curve"/>
      <point x="806" y="245" type="line"/>
      <point x="819" y="79"/>
      <point x="919" y="-22"/>
      <point x="1115" y="-22" type="curve" smooth="yes"/>
      <point x="1347" y="-22"/>
      <point x="1460" y="109"/>
      <point x="1460" y="416" type="curve" smooth="yes"/>
      <point x="1460" y="682" type="line"/>
      <point x="1424" y="680" type="line"/>
      <point x="1424" y="416" type="line" smooth="yes"/>
      <point x="1424" y="127.998"/>
      <point x="1324" y="12"/>
      <point x="1114" y="12" type="curve" smooth="yes"/>
      <point x="921" y="12"/>
      <point x="828" y="114"/>
      <point x="824" y="332" type="curve" smooth="yes"/>
      <point x="822" y="431" type="line"/>
      <point x="788" y="431" type="line"/>
      <point x="786" y="332" type="line" smooth="yes"/>
      <point x="782" y="114"/>
      <point x="689" y="12"/>
      <point x="496" y="12" type="curve" smooth="yes"/>
      <point x="286" y="12"/>
      <point x="186" y="127.998"/>
      <point x="186" y="416" type="curve" smooth="yes"/>
      <point x="186" y="681" type="line"/>
    </contour>
    <contour>
      <point x="437" y="1177" type="curve" smooth="yes"/>
      <point x="240" y="1177"/>
      <point x="150" y="1061"/>
      <point x="150" y="782" type="curve" smooth="yes"/>
      <point x="150" y="678" type="line"/>
      <point x="186" y="678" type="line"/>
      <point x="186" y="782" type="line" smooth="yes"/>
      <point x="186" y="1039"/>
      <point x="262" y="1143"/>
      <point x="436" y="1143" type="curve" smooth="yes"/>
      <point x="592" y="1143"/>
      <point x="669" y="1050"/>
      <point x="669" y="869" type="curve" smooth="yes"/>
      <point x="669" y="817" type="line" smooth="yes"/>
      <point x="669" y="635"/>
      <point x="594" y="553"/>
      <point x="457" y="553" type="curve" smooth="yes"/>
      <point x="317" y="553"/>
      <point x="224" y="620"/>
      <point x="177" y="733" type="curve"/>
      <point x="177" y="663" type="line"/>
      <point x="187" y="663" type="line"/>
      <point x="231" y="579"/>
      <point x="324" y="519"/>
      <point x="457" y="519" type="curve" smooth="yes"/>
      <point x="620" y="519"/>
      <point x="705" y="618"/>
      <point x="705" y="817" type="curve" smooth="yes"/>
      <point x="705" y="870" type="line" smooth="yes"/>
      <point x="705" y="1072"/>
      <point x="613" y="1177"/>
    </contour>
    <contour>
      <point x="1173" y="1177" type="curve" smooth="yes"/>
      <point x="997" y="1177"/>
      <point x="905" y="1072"/>
      <point x="905" y="870" type="curve" smooth="yes"/>
      <point x="905" y="817" type="line" smooth="yes"/>
      <point x="905" y="618"/>
      <point x="993" y="519"/>
      <point x="1163" y="519" type="curve" smooth="yes"/>
      <point x="1291" y="519"/>
      <point x="1380" y="579"/>
      <point x="1423" y="663" type="curve"/>
      <point x="1435" y="663" type="line"/>
      <point x="1433" y="733" type="line"/>
      <point x="1387" y="620"/>
      <point x="1298" y="553"/>
      <point x="1163" y="553" type="curve" smooth="yes"/>
      <point x="1019" y="553"/>
      <point x="941" y="635"/>
      <point x="941" y="817" type="curve" smooth="yes"/>
      <point x="941" y="869" type="line" smooth="yes"/>
      <point x="941" y="1050"/>
      <point x="1018" y="1143"/>
      <point x="1174" y="1143" type="curve" smooth="yes"/>
      <point x="1348" y="1143"/>
      <point x="1424" y="1039"/>
      <point x="1424" y="782" type="curve" smooth="yes"/>
      <point x="1424" y="678" type="line"/>
      <point x="1460" y="678" type="line"/>
      <point x="1460" y="782" type="line" smooth="yes"/>
      <point x="1460" y="1061"/>
      <point x="1370" y="1177"/>
    </contour>
  </outline>
</glyph>
<glyph name="vowelLruu.kn" format="2">
  <advance width="1396"/>
  <unicode hex="0CE1"/>
  <outline>
    <contour>
      <point x="694" y="-70" type="line"/>
      <point x="680" y="-70" type="line"/>
      <point x="656" y="7"/>
      <point x="581" y="55"/>
      <point x="466" y="55" type="curve" smooth="yes"/>
      <point x="309" y="55"/>
      <point x="222" y="-25"/>
      <point x="222" y="-186" type="curve" smooth="yes"/>
      <point x="222" y="-203" type="line" smooth="yes"/>
      <point x="222" y="-365"/>
      <point x="308" y="-444"/>
      <point x="466" y="-444" type="curve" smooth="yes"/>
      <point x="573" y="-444"/>
      <point x="651" y="-395"/>
      <point x="680" y="-332" type="curve"/>
      <point x="696" y="-332" type="line"/>
      <point x="688" y="-261" type="line"/>
      <point x="661" y="-360"/>
      <point x="568" y="-411"/>
      <point x="468" y="-411" type="curve" smooth="yes"/>
      <point x="330" y="-411"/>
      <point x="258" y="-343"/>
      <point x="258" y="-203" type="curve" smooth="yes"/>
      <point x="258" y="-186" type="line" smooth="yes"/>
      <point x="258" y="-46"/>
      <point x="330" y="22"/>
      <point x="468" y="22" type="curve" smooth="yes"/>
      <point x="603" y="22"/>
      <point x="681" y="-51"/>
      <point x="681" y="-176" type="curve"/>
    </contour>
    <contour>
      <point x="680" y="1150" type="line"/>
      <point x="680" y="795" type="line" smooth="yes"/>
      <point x="680" y="726"/>
      <point x="681" y="673"/>
      <point x="683" y="618" type="curve"/>
      <point x="682" y="618" type="line"/>
      <point x="651" y="729"/>
      <point x="557" y="792"/>
      <point x="423" y="792" type="curve" smooth="yes"/>
      <point x="231" y="792"/>
      <point x="130" y="682"/>
      <point x="130" y="462" type="curve" smooth="yes"/>
      <point x="130" y="423" type="line" smooth="yes"/>
      <point x="130" y="304"/>
      <point x="158" y="212"/>
      <point x="205" y="139" type="curve"/>
      <point x="246" y="139" type="line"/>
      <point x="196" y="212"/>
      <point x="166" y="304"/>
      <point x="166" y="423" type="curve" smooth="yes"/>
      <point x="166" y="462" type="line" smooth="yes"/>
      <point x="166" y="659"/>
      <point x="252" y="758"/>
      <point x="425" y="758" type="curve" smooth="yes"/>
      <point x="587" y="758"/>
      <point x="680" y="652"/>
      <point x="680" y="474" type="curve" smooth="yes"/>
      <point x="681" y="-550" type="line"/>
      <point x="715" y="-550" type="line"/>
      <point x="716" y="476" type="line" smooth="yes"/>
      <point x="716" y="654"/>
      <point x="809" y="758"/>
      <point x="971" y="758" type="curve" smooth="yes"/>
      <point x="1144" y="758"/>
      <point x="1230" y="659"/>
      <point x="1230" y="462" type="curve" smooth="yes"/>
      <point x="1230" y="423" type="line" smooth="yes"/>
      <point x="1230" y="304"/>
      <point x="1200" y="212"/>
      <point x="1150" y="139" type="curve"/>
      <point x="1191" y="139" type="line"/>
      <point x="1238" y="212"/>
      <point x="1266" y="304"/>
      <point x="1266" y="423" type="curve" smooth="yes"/>
      <point x="1266" y="462" type="line" smooth="yes"/>
      <point x="1266" y="682"/>
      <point x="1166" y="792"/>
      <point x="973" y="792" type="curve" smooth="yes"/>
      <point x="839" y="792"/>
      <point x="745" y="729"/>
      <point x="714" y="618" type="curve"/>
      <point x="713" y="618" type="line"/>
      <point x="715" y="674"/>
      <point x="716" y="726"/>
      <point x="716" y="795" type="curve" smooth="yes"/>
      <point x="716" y="1150" type="line"/>
    </contour>
  </outline>
  <guideline angle="0" x="0" y="1519"/>
</glyph>
<glyph name="matraLru.kn" format="2">
  <unicode hex="0CE2"/>
  <outline>
    <contour>
      <point x="-304" y="-128" type="line"/>
      <point x="-304" y="-272" type="line" smooth="yes"/>
      <point x="-304" y="-314"/>
      <point x="-303" y="-346"/>
      <point x="-300" y="-388" type="curve"/>
      <point x="-301" y="-388" type="line"/>
      <point x="-320" y="-332"/>
      <point x="-369" y="-298"/>
      <point x="-443" y="-298" type="curve" smooth="yes"/>
      <point x="-556" y="-298"/>
      <point x="-617" y="-365"/>
      <point x="-617" y="-486" type="curve" smooth="yes"/>
      <point x="-617" y="-502" type="line" smooth="yes"/>
      <point x="-617" y="-587"/>
      <point x="-598" y="-647"/>
      <point x="-566" y="-692" type="curve"/>
      <point x="-529" y="-692" type="line"/>
      <point x="-563" y="-642"/>
      <point x="-583" y="-587"/>
      <point x="-583" y="-503" type="curve" smooth="yes"/>
      <point x="-583" y="-486" type="line" smooth="yes"/>
      <point x="-583" y="-384"/>
      <point x="-535" y="-330"/>
      <point x="-441" y="-330" type="curve" smooth="yes"/>
      <point x="-352" y="-330"/>
      <point x="-306" y="-384"/>
      <point x="-305" y="-485" type="curve" smooth="yes"/>
      <point x="-303" y="-688" type="line"/>
      <point x="-273" y="-688" type="line"/>
      <point x="-271" y="-485" type="line" smooth="yes"/>
      <point x="-270" y="-384"/>
      <point x="-224" y="-330"/>
      <point x="-135" y="-330" type="curve" smooth="yes"/>
      <point x="-42" y="-330"/>
      <point x="7" y="-384"/>
      <point x="7" y="-486" type="curve" smooth="yes"/>
      <point x="7" y="-502" type="line" smooth="yes"/>
      <point x="7" y="-586"/>
      <point x="-13" y="-642"/>
      <point x="-47" y="-692" type="curve"/>
      <point x="-10" y="-692" type="line"/>
      <point x="22" y="-647"/>
      <point x="41" y="-586"/>
      <point x="41" y="-501" type="curve" smooth="yes"/>
      <point x="41" y="-486" type="line" smooth="yes"/>
      <point x="41" y="-365"/>
      <point x="-21" y="-298"/>
      <point x="-133" y="-298" type="curve" smooth="yes"/>
      <point x="-207" y="-298"/>
      <point x="-256" y="-332"/>
      <point x="-275" y="-388" type="curve"/>
      <point x="-276" y="-388" type="line"/>
      <point x="-273" y="-346"/>
      <point x="-271" y="-314"/>
      <point x="-271" y="-272" type="curve" smooth="yes"/>
      <point x="-271" y="-128" type="line"/>
    </contour>
  </outline>
</glyph>
<glyph name="matraLruu.kn" format="2">
  <unicode hex="0CE3"/>
  <outline>
    <contour>
      <point x="-427" y="-584" type="curve" smooth="yes"/>
      <point x="-523" y="-584"/>
      <point x="-576" y="-631"/>
      <point x="-576" y="-715" type="curve" smooth="yes"/>
      <point x="-576" y="-720" type="line" smooth="yes"/>
      <point x="-576" y="-806"/>
      <point x="-523" y="-850"/>
      <point x="-427" y="-850" type="curve" smooth="yes"/>
      <point x="-368" y="-850"/>
      <point x="-321" y="-824"/>
      <point x="-304" y="-788" type="curve"/>
      <point x="-288" y="-788" type="line"/>
      <point x="-297" y="-733" type="line"/>
      <point x="-313" y="-789"/>
      <point x="-368" y="-820"/>
      <point x="-426" y="-820" type="curve" smooth="yes"/>
      <point x="-502" y="-820"/>
      <point x="-544" y="-785"/>
      <point x="-544" y="-720" type="curve" smooth="yes"/>
      <point x="-544" y="-715" type="line" smooth="yes"/>
      <point x="-544" y="-649"/>
      <point x="-501" y="-614"/>
      <point x="-424" y="-614" type="curve" smooth="yes"/>
      <point x="-348" y="-614"/>
      <point x="-303" y="-651"/>
      <point x="-303" y="-714" type="curve"/>
      <point x="-291" y="-646" type="line"/>
      <point x="-304" y="-646" type="line"/>
      <point x="-318" y="-608"/>
      <point x="-362" y="-584"/>
    </contour>
    <contour>
      <point x="-304" y="-128" type="line"/>
      <point x="-304" y="-252" type="line" smooth="yes"/>
      <point x="-304" y="-292"/>
      <point x="-303" y="-323"/>
      <point x="-300" y="-364" type="curve"/>
      <point x="-301" y="-364" type="line"/>
      <point x="-320" y="-310"/>
      <point x="-370" y="-278"/>
      <point x="-446" y="-278" type="curve" smooth="yes"/>
      <point x="-557" y="-278"/>
      <point x="-617" y="-338"/>
      <point x="-617" y="-446" type="curve" smooth="yes"/>
      <point x="-617" y="-454" type="line" smooth="yes"/>
      <point x="-617" y="-496"/>
      <point x="-612" y="-531"/>
      <point x="-600" y="-562" type="curve"/>
      <point x="-565" y="-562" type="line"/>
      <point x="-577" y="-531"/>
      <point x="-583" y="-497"/>
      <point x="-583" y="-455" type="curve" smooth="yes"/>
      <point x="-583" y="-447" type="line" smooth="yes"/>
      <point x="-583" y="-357"/>
      <point x="-536" y="-310"/>
      <point x="-444" y="-310" type="curve" smooth="yes"/>
      <point x="-353" y="-310"/>
      <point x="-306" y="-361"/>
      <point x="-305" y="-457" type="curve" smooth="yes"/>
      <point x="-302" y="-898" type="line"/>
      <point x="-273" y="-898" type="line"/>
      <point x="-271" y="-457" type="line" smooth="yes"/>
      <point x="-271" y="-361"/>
      <point x="-223" y="-310"/>
      <point x="-132" y="-310" type="curve" smooth="yes"/>
      <point x="-41" y="-310"/>
      <point x="7" y="-357"/>
      <point x="7" y="-447" type="curve" smooth="yes"/>
      <point x="7" y="-455" type="line" smooth="yes"/>
      <point x="7" y="-497"/>
      <point x="1" y="-531"/>
      <point x="-11" y="-562" type="curve"/>
      <point x="24" y="-562" type="line"/>
      <point x="36" y="-531"/>
      <point x="41" y="-496"/>
      <point x="41" y="-454" type="curve" smooth="yes"/>
      <point x="41" y="-446" type="line" smooth="yes"/>
      <point x="41" y="-338"/>
      <point x="-20" y="-278"/>
      <point x="-130" y="-278" type="curve" smooth="yes"/>
      <point x="-206" y="-278"/>
      <point x="-256" y="-310"/>
      <point x="-275" y="-364" type="curve"/>
      <point x="-276" y="-364" type="line"/>
      <point x="-273" y="-323"/>
      <point x="-271" y="-292"/>
      <point x="-271" y="-252" type="curve" smooth="yes"/>
      <point x="-271" y="-128" type="line"/>
    </contour>
  </outline>
  <guideline angle="0" x="0" y="-452"/>
</glyph>
<glyph name="Shunya.kn" format="2">
  <advance width="1188"/>
  <unicode hex="0CE6"/>
  <outline>
    <contour>
      <point x="185" y="583" type="line"/>
      <point x="185" y="694" type="line" smooth="yes"/>
      <point x="185" y="993"/>
      <point x="323" y="1143"/>
      <point x="593" y="1143" type="curve" smooth="yes"/>
      <point x="864" y="1143"/>
      <point x="1003" y="993"/>
      <point x="1003" y="694" type="curve" smooth="yes"/>
      <point x="1003" y="583" type="line"/>
      <point x="1039" y="583" type="line"/>
      <point x="1039" y="694" type="line" smooth="yes"/>
      <point x="1039" y="1016"/>
      <point x="888" y="1177"/>
      <point x="593" y="1177" type="curve" smooth="yes"/>
      <point x="299" y="1177"/>
      <point x="149" y="1016"/>
      <point x="149" y="694" type="curve" smooth="yes"/>
      <point x="149" y="583" type="line"/>
    </contour>
    <contour>
      <point x="185" y="595" type="line"/>
      <point x="149" y="595" type="line"/>
      <point x="149" y="462" type="line" smooth="yes"/>
      <point x="149" y="140"/>
      <point x="301" y="-23"/>
      <point x="595" y="-23" type="curve" smooth="yes"/>
      <point x="889" y="-23"/>
      <point x="1039" y="140"/>
      <point x="1039" y="462" type="curve" smooth="yes"/>
      <point x="1039" y="595" type="line"/>
      <point x="1003" y="595" type="line"/>
      <point x="1003" y="462" type="line" smooth="yes"/>
      <point x="1003" y="163"/>
      <point x="866" y="11"/>
      <point x="595" y="11" type="curve" smooth="yes"/>
      <point x="324" y="11"/>
      <point x="185" y="163"/>
      <point x="185" y="462" type="curve" smooth="yes"/>
    </contour>
  </outline>
</glyph>
<glyph name="Ondu.kn" format="2">
  <advance width="1190"/>
  <unicode hex="0CE7"/>
  <outline>
    <contour>
      <point x="594" y="1177" type="curve" smooth="yes"/>
      <point x="300" y="1177"/>
      <point x="150" y="1018"/>
      <point x="150" y="700" type="curve" smooth="yes"/>
      <point x="150" y="485" type="line" smooth="yes"/>
      <point x="150" y="270"/>
      <point x="199" y="126"/>
      <point x="297" y="0" type="curve"/>
      <point x="339" y="0" type="line"/>
      <point x="237" y="126"/>
      <point x="186" y="269"/>
      <point x="186" y="484" type="curve" smooth="yes"/>
      <point x="186" y="700" type="line" smooth="yes"/>
      <point x="186" y="995"/>
      <point x="324" y="1143"/>
      <point x="594" y="1143" type="curve" smooth="yes"/>
      <point x="865" y="1143"/>
      <point x="1004" y="995"/>
      <point x="1004" y="700" type="curve" smooth="yes"/>
      <point x="1004" y="484" type="line" smooth="yes"/>
      <point x="1004" y="269"/>
      <point x="953" y="126"/>
      <point x="851" y="0" type="curve"/>
      <point x="893" y="0" type="line"/>
      <point x="991" y="126"/>
      <point x="1040" y="270"/>
      <point x="1040" y="485" type="curve" smooth="yes"/>
      <point x="1040" y="700" type="line" smooth="yes"/>
      <point x="1040" y="1018"/>
      <point x="889" y="1177"/>
    </contour>
  </outline>
</glyph>
<glyph name="Eradu.kn" format="2">
  <advance width="1329"/>
  <unicode hex="0CE8"/>
  <outline>
    <contour>
      <point x="324" y="739" type="line"/>
      <point x="324" y="644" type="line" smooth="yes"/>
      <point x="324" y="441"/>
      <point x="424" y="336"/>
      <point x="606" y="336" type="curve" smooth="yes"/>
      <point x="770" y="336"/>
      <point x="857" y="431"/>
      <point x="857" y="612" type="curve" smooth="yes"/>
      <point x="857" y="661" type="line" smooth="yes"/>
      <point x="857" y="837"/>
      <point x="773" y="926"/>
      <point x="613" y="926" type="curve" smooth="yes"/>
      <point x="489" y="926"/>
      <point x="402" y="865"/>
      <point x="361" y="777" type="curve"/>
      <point x="348" y="777" type="line"/>
      <point x="353" y="702" type="line"/>
      <point x="397" y="824"/>
      <point x="486" y="892"/>
      <point x="613" y="892" type="curve" smooth="yes"/>
      <point x="745" y="892"/>
      <point x="821" y="821"/>
      <point x="821" y="661" type="curve" smooth="yes"/>
      <point x="821" y="614" type="line" smooth="yes"/>
      <point x="821" y="455"/>
      <point x="748" y="370"/>
      <point x="606" y="370" type="curve" smooth="yes"/>
      <point x="446" y="370"/>
      <point x="360" y="464"/>
      <point x="360" y="645" type="curve" smooth="yes"/>
      <point x="360" y="742" type="line"/>
    </contour>
    <contour>
      <point x="360" y="740" type="line"/>
      <point x="360" y="750" type="line" smooth="yes"/>
      <point x="360" y="1004"/>
      <point x="497" y="1142"/>
      <point x="748" y="1142" type="curve" smooth="yes"/>
      <point x="1017" y="1142"/>
      <point x="1155" y="989"/>
      <point x="1155" y="702" type="curve" smooth="yes"/>
      <point x="1155" y="545" type="line" smooth="yes"/>
      <point x="1155" y="201"/>
      <point x="997" y="32"/>
      <point x="640" y="32" type="curve" smooth="yes"/>
      <point x="17" y="32" type="line"/>
      <point x="23" y="0" type="line"/>
      <point x="641" y="0" type="line" smooth="yes"/>
      <point x="1020" y="0"/>
      <point x="1191" y="183"/>
      <point x="1191" y="546" type="curve" smooth="yes"/>
      <point x="1191" y="702" type="line" smooth="yes"/>
      <point x="1191" y="1013"/>
      <point x="1041" y="1176"/>
      <point x="748" y="1176" type="curve" smooth="yes"/>
      <point x="472" y="1176"/>
      <point x="324" y="1028"/>
      <point x="324" y="748" type="curve" smooth="yes"/>
      <point x="324" y="738" type="line"/>
    </contour>
  </outline>
</glyph>
<glyph name="Muru.kn" format="2">
  <advance width="1183"/>
  <unicode hex="0CE9"/>
  <outline>
    <contour>
      <point x="1138" y="-17" type="curve" smooth="yes"/>
      <point x="1171" y="-17" type="line"/>
      <point x="1178" y="17" type="line"/>
      <point x="1141" y="17" type="line" smooth="yes"/>
      <point x="948" y="17"/>
      <point x="855" y="100"/>
      <point x="808" y="294" type="curve"/>
      <point x="808" y="317" type="line"/>
      <point x="786" y="317" type="line"/>
      <point x="786" y="277" type="line"/>
      <point x="832" y="72"/>
      <point x="934" y="-17"/>
    </contour>
    <contour>
      <point x="453" y="-22" type="curve" smooth="yes"/>
      <point x="683" y="-22"/>
      <point x="774" y="112"/>
      <point x="806" y="283" type="curve"/>
      <point x="799" y="284" type="line"/>
      <point x="807" y="281" type="line"/>
      <point x="817" y="341"/>
      <point x="820" y="443"/>
      <point x="820" y="516" type="curve" smooth="yes"/>
      <point x="820" y="728" type="line" smooth="yes"/>
      <point x="820" y="1037"/>
      <point x="710" y="1177"/>
      <point x="469" y="1177" type="curve" smooth="yes"/>
      <point x="260" y="1177"/>
      <point x="151" y="1071"/>
      <point x="151" y="870" type="curve" smooth="yes"/>
      <point x="151" y="858" type="line" smooth="yes"/>
      <point x="151" y="778"/>
      <point x="166" y="717"/>
      <point x="189" y="670" type="curve"/>
      <point x="227" y="670" type="line"/>
      <point x="203" y="718"/>
      <point x="187" y="779"/>
      <point x="187" y="859" type="curve" smooth="yes"/>
      <point x="187" y="870" type="line" smooth="yes"/>
      <point x="187" y="1048"/>
      <point x="285" y="1144"/>
      <point x="469" y="1144" type="curve" smooth="yes"/>
      <point x="686" y="1144"/>
      <point x="784" y="1014"/>
      <point x="784" y="728" type="curve" smooth="yes"/>
      <point x="784" y="517" type="line" smooth="yes"/>
      <point x="784" y="448"/>
      <point x="783" y="387"/>
      <point x="782" y="334" type="curve"/>
      <point x="782" y="333"/>
      <point x="780" y="320"/>
      <point x="780" y="319" type="curve"/>
      <point x="752" y="106"/>
      <point x="647" y="11"/>
      <point x="453" y="11" type="curve" smooth="yes"/>
      <point x="267" y="11"/>
      <point x="170" y="94"/>
      <point x="170" y="261" type="curve" smooth="yes"/>
      <point x="170" y="272" type="line" smooth="yes"/>
      <point x="170" y="440"/>
      <point x="264" y="525"/>
      <point x="446" y="525" type="curve" smooth="yes"/>
      <point x="615" y="525"/>
      <point x="728" y="443"/>
      <point x="782" y="288" type="curve"/>
      <point x="794" y="309" type="line"/>
      <point x="759" y="455"/>
      <point x="642" y="558"/>
      <point x="445" y="558" type="curve" smooth="yes"/>
      <point x="239" y="558"/>
      <point x="134" y="461"/>
      <point x="134" y="272" type="curve" smooth="yes"/>
      <point x="134" y="261" type="line" smooth="yes"/>
      <point x="134" y="73"/>
      <point x="243" y="-22"/>
    </contour>
  </outline>
</glyph>
<glyph name="Aaru.kn" format="2">
  <advance width="1133"/>
  <unicode hex="0CEC"/>
  <outline>
    <contour>
      <point x="177" y="312" type="curve" smooth="yes"/>
      <point x="177" y="330" type="line" smooth="yes"/>
      <point x="177" y="515"/>
      <point x="267" y="597"/>
      <point x="455" y="598" type="curve" smooth="yes"/>
      <point x="727" y="599" type="line"/>
      <point x="727" y="631" type="line"/>
      <point x="453" y="632" type="line" smooth="yes"/>
      <point x="269" y="633"/>
      <point x="181" y="708"/>
      <point x="181" y="875" type="curve" smooth="yes"/>
      <point x="181" y="895" type="line" smooth="yes"/>
      <point x="181" y="1060"/>
      <point x="273" y="1143"/>
      <point x="458" y="1143" type="curve" smooth="yes"/>
      <point x="555" y="1143"/>
      <point x="637" y="1123"/>
      <point x="694" y="1091" type="curve"/>
      <point x="689" y="1129" type="line"/>
      <point x="633" y="1158"/>
      <point x="552" y="1176"/>
      <point x="458" y="1176" type="curve" smooth="yes"/>
      <point x="248" y="1176"/>
      <point x="145" y="1080"/>
      <point x="145" y="895" type="curve" smooth="yes"/>
      <point x="145" y="875" type="line" smooth="yes"/>
      <point x="145" y="719"/>
      <point x="218" y="631"/>
      <point x="368" y="615" type="curve"/>
      <point x="368" y="614" type="line"/>
      <point x="217" y="600"/>
      <point x="141" y="501"/>
      <point x="141" y="330" type="curve" smooth="yes"/>
      <point x="141" y="311" type="line" smooth="yes"/>
      <point x="141" y="105"/>
      <point x="257" y="0"/>
      <point x="483" y="0" type="curve" smooth="yes"/>
      <point x="1085" y="0" type="line"/>
      <point x="1091" y="32" type="line"/>
      <point x="484" y="32" type="line" smooth="yes"/>
      <point x="282" y="32"/>
      <point x="177" y="127"/>
    </contour>
  </outline>
</glyph>
<glyph name="Ombattu.kn" format="2">
  <advance width="1112"/>
  <unicode hex="0CEF"/>
  <outline>
    <contour>
      <point x="172" y="854" type="line" smooth="yes"/>
      <point x="172" y="1030"/>
      <point x="271" y="1119"/>
      <point x="463" y="1119" type="curve" smooth="yes"/>
      <point x="1089" y="1119" type="line"/>
      <point x="1089" y="1151" type="line"/>
      <point x="463" y="1151" type="line" smooth="yes"/>
      <point x="247" y="1151"/>
      <point x="136" y="1052"/>
      <point x="136" y="855" type="curve" smooth="yes"/>
      <point x="136" y="836" type="line" smooth="yes"/>
      <point x="136" y="675"/>
      <point x="207" y="583"/>
      <point x="353" y="569" type="curve"/>
      <point x="353" y="567" type="line"/>
      <point x="209" y="551"/>
      <point x="138" y="461"/>
      <point x="138" y="305" type="curve" smooth="yes"/>
      <point x="138" y="285" type="line" smooth="yes"/>
      <point x="138" y="98"/>
      <point x="233" y="0"/>
      <point x="436" y="0" type="curve" smooth="yes"/>
      <point x="633" y="0" type="line"/>
      <point x="639" y="32" type="line"/>
      <point x="437" y="32" type="line" smooth="yes"/>
      <point x="258" y="32"/>
      <point x="174" y="117"/>
      <point x="174" y="285" type="curve" smooth="yes"/>
      <point x="174" y="305" type="line" smooth="yes"/>
      <point x="174" y="473"/>
      <point x="259" y="550"/>
      <point x="438" y="551" type="curve" smooth="yes"/>
      <point x="711" y="552" type="line"/>
      <point x="711" y="584" type="line"/>
      <point x="440" y="585" type="line" smooth="yes"/>
      <point x="259" y="586"/>
      <point x="172" y="664"/>
      <point x="172" y="836" type="curve" smooth="yes"/>
    </contour>
  </outline>
</glyph>
<glyph name="Jihvamuliya.kn" format="2">
  <advance width="1057"/>
  <unicode hex="0CF1"/>
  <outline>
    <contour>
      <point x="99" y="1150" type="line"/>
      <point x="99" y="1118" type="line"/>
      <point x="505" y="584" type="line"/>
      <point x="98" y="32" type="line"/>
      <point x="98" y="0" type="line"/>
      <point x="954" y="0" type="line"/>
      <point x="954" y="32" type="line"/>
      <point x="549" y="584" type="line"/>
      <point x="953" y="1118" type="line"/>
      <point x="953" y="1150" type="line"/>
    </contour>
    <contour>
      <point x="142" y="1118" type="line"/>
      <point x="910" y="1118" type="line"/>
      <point x="527" y="613" type="line"/>
    </contour>
    <contour>
      <point x="141" y="32" type="line"/>
      <point x="527" y="554" type="line"/>
      <point x="911" y="32" type="line"/>
    </contour>
  </outline>
</glyph>
<glyph name="Upadhmaniya.kn" format="2">
  <advance width="1407"/>
  <unicode hex="0CF2"/>
  <outline>
    <contour>
      <point x="361" y="871" type="curve" smooth="yes"/>
      <point x="183" y="871"/>
      <point x="95" y="772"/>
      <point x="95" y="589" type="curve" smooth="yes"/>
      <point x="95" y="492" type="line" smooth="yes"/>
      <point x="95" y="311"/>
      <point x="183" y="210"/>
      <point x="361" y="210" type="curve" smooth="yes"/>
      <point x="540" y="210"/>
      <point x="628" y="311"/>
      <point x="628" y="492" type="curve" smooth="yes"/>
      <point x="628" y="589" type="line" smooth="yes"/>
      <point x="628" y="772"/>
      <point x="540" y="871"/>
    </contour>
    <contour>
      <point x="361" y="837" type="curve" smooth="yes"/>
      <point x="517" y="837"/>
      <point x="592" y="749"/>
      <point x="592" y="589" type="curve" smooth="yes"/>
      <point x="592" y="492" type="line" smooth="yes"/>
      <point x="592" y="333"/>
      <point x="517" y="244"/>
      <point x="361" y="244" type="curve" smooth="yes"/>
      <point x="207" y="244"/>
      <point x="131" y="333"/>
      <point x="131" y="492" type="curve" smooth="yes"/>
      <point x="131" y="589" type="line" smooth="yes"/>
      <point x="131" y="749"/>
      <point x="207" y="837"/>
    </contour>
    <contour>
      <point x="1045" y="871" type="curve" smooth="yes"/>
      <point x="867" y="871"/>
      <point x="779" y="772"/>
      <point x="779" y="589" type="curve" smooth="yes"/>
      <point x="779" y="492" type="line" smooth="yes"/>
      <point x="779" y="311"/>
      <point x="867" y="210"/>
      <point x="1045" y="210" type="curve" smooth="yes"/>
      <point x="1224" y="210"/>
      <point x="1312" y="311"/>
      <point x="1312" y="492" type="curve" smooth="yes"/>
      <point x="1312" y="589" type="line" smooth="yes"/>
      <point x="1312" y="772"/>
      <point x="1224" y="871"/>
    </contour>
    <contour>
      <point x="1045" y="837" type="curve" smooth="yes"/>
      <point x="1201" y="837"/>
      <point x="1276" y="749"/>
      <point x="1276" y="589" type="curve" smooth="yes"/>
      <point x="1276" y="492" type="line" smooth="yes"/>
      <point x="1276" y="333"/>
      <point x="1201" y="244"/>
      <point x="1045" y="244" type="curve" smooth="yes"/>
      <point x="891" y="244"/>
      <point x="815" y="333"/>
      <point x="815" y="492" type="curve" smooth="yes"/>
      <point x="815" y="589" type="line" smooth="yes"/>
      <point x="815" y="749"/>
      <point x="891" y="837"/>
    </contour>
  </outline>
</glyph>
<glyph name="endash" format="2">
  <advance width="1088"/>
  <unicode hex="2013"/>
  <outline>
    <contour>
      <point x="933" y="517" type="line"/>
      <point x="933" y="551" type="line"/>
      <point x="155" y="551" type="line"/>
      <point x="155" y="517" type="line"/>
    </contour>
  </outline>
</glyph>
<glyph name="BaHalant.kn" format="2">
  <advance width="2072"/>
  <outline>
    <component base="Halant.kn" xOffset="1523"/>
    <contour>
      <point x="449" y="1177" type="curve" smooth="yes"/>
      <point x="255" y="1177"/>
      <point x="154" y="1079"/>
      <point x="154" y="891" type="curve" smooth="yes"/>
      <point x="154" y="885" type="line" smooth="yes"/>
      <point x="154" y="804"/>
      <point x="172" y="726"/>
      <point x="197" y="670" type="curve"/>
      <point x="234" y="670" type="line"/>
      <point x="209" y="727"/>
      <point x="190" y="801"/>
      <point x="190" y="885" type="curve" smooth="yes"/>
      <point x="190" y="891" type="line" smooth="yes"/>
      <point x="190" y="1057"/>
      <point x="278" y="1143"/>
      <point x="449" y="1143" type="curve" smooth="yes"/>
      <point x="613" y="1143"/>
      <point x="698" y="1065"/>
      <point x="698" y="908" type="curve" smooth="yes"/>
      <point x="698" y="902" type="line" smooth="yes"/>
      <point x="698" y="771"/>
      <point x="637" y="703"/>
      <point x="486" y="626" type="curve" smooth="yes"/>
      <point x="384" y="574" type="line" smooth="yes"/>
      <point x="203" y="482"/>
      <point x="128" y="410"/>
      <point x="128" y="256" type="curve" smooth="yes"/>
      <point x="128" y="248" type="line" smooth="yes"/>
      <point x="128" y="71"/>
      <point x="232" y="-22"/>
      <point x="433" y="-22" type="curve" smooth="yes"/>
      <point x="628" y="-22"/>
      <point x="727" y="74"/>
      <point x="740" y="233" type="curve"/>
      <point x="742" y="233" type="line"/>
      <point x="754" y="74"/>
      <point x="846" y="-22"/>
      <point x="1027" y="-22" type="curve" smooth="yes"/>
      <point x="1231" y="-22"/>
      <point x="1330" y="103.998"/>
      <point x="1330" y="385" type="curve" smooth="yes"/>
      <point x="1330" y="656" type="line" smooth="yes"/>
      <point x="1330" y="952.002"/>
      <point x="1224" y="1079"/>
      <point x="1066" y="1116" type="curve"/>
      <point x="1066" y="1138" type="line"/>
      <point x="889" y="1138" type="line"/>
      <point x="889" y="1118" type="line"/>
      <point x="1163" y="1118"/>
      <point x="1294" y="985"/>
      <point x="1294" y="657" type="curve" smooth="yes"/>
      <point x="1294" y="384" type="line" smooth="yes"/>
      <point x="1294" y="123"/>
      <point x="1207" y="12"/>
      <point x="1026" y="12" type="curve" smooth="yes"/>
      <point x="849" y="12"/>
      <point x="764" y="110"/>
      <point x="760" y="318" type="curve" smooth="yes"/>
      <point x="758" y="431" type="line"/>
      <point x="724" y="431" type="line"/>
      <point x="722" y="318" type="line" smooth="yes"/>
      <point x="718" y="110"/>
      <point x="626" y="12"/>
      <point x="434" y="12" type="curve" smooth="yes"/>
      <point x="258" y="12"/>
      <point x="164" y="93"/>
      <point x="164" y="249" type="curve" smooth="yes"/>
      <point x="164" y="256" type="line" smooth="yes"/>
      <point x="164" y="393"/>
      <point x="235" y="460"/>
      <point x="402" y="546" type="curve" smooth="yes"/>
      <point x="505" y="599" type="line" smooth="yes"/>
      <point x="666" y="682"/>
      <point x="734" y="757"/>
      <point x="734" y="902" type="curve" smooth="yes"/>
      <point x="734" y="908" type="line" smooth="yes"/>
      <point x="734" y="1087"/>
      <point x="638" y="1177"/>
    </contour>
    <contour>
      <point x="854" y="1118" type="line"/>
      <point x="1089" y="1118" type="line"/>
      <point x="1089" y="1150" type="line"/>
      <point x="854" y="1150" type="line"/>
    </contour>
  </outline>
</glyph>
<glyph name="BamatraI.kn.1" format="2">
  <advance width="1526"/>
  <outline>
    <contour>
      <point x="449" y="1177" type="curve" smooth="yes"/>
      <point x="255" y="1177"/>
      <point x="154" y="1079"/>
      <point x="154" y="891" type="curve" smooth="yes"/>
      <point x="154" y="885" type="line" smooth="yes"/>
      <point x="154" y="804"/>
      <point x="172" y="726"/>
      <point x="197" y="670" type="curve"/>
      <point x="234" y="670" type="line"/>
      <point x="209" y="727"/>
      <point x="190" y="801"/>
      <point x="190" y="885" type="curve" smooth="yes"/>
      <point x="190" y="891" type="line" smooth="yes"/>
      <point x="190" y="1057"/>
      <point x="278" y="1143"/>
      <point x="449" y="1143" type="curve" smooth="yes"/>
      <point x="613" y="1143"/>
      <point x="698" y="1065"/>
      <point x="698" y="908" type="curve" smooth="yes"/>
      <point x="698" y="902" type="line" smooth="yes"/>
      <point x="698" y="771"/>
      <point x="637" y="703"/>
      <point x="486" y="626" type="curve" smooth="yes"/>
      <point x="384" y="574" type="line" smooth="yes"/>
      <point x="203" y="482"/>
      <point x="128" y="410"/>
      <point x="128" y="256" type="curve" smooth="yes"/>
      <point x="128" y="248" type="line" smooth="yes"/>
      <point x="128" y="71"/>
      <point x="236" y="-22"/>
      <point x="443" y="-22" type="curve" smooth="yes"/>
      <point x="644" y="-22"/>
      <point x="747" y="76"/>
      <point x="760" y="238" type="curve"/>
      <point x="768" y="238" type="line"/>
      <point x="768" y="431" type="line"/>
      <point x="744" y="431" type="line"/>
      <point x="742" y="323" type="line" smooth="yes"/>
      <point x="738" y="112"/>
      <point x="643" y="12"/>
      <point x="444" y="12" type="curve" smooth="yes"/>
      <point x="261" y="12"/>
      <point x="164" y="93"/>
      <point x="164" y="249" type="curve" smooth="yes"/>
      <point x="164" y="256" type="line" smooth="yes"/>
      <point x="164" y="393"/>
      <point x="235" y="460"/>
      <point x="402" y="546" type="curve" smooth="yes"/>
      <point x="505" y="599" type="line" smooth="yes"/>
      <point x="666" y="682"/>
      <point x="734" y="757"/>
      <point x="734" y="902" type="curve" smooth="yes"/>
      <point x="734" y="908" type="line" smooth="yes"/>
      <point x="734" y="1087"/>
      <point x="638" y="1177"/>
    </contour>
    <contour>
      <point x="1370" y="390" type="curve" smooth="yes"/>
      <point x="1370.35" y="1016" type="line" smooth="yes"/>
      <point x="1370.46" y="1207.28"/>
      <point x="1323.35" y="1387"/>
      <point x="1089.35" y="1387" type="curve" smooth="yes"/>
      <point x="919.351" y="1387"/>
      <point x="829.351" y="1297.98"/>
      <point x="829.351" y="1124" type="curve" smooth="yes"/>
      <point x="829.351" y="1099" type="line" smooth="yes"/>
      <point x="829.351" y="931.996"/>
      <point x="918.351" y="849"/>
      <point x="1088.35" y="849" type="curve" smooth="yes"/>
      <point x="1222.62" y="849"/>
      <point x="1306.92" y="925.4"/>
      <point x="1343.35" y="989" type="curve"/>
      <point x="1342.35" y="1043" type="line"/>
      <point x="1304.35" y="962"/>
      <point x="1221.35" y="883"/>
      <point x="1088.35" y="883" type="curve" smooth="yes"/>
      <point x="946.351" y="883"/>
      <point x="865.351" y="949.93"/>
      <point x="865.351" y="1099" type="curve" smooth="yes"/>
      <point x="865.351" y="1124" type="line" smooth="yes"/>
      <point x="865.351" y="1277"/>
      <point x="942.351" y="1353"/>
      <point x="1089.35" y="1353" type="curve" smooth="yes"/>
      <point x="1307.35" y="1353"/>
      <point x="1334.45" y="1171.96"/>
      <point x="1334.35" y="996" type="curve" smooth="yes"/>
      <point x="1334" y="389" type="line" smooth="yes"/>
      <point x="1334" y="124"/>
      <point x="1244" y="12"/>
      <point x="1056" y="12" type="curve" smooth="yes"/>
      <point x="873" y="12"/>
      <point x="784" y="112"/>
      <point x="780" y="323" type="curve" smooth="yes"/>
      <point x="778" y="431" type="line"/>
      <point x="753" y="431" type="line"/>
      <point x="762" y="238" type="line"/>
      <point x="775" y="76"/>
      <point x="870" y="-22"/>
      <point x="1057" y="-22" type="curve" smooth="yes"/>
      <point x="1268" y="-22"/>
      <point x="1370" y="106"/>
    </contour>
  </outline>
</glyph>
<glyph name="BamatraI.kn" format="2">
  <advance width="1526"/>
  <outline>
    <contour>
      <point x="449" y="1177" type="curve" smooth="yes"/>
      <point x="255" y="1177"/>
      <point x="154" y="1079"/>
      <point x="154" y="891" type="curve" smooth="yes"/>
      <point x="154" y="885" type="line" smooth="yes"/>
      <point x="154" y="804"/>
      <point x="172" y="726"/>
      <point x="197" y="670" type="curve"/>
      <point x="234" y="670" type="line"/>
      <point x="209" y="727"/>
      <point x="190" y="801"/>
      <point x="190" y="885" type="curve" smooth="yes"/>
      <point x="190" y="891" type="line" smooth="yes"/>
      <point x="190" y="1057"/>
      <point x="278" y="1143"/>
      <point x="449" y="1143" type="curve" smooth="yes"/>
      <point x="613" y="1143"/>
      <point x="698" y="1065"/>
      <point x="698" y="908" type="curve" smooth="yes"/>
      <point x="698" y="902" type="line" smooth="yes"/>
      <point x="698" y="771"/>
      <point x="637" y="703"/>
      <point x="486" y="626" type="curve" smooth="yes"/>
      <point x="384" y="574" type="line" smooth="yes"/>
      <point x="203" y="482"/>
      <point x="128" y="410"/>
      <point x="128" y="256" type="curve" smooth="yes"/>
      <point x="128" y="248" type="line" smooth="yes"/>
      <point x="128" y="71"/>
      <point x="236" y="-22"/>
      <point x="443" y="-22" type="curve" smooth="yes"/>
      <point x="644" y="-22"/>
      <point x="747" y="76"/>
      <point x="760" y="238" type="curve"/>
      <point x="768" y="238" type="line"/>
      <point x="768" y="431" type="line"/>
      <point x="744" y="431" type="line"/>
      <point x="742" y="323" type="line" smooth="yes"/>
      <point x="738" y="112"/>
      <point x="643" y="12"/>
      <point x="444" y="12" type="curve" smooth="yes"/>
      <point x="261" y="12"/>
      <point x="164" y="93"/>
      <point x="164" y="249" type="curve" smooth="yes"/>
      <point x="164" y="256" type="line" smooth="yes"/>
      <point x="164" y="393"/>
      <point x="235" y="460"/>
      <point x="402" y="546" type="curve" smooth="yes"/>
      <point x="505" y="599" type="line" smooth="yes"/>
      <point x="666" y="682"/>
      <point x="734" y="757"/>
      <point x="734" y="902" type="curve" smooth="yes"/>
      <point x="734" y="908" type="line" smooth="yes"/>
      <point x="734" y="1087"/>
      <point x="638" y="1177"/>
    </contour>
    <contour>
      <point x="1370" y="390" type="curve" smooth="yes"/>
      <point x="1370" y="931" type="line" smooth="yes"/>
      <point x="1370" y="959.632"/>
      <point x="1370.02" y="987.374"/>
      <point x="1370" y="1016" type="curve" smooth="yes"/>
      <point x="1369.85" y="1207.28"/>
      <point x="1323" y="1387"/>
      <point x="1089" y="1387" type="curve" smooth="yes"/>
      <point x="919" y="1387"/>
      <point x="829" y="1297.98"/>
      <point x="829" y="1124" type="curve" smooth="yes"/>
      <point x="829" y="1099" type="line" smooth="yes"/>
      <point x="829" y="931.996"/>
      <point x="918" y="849"/>
      <point x="1088" y="849" type="curve" smooth="yes"/>
      <point x="1217" y="849"/>
      <point x="1298" y="919"/>
      <point x="1333" y="974" type="curve"/>
      <point x="1344" y="974" type="line"/>
      <point x="1342" y="1043" type="line"/>
      <point x="1304" y="962"/>
      <point x="1221" y="883"/>
      <point x="1088" y="883" type="curve" smooth="yes"/>
      <point x="946" y="883"/>
      <point x="865" y="949.93"/>
      <point x="865" y="1099" type="curve" smooth="yes"/>
      <point x="865" y="1124" type="line" smooth="yes"/>
      <point x="865" y="1277"/>
      <point x="942" y="1353"/>
      <point x="1089" y="1353" type="curve" smooth="yes"/>
      <point x="1307" y="1353"/>
      <point x="1334" y="1171.96"/>
      <point x="1334" y="996" type="curve"/>
      <point x="1334" y="995"/>
      <point x="1334" y="995"/>
      <point x="1334" y="994" type="curve"/>
      <point x="1334" y="993"/>
      <point x="1334" y="992"/>
      <point x="1334" y="991" type="curve"/>
      <point x="1334" y="990"/>
      <point x="1334" y="989"/>
      <point x="1334" y="988" type="curve"/>
      <point x="1334" y="976" type="line" smooth="yes"/>
      <point x="1334" y="959"/>
      <point x="1334" y="948"/>
      <point x="1334" y="931" type="curve" smooth="yes"/>
      <point x="1334" y="389" type="line" smooth="yes"/>
      <point x="1334" y="124"/>
      <point x="1244" y="12"/>
      <point x="1056" y="12" type="curve" smooth="yes"/>
      <point x="873" y="12"/>
      <point x="784" y="112"/>
      <point x="780" y="323" type="curve" smooth="yes"/>
      <point x="778" y="431" type="line"/>
      <point x="753" y="431" type="line"/>
      <point x="762" y="238" type="line"/>
      <point x="775" y="76"/>
      <point x="870" y="-22"/>
      <point x="1057" y="-22" type="curve" smooth="yes"/>
      <point x="1268" y="-22"/>
      <point x="1370" y="106"/>
    </contour>
  </outline>
</glyph>
<glyph name="Basmall1.kn" format="2">
  <outline>
    <contour>
      <point x="-89" y="-165" type="curve" smooth="yes"/>
      <point x="-99" y="-165"/>
      <point x="-106" y="-165"/>
      <point x="-117" y="-166" type="curve"/>
      <point x="-117" y="-197" type="line"/>
      <point x="-107" y="-196"/>
      <point x="-100" y="-196"/>
      <point x="-91" y="-196" type="curve" smooth="yes"/>
      <point x="18" y="-196"/>
      <point x="72" y="-261"/>
      <point x="72" y="-412" type="curve" smooth="yes"/>
      <point x="72" y="-530" type="line" smooth="yes"/>
      <point x="72" y="-644"/>
      <point x="26" y="-708"/>
      <point x="-66" y="-708" type="curve" smooth="yes"/>
      <point x="-161" y="-708"/>
      <point x="-206" y="-657"/>
      <point x="-209" y="-549" type="curve" smooth="yes"/>
      <point x="-210" y="-510" type="line"/>
      <point x="-230" y="-510" type="line"/>
      <point x="-226" y="-608" type="line"/>
      <point x="-217" y="-694"/>
      <point x="-159" y="-740"/>
      <point x="-64" y="-740" type="curve" smooth="yes"/>
      <point x="52" y="-740"/>
      <point x="106" y="-665"/>
      <point x="106" y="-531" type="curve" smooth="yes"/>
      <point x="106" y="-412" type="line" smooth="yes"/>
      <point x="106" y="-240"/>
      <point x="42" y="-165"/>
    </contour>
    <contour>
      <point x="-388" y="-158" type="curve" smooth="yes"/>
      <point x="-498" y="-158"/>
      <point x="-556" y="-212"/>
      <point x="-556" y="-311" type="curve"/>
      <point x="-556" y="-311"/>
      <point x="-556" y="-314"/>
      <point x="-556" y="-314" type="curve"/>
      <point x="-556" y="-350"/>
      <point x="-549" y="-385"/>
      <point x="-535" y="-410" type="curve"/>
      <point x="-500" y="-410" type="line"/>
      <point x="-513" y="-383"/>
      <point x="-522" y="-351"/>
      <point x="-522" y="-314" type="curve"/>
      <point x="-522" y="-314"/>
      <point x="-522" y="-311"/>
      <point x="-522" y="-311" type="curve"/>
      <point x="-522" y="-231"/>
      <point x="-476" y="-190"/>
      <point x="-388" y="-190" type="curve" smooth="yes"/>
      <point x="-305" y="-190"/>
      <point x="-259" y="-226"/>
      <point x="-259" y="-298" type="curve" smooth="yes"/>
      <point x="-259" y="-301" type="line" smooth="yes"/>
      <point x="-259" y="-358"/>
      <point x="-292" y="-385"/>
      <point x="-370" y="-418" type="curve" smooth="yes"/>
      <point x="-426" y="-442" type="line" smooth="yes"/>
      <point x="-526" y="-485"/>
      <point x="-570" y="-524"/>
      <point x="-570" y="-600" type="curve" smooth="yes"/>
      <point x="-570" y="-603" type="line" smooth="yes"/>
      <point x="-570" y="-692"/>
      <point x="-509" y="-740"/>
      <point x="-398" y="-740" type="curve" smooth="yes"/>
      <point x="-296" y="-740"/>
      <point x="-238" y="-695"/>
      <point x="-227" y="-608" type="curve"/>
      <point x="-214" y="-608" type="line"/>
      <point x="-219" y="-510" type="line"/>
      <point x="-243" y="-510" type="line"/>
      <point x="-244" y="-550" type="line" smooth="yes"/>
      <point x="-247" y="-656"/>
      <point x="-296" y="-708"/>
      <point x="-397" y="-708" type="curve" smooth="yes"/>
      <point x="-487" y="-708"/>
      <point x="-536" y="-672"/>
      <point x="-536" y="-603" type="curve" smooth="yes"/>
      <point x="-536" y="-600" type="line" smooth="yes"/>
      <point x="-536" y="-538"/>
      <point x="-497" y="-504"/>
      <point x="-409" y="-467" type="curve" smooth="yes"/>
      <point x="-354" y="-444" type="line" smooth="yes"/>
      <point x="-265" y="-407"/>
      <point x="-225" y="-371"/>
      <point x="-225" y="-301" type="curve" smooth="yes"/>
      <point x="-225" y="-298" type="line" smooth="yes"/>
      <point x="-225" y="-206"/>
      <point x="-282" y="-158"/>
    </contour>
  </outline>
</glyph>
<glyph name="BhaHalant.kn" format="2">
  <advance width="2072"/>
  <outline>
    <component base="BaHalant.kn"/>
    <contour>
      <point x="741" y="-366" type="curve" smooth="yes"/>
      <point x="759" y="-366"/>
      <point x="766" y="-353"/>
      <point x="766" y="-325" type="curve" smooth="yes"/>
      <point x="766" y="-257" type="line" smooth="yes"/>
      <point x="766" y="-109"/>
      <point x="760" y="-10"/>
      <point x="741" y="73" type="curve"/>
      <point x="722" y="-10"/>
      <point x="716" y="-109"/>
      <point x="716" y="-257" type="curve" smooth="yes"/>
      <point x="716" y="-325" type="line" smooth="yes"/>
      <point x="716" y="-353"/>
      <point x="723" y="-366"/>
    </contour>
  </outline>
</glyph>
<glyph name="BhamatraE.kn" format="2">
  <advance width="1480"/>
  <outline>
    <component base="BamatraE.kn"/>
    <contour>
      <point x="741" y="-366" type="curve" smooth="yes"/>
      <point x="759" y="-366"/>
      <point x="766" y="-353"/>
      <point x="766" y="-325" type="curve" smooth="yes"/>
      <point x="766" y="-257" type="line" smooth="yes"/>
      <point x="766" y="-109"/>
      <point x="760" y="-10"/>
      <point x="741" y="73" type="curve"/>
      <point x="722" y="-10"/>
      <point x="716" y="-109"/>
      <point x="716" y="-257" type="curve" smooth="yes"/>
      <point x="716" y="-325" type="line" smooth="yes"/>
      <point x="716" y="-353"/>
      <point x="723" y="-366"/>
    </contour>
  </outline>
</glyph>
<glyph name="BhamatraI.kn.1" format="2">
  <advance width="1526"/>
  <outline>
    <component base="BamatraI.kn.1"/>
    <contour>
      <point x="761" y="-366" type="curve" smooth="yes"/>
      <point x="779" y="-366"/>
      <point x="786" y="-353"/>
      <point x="786" y="-325" type="curve" smooth="yes"/>
      <point x="786" y="-257" type="line" smooth="yes"/>
      <point x="786" y="-109"/>
      <point x="780" y="-10"/>
      <point x="761" y="73" type="curve"/>
      <point x="742" y="-10"/>
      <point x="736" y="-109"/>
      <point x="736" y="-257" type="curve" smooth="yes"/>
      <point x="736" y="-325" type="line" smooth="yes"/>
      <point x="736" y="-353"/>
      <point x="743" y="-366"/>
    </contour>
  </outline>
  <guideline angle="0" x="0" y="-274"/>
  <guideline angle="90" x="82" y="0"/>
</glyph>
<glyph name="BhamatraI.kn" format="2">
  <advance width="1526"/>
  <outline>
    <component base="BamatraI.kn"/>
    <contour>
      <point x="751" y="-366" type="curve" smooth="yes"/>
      <point x="769" y="-366"/>
      <point x="776" y="-353"/>
      <point x="776" y="-325" type="curve" smooth="yes"/>
      <point x="776" y="-257" type="line" smooth="yes"/>
      <point x="776" y="-109"/>
      <point x="770" y="-10"/>
      <point x="751" y="73" type="curve"/>
      <point x="732" y="-10"/>
      <point x="726" y="-109"/>
      <point x="726" y="-257" type="curve" smooth="yes"/>
      <point x="726" y="-325" type="line" smooth="yes"/>
      <point x="726" y="-353"/>
      <point x="733" y="-366"/>
    </contour>
  </outline>
</glyph>
<glyph name="Bhasmall1.kn" format="2">
  <outline>
    <component base="Basmall1.kn"/>
    <contour>
      <point x="-227" y="-684" type="curve"/>
      <point x="-243" y="-734"/>
      <point x="-247" y="-784"/>
      <point x="-247" y="-853" type="curve" smooth="yes"/>
      <point x="-247" y="-891" type="line" smooth="yes"/>
      <point x="-247" y="-913"/>
      <point x="-242" y="-923"/>
      <point x="-227" y="-923" type="curve" smooth="yes"/>
      <point x="-213" y="-923"/>
      <point x="-206" y="-913"/>
      <point x="-206" y="-891" type="curve" smooth="yes"/>
      <point x="-206" y="-853" type="line" smooth="yes"/>
      <point x="-206" y="-784"/>
      <point x="-213" y="-733"/>
    </contour>
  </outline>
</glyph>
<glyph name="CamatraI.kn" format="2">
  <advance width="1508"/>
  <outline>
    <contour>
      <point x="1121" y="614" type="line"/>
      <point x="1195" y="611" type="line"/>
      <point x="1195" y="615" type="line"/>
      <point x="1419" y="614" type="line"/>
      <point x="1419" y="646" type="line"/>
      <point x="1190" y="645" type="line"/>
      <point x="1078" y="646" type="line"/>
      <point x="873" y="646" type="line"/>
      <point x="873" y="614" type="line"/>
    </contour>
    <contour>
      <point x="1356" y="333" type="line" smooth="yes"/>
      <point x="1356" y="497"/>
      <point x="1296" y="583"/>
      <point x="1195" y="614" type="curve"/>
      <point x="1069" y="626" type="line"/>
      <point x="1069" y="614" type="line"/>
      <point x="1235" y="614"/>
      <point x="1320" y="520"/>
      <point x="1320" y="332" type="curve" smooth="yes"/>
      <point x="1320" y="293" type="line" smooth="yes"/>
      <point x="1320" y="109"/>
      <point x="1229" y="12"/>
      <point x="1048" y="12" type="curve" smooth="yes"/>
      <point x="865" y="12"/>
      <point x="774" y="110"/>
      <point x="770" y="318" type="curve" smooth="yes"/>
      <point x="768" y="431" type="line"/>
      <point x="746" y="431" type="line"/>
      <point x="751" y="240" type="line"/>
      <point x="762" y="77"/>
      <point x="860" y="-22"/>
      <point x="1049" y="-22" type="curve" smooth="yes"/>
      <point x="1253" y="-22"/>
      <point x="1356" y="85"/>
      <point x="1356" y="292" type="curve" smooth="yes"/>
    </contour>
    <contour>
      <point x="449" y="1177" type="curve" smooth="yes"/>
      <point x="255" y="1177"/>
      <point x="154" y="1079"/>
      <point x="154" y="891" type="curve" smooth="yes"/>
      <point x="154" y="885" type="line" smooth="yes"/>
      <point x="154" y="804"/>
      <point x="172" y="726"/>
      <point x="197" y="670" type="curve"/>
      <point x="234" y="670" type="line"/>
      <point x="209" y="727"/>
      <point x="190" y="801"/>
      <point x="190" y="885" type="curve" smooth="yes"/>
      <point x="190" y="891" type="line" smooth="yes"/>
      <point x="190" y="1057"/>
      <point x="278" y="1143"/>
      <point x="449" y="1143" type="curve" smooth="yes"/>
      <point x="613" y="1143"/>
      <point x="698" y="1065"/>
      <point x="698" y="908" type="curve" smooth="yes"/>
      <point x="698" y="902" type="line" smooth="yes"/>
      <point x="698" y="771"/>
      <point x="637" y="703"/>
      <point x="486" y="626" type="curve" smooth="yes"/>
      <point x="384" y="574" type="line" smooth="yes"/>
      <point x="203" y="482"/>
      <point x="128" y="410"/>
      <point x="128" y="256" type="curve" smooth="yes"/>
      <point x="128" y="248" type="line" smooth="yes"/>
      <point x="128" y="71"/>
      <point x="234" y="-22"/>
      <point x="438" y="-22" type="curve" smooth="yes"/>
      <point x="636" y="-22"/>
      <point x="737" y="74"/>
      <point x="750" y="233" type="curve"/>
      <point x="758" y="233" type="line"/>
      <point x="758" y="431" type="line"/>
      <point x="734" y="431" type="line"/>
      <point x="732" y="318" type="line" smooth="yes"/>
      <point x="728" y="110"/>
      <point x="634" y="12"/>
      <point x="439" y="12" type="curve" smooth="yes"/>
      <point x="259" y="12"/>
      <point x="164" y="93"/>
      <point x="164" y="249" type="curve" smooth="yes"/>
      <point x="164" y="256" type="line" smooth="yes"/>
      <point x="164" y="393"/>
      <point x="235" y="460"/>
      <point x="402" y="546" type="curve" smooth="yes"/>
      <point x="505" y="599" type="line" smooth="yes"/>
      <point x="666" y="682"/>
      <point x="734" y="757"/>
      <point x="734" y="902" type="curve" smooth="yes"/>
      <point x="734" y="908" type="line" smooth="yes"/>
      <point x="734" y="1087"/>
      <point x="638" y="1177"/>
    </contour>
    <contour>
      <point x="1086" y="1318" type="curve" smooth="yes"/>
      <point x="926" y="1318"/>
      <point x="840" y="1237"/>
      <point x="840" y="1078" type="curve" smooth="yes"/>
      <point x="840" y="1061" type="line" smooth="yes"/>
      <point x="840" y="913"/>
      <point x="926" y="837"/>
      <point x="1083" y="837" type="curve" smooth="yes"/>
      <point x="1194" y="837"/>
      <point x="1273" y="890"/>
      <point x="1309" y="962" type="curve"/>
      <point x="1320" y="962" type="line"/>
      <point x="1314" y="1027" type="line"/>
      <point x="1275" y="929"/>
      <point x="1197" y="871"/>
      <point x="1083" y="871" type="curve" smooth="yes"/>
      <point x="951" y="871"/>
      <point x="876" y="931"/>
      <point x="876" y="1061" type="curve" smooth="yes"/>
      <point x="876" y="1078" type="line" smooth="yes"/>
      <point x="876" y="1217"/>
      <point x="947" y="1284"/>
      <point x="1086" y="1284" type="curve" smooth="yes"/>
      <point x="1232" y="1284"/>
      <point x="1310" y="1197"/>
      <point x="1310" y="1033" type="curve" smooth="yes"/>
      <point x="1310" y="951" type="line" smooth="yes"/>
      <point x="1310" y="748"/>
      <point x="1224" y="646"/>
      <point x="1054" y="646" type="curve"/>
      <point x="1190" y="634" type="line"/>
      <point x="1190" y="646" type="line"/>
      <point x="1295" y="686"/>
      <point x="1346" y="791"/>
      <point x="1346" y="947" type="curve" smooth="yes"/>
      <point x="1346" y="1034" type="line" smooth="yes"/>
      <point x="1346" y="1218"/>
      <point x="1255" y="1318"/>
    </contour>
  </outline>
  <guideline angle="0" x="0" y="1775"/>
  <guideline angle="90" x="822" y="0"/>
  <guideline angle="0" x="0" y="888"/>
</glyph>
